<?xml version="1.0" encoding="UTF-8"?>
<svg xmlns="http://www.w3.org/2000/svg" width="1000" height="740" viewBox="0 0 1000 740">
<title>official-1444-reconstruction-v2 — burgundy</title><desc>Deterministic M25 review: provinces, ownership, hierarchy, uncertainty, historical constraints, and forbidden modern outlines.</desc>
<style>.province{stroke:#222;stroke-width:.7;vector-effect:non-scaling-stroke}.constraint{fill:none;stroke-width:3;vector-effect:non-scaling-stroke}.hard-constraint{stroke:#111}.soft-evidence{stroke:#d28b00;stroke-dasharray:7 5}.forbidden-modern{stroke:#d00000;stroke-dasharray:2 4}</style>
<rect width="1000" height="740" fill="#f7f3e8"/><text x="35" y="25" font-family="sans-serif" font-size="16">official-1444-reconstruction-v2 — burgundy</text>
<path class="province" id="prv_0607d17cc3c22a67ee75" data-owner="duchy-of-burgundy" data-area="area-1444-duchy-of-burgundy" data-uncertainty="0.250" fill="#added4" fill-opacity="0.750" d="M 491.863,401.533 L 507.142,353.917 L 574.651,335.738 L 590.281,288.256 L 610.999,412.939 L 535.926,455.212 L 543.690,431.014 L 491.863,401.533 Z"/>
<path class="province" id="prv_07a0680bf8edb245dde0" data-owner="duchy-of-burgundy" data-area="area-1444-duchy-of-burgundy" data-uncertainty="0.250" fill="#added4" fill-opacity="0.750" d="M 477.664,424.796 L 480.064,420.839 L 482.288,415.537 L 483.974,409.811 L 484.874,404.546 L 484.822,403.464 L 491.863,401.533 L 543.690,431.014 L 519.303,425.170 L 497.968,437.202 L 479.240,432.744 L 478.802,428.608 L 477.664,424.796 Z"/>
<path class="province" id="prv_218d5f5443698e79ffd9" data-owner="duchy-of-burgundy" data-area="area-1444-duchy-of-burgundy" data-uncertainty="0.250" fill="#added4" fill-opacity="0.750" d="M 373.039,390.759 L 397.408,396.417 L 418.649,384.329 L 443.051,390.033 L 446.158,407.826 L 424.907,419.902 L 373.039,390.759 Z"/>
<path class="province" id="prv_2454b8a1c5542ef696a6" data-owner="duchy-of-burgundy" data-area="area-1444-duchy-of-burgundy" data-uncertainty="0.250" fill="#added4" fill-opacity="0.750" d="M 461.273,360.204 L 482.656,348.168 L 507.142,353.917 L 507.142,353.917 L 499.508,377.707 L 488.800,383.726 L 464.367,377.976 L 461.273,360.204 Z"/>
<path class="province" id="prv_2a74fe158da453f13351" data-owner="duchy-of-burgundy" data-area="area-1444-duchy-of-burgundy" data-uncertainty="0.250" fill="#added4" fill-opacity="0.750" d="M 376.436,477.017 L 409.972,467.647 L 424.907,419.902 L 428.026,437.716 L 452.352,443.468 L 455.439,461.316 L 434.245,473.400 L 437.344,491.269 L 461.595,497.068 L 376.436,477.017 Z"/>
<path class="province" id="prv_426a9f0072fcda5f6d0c" data-owner="duchy-of-burgundy" data-area="area-1444-duchy-of-burgundy" data-uncertainty="0.250" fill="#added4" fill-opacity="0.750" d="M 462.750,378.891 L 464.367,377.976 L 488.800,383.726 L 499.508,377.707 L 491.863,401.533 L 484.822,403.464 L 484.615,399.208 L 482.940,393.994 L 479.857,390.062 L 472.129,387.073 L 467.236,383.762 L 463.149,380.105 L 462.750,378.891 Z"/>
<path class="province" id="prv_4b9f9b5a29d02025af19" data-owner="duchy-of-burgundy" data-area="area-1444-duchy-of-burgundy" data-uncertainty="0.250" fill="#added4" fill-opacity="0.750" d="M 424.907,419.902 L 446.158,407.826 L 443.051,390.033 L 462.750,378.891 L 463.149,380.105 L 467.236,383.762 L 472.129,387.073 L 479.857,390.062 L 482.940,393.994 L 484.615,399.208 L 484.822,403.464 L 424.907,419.902 Z"/>
<path class="province" id="prv_5a1a1d7221434b73b8d2" data-owner="duchy-of-savoy" data-area="area-1444-duchy-of-savoy" data-uncertainty="0.250" fill="#2c2bab" fill-opacity="0.750" d="M 461.595,497.068 L 610.999,412.939 L 782.141,455.142 L 801.307,581.494 L 651.534,665.000 L 482.938,622.770 L 461.595,497.068 Z"/>
<path class="province" id="prv_882895543b54c0efada0" data-owner="duchy-of-burgundy" data-area="area-1444-duchy-of-burgundy" data-uncertainty="0.250" fill="#added4" fill-opacity="0.750" d="M 417.960,248.357 L 590.281,288.256 L 574.651,335.738 L 507.142,353.917 L 455.065,324.716 L 470.290,277.276 L 417.960,248.357 Z"/>
<path class="province" id="prv_89de503b8ea0d5254c1a" data-owner="duchy-of-burgundy" data-area="area-1444-duchy-of-burgundy" data-uncertainty="0.250" fill="#added4" fill-opacity="0.750" d="M 424.907,419.902 L 458.399,410.714 L 470.537,413.577 L 473.612,431.404 L 452.352,443.468 L 428.026,437.716 L 424.907,419.902 Z"/>
<path class="province" id="prv_9a510d21e7891a2aa7cb" data-owner="duchy-of-burgundy" data-area="area-1444-duchy-of-burgundy" data-uncertainty="0.250" fill="#added4" fill-opacity="0.750" d="M 373.039,390.759 L 380.483,366.957 L 391.087,360.914 L 415.511,366.570 L 418.649,384.329 L 397.408,396.417 L 373.039,390.759 Z"/>
<path class="province" id="prv_a69219561a3fc84e409a" data-owner="county-of-burgundy" data-area="area-1444-county-of-burgundy" data-uncertainty="0.150" fill="#b776a4" fill-opacity="0.850" d="M 590.281,288.256 L 742.949,205.157 L 916.674,247.373 L 935.121,372.667 L 782.141,455.142 L 610.999,412.939 L 590.281,288.256 Z"/>
<path class="province" id="prv_a8194296c2a105ba4898" data-owner="duchy-of-savoy" data-area="area-1444-duchy-of-savoy" data-uncertainty="0.250" fill="#2c2bab" fill-opacity="0.750" d="M 488.575,481.876 L 525.386,461.148 L 525.346,460.908 L 501.012,455.064 L 497.968,437.202 L 519.303,425.170 L 543.690,431.014 L 535.926,455.212 L 488.575,481.876 Z"/>
<path class="province" id="prv_ad640a9b29a2d342283b" data-owner="duchy-of-savoy" data-area="area-1444-duchy-of-savoy" data-uncertainty="0.250" fill="#2c2bab" fill-opacity="0.750" d="M 466.454,463.945 L 467.525,462.375 L 469.956,459.592 L 471.736,456.747 L 474.715,442.833 L 478.874,438.762 L 479.370,433.978 L 479.240,432.744 L 497.968,437.202 L 501.012,455.064 L 479.743,467.115 L 466.454,463.945 Z"/>
<path class="province" id="prv_bb8415fb9558fdbd29b5" data-owner="duchy-of-burgundy" data-area="area-1444-duchy-of-burgundy" data-uncertainty="0.250" fill="#added4" fill-opacity="0.750" d="M 415.511,366.570 L 436.818,354.502 L 461.273,360.204 L 464.367,377.976 L 443.051,390.033 L 418.649,384.329 L 415.511,366.570 Z"/>
<path class="province" id="prv_bf2e256ea8867ee876ff" data-owner="duchy-of-burgundy" data-area="area-1444-duchy-of-burgundy" data-uncertainty="0.150" fill="#added4" fill-opacity="0.850" d="M 395.656,125.382 L 547.909,41.673 L 722.909,81.558 L 742.949,205.157 L 590.281,288.256 L 417.960,248.357 L 395.656,125.382 Z"/>
<path class="province" id="prv_c9ee66f0052b18309689" data-owner="duchy-of-savoy" data-area="area-1444-duchy-of-savoy" data-uncertainty="0.250" fill="#2c2bab" fill-opacity="0.750" d="M 434.245,473.400 L 455.439,461.316 L 479.743,467.115 L 482.798,484.998 L 482.961,485.037 L 461.595,497.068 L 437.344,491.269 L 434.245,473.400 Z"/>
<path class="province" id="prv_cbbda0b835fa953e31f9" data-owner="duchy-of-savoy" data-area="area-1444-duchy-of-savoy" data-uncertainty="0.250" fill="#2c2bab" fill-opacity="0.750" d="M 479.743,467.115 L 501.012,455.064 L 525.346,460.908 L 525.386,461.148 L 482.961,485.037 L 482.798,484.998 L 479.743,467.115 Z"/>
<path class="province" id="prv_e5c0d8214abc0f50dd70" data-owner="duchy-of-burgundy" data-area="area-1444-duchy-of-burgundy" data-uncertainty="0.250" fill="#added4" fill-opacity="0.750" d="M 291.911,457.114 L 306.447,409.419 L 373.039,390.759 L 424.907,419.902 L 409.972,467.647 L 376.436,477.017 L 291.911,457.114 Z"/>
<path class="province" id="prv_e6fce656bbc82a702036" data-owner="duchy-of-burgundy" data-area="area-1444-duchy-of-burgundy" data-uncertainty="0.250" fill="#added4" fill-opacity="0.750" d="M 458.399,410.714 L 484.822,403.464 L 484.874,404.546 L 483.974,409.811 L 482.288,415.537 L 480.064,420.839 L 477.664,424.796 L 478.802,428.608 L 479.240,432.744 L 473.612,431.404 L 470.537,413.577 L 458.399,410.714 Z"/>
<path class="province" id="prv_fc2af91b8109520f0f64" data-owner="duchy-of-burgundy" data-area="area-1444-duchy-of-burgundy" data-uncertainty="0.250" fill="#added4" fill-opacity="0.750" d="M 452.352,443.468 L 473.612,431.404 L 479.240,432.744 L 479.370,433.978 L 478.874,438.762 L 474.715,442.833 L 471.736,456.747 L 469.956,459.592 L 467.525,462.375 L 466.454,463.945 L 455.439,461.316 L 452.352,443.468 Z"/>
<path class="constraint forbidden-modern" id="forbidden-modern-bourgogne-franche-comte" d="M 54.434,85.127 L 57.951,84.763 L 58.245,85.929 L 60.171,87.327 L 64.001,88.055 L 63.622,87.122 L 65.887,87.406 L 65.947,88.636 L 66.744,89.748 L 67.467,90.109 L 68.563,89.619 L 68.687,89.067 L 69.980,88.884 L 72.502,91.156 L 74.072,91.512 L 71.231,95.225 L 74.711,95.557 L 75.278,95.153 L 75.986,98.816 L 76.405,99.381 L 76.945,99.403 L 76.952,99.975 L 78.250,99.880 L 78.513,100.364 L 78.212,101.994 L 78.502,104.471 L 80.738,106.154 L 82.975,106.845 L 84.483,106.787 L 86.474,108.293 L 88.079,108.323 L 86.853,109.358 L 87.572,109.667 L 87.429,110.331 L 87.983,110.369 L 87.882,111.223 L 90.427,112.329 L 94.182,113.167 L 93.285,113.598 L 93.348,114.326 L 92.571,113.805 L 90.902,114.552 L 89.332,114.791 L 88.937,115.528 L 90.081,117.014 L 91.313,117.423 L 92.327,117.012 L 94.177,118.300 L 93.431,119.171 L 93.977,119.513 L 93.522,120.672 L 93.737,121.568 L 94.701,121.609 L 93.295,122.618 L 94.010,123.223 L 95.125,123.476 L 94.765,126.524 L 90.999,127.815 L 91.519,128.681 L 90.164,131.000 L 88.610,130.609 L 88.607,131.157 L 88.182,130.924 L 86.764,131.769 L 85.685,131.927 L 85.206,133.043 L 84.714,133.048 L 84.495,134.287 L 81.551,134.480 L 80.943,135.410 L 78.640,135.809 L 78.977,136.532 L 78.365,136.648 L 78.560,138.691 L 75.871,139.523 L 75.507,138.446 L 73.082,139.785 L 71.655,139.229 L 71.696,139.578 L 69.832,139.771 L 70.467,140.334 L 70.342,140.744 L 71.474,141.153 L 70.655,141.819 L 69.362,141.912 L 69.958,143.147 L 69.346,144.357 L 70.310,144.937 L 70.132,145.938 L 70.484,146.445 L 68.340,147.502 L 66.722,147.861 L 67.844,147.936 L 70.108,148.931 L 72.770,149.207 L 74.057,150.038 L 73.236,150.146 L 74.594,151.463 L 74.426,152.746 L 75.039,152.874 L 74.019,154.711 L 73.011,154.531 L 70.451,154.878 L 70.972,155.281 L 70.683,156.251 L 71.222,157.189 L 70.810,157.376 L 72.571,158.348 L 71.044,159.287 L 73.019,159.361 L 72.977,160.242 L 73.805,161.857 L 73.149,164.828 L 72.847,165.029 L 67.848,164.853 L 65.367,165.091 L 63.719,165.835 L 63.373,166.309 L 59.733,167.376 L 58.273,167.310 L 57.199,169.388 L 55.160,169.478 L 54.561,169.229 L 54.309,169.895 L 53.111,170.141 L 52.680,169.716 L 51.559,169.736 L 50.098,168.749 L 48.993,168.591 L 48.448,169.192 L 46.634,169.271 L 46.349,169.919 L 44.729,169.514 L 44.466,169.776 L 40.376,169.543 L 38.768,170.418 L 37.429,170.225 L 36.475,171.076 L 37.862,172.540 L 37.911,173.370 L 36.902,175.802 L 36.016,176.424 L 36.816,177.166 L 36.558,177.672 L 35.767,177.807 L 35.870,178.440 L 36.581,178.709 L 35.751,179.702 L 37.159,180.078 L 38.374,181.161 L 42.196,179.007 L 43.437,180.528 L 43.298,181.699 L 42.889,181.611 L 42.259,182.514 L 46.367,184.101 L 47.452,183.977 L 48.271,185.239 L 48.674,184.996 L 49.652,185.245 L 49.773,185.932 L 50.225,185.915 L 51.114,186.883 L 52.220,187.129 L 50.524,189.723 L 52.313,192.007 L 53.962,192.394 L 54.510,191.960 L 55.369,192.306 L 55.645,193.193 L 58.103,194.772 L 54.364,196.741 L 54.413,197.408 L 53.524,198.757 L 54.228,198.912 L 53.917,200.112 L 54.778,200.549 L 54.584,201.083 L 56.246,202.722 L 54.330,204.630 L 55.594,204.750 L 55.880,205.953 L 57.279,206.752 L 58.324,206.538 L 59.839,207.480 L 59.944,208.211 L 60.338,208.368 L 60.007,209.587 L 60.570,210.104 L 62.493,210.105 L 62.891,210.946 L 60.087,212.146 L 59.131,213.508 L 49.712,211.703 L 48.736,212.560 L 48.638,213.153 L 47.691,213.767 L 44.552,214.533 L 41.144,214.504 L 41.052,215.228 L 41.427,215.230 L 40.976,216.126 L 38.344,215.682 L 38.708,215.583 L 38.208,214.204 L 36.641,215.004 L 36.392,215.641 L 35.000,216.182 L 36.196,218.042 L 42.236,221.962 L 44.230,223.695 L 46.014,227.596 L 46.337,229.552 L 49.654,231.859 L 51.122,235.134 L 53.350,238.425 L 53.264,240.123 L 50.888,242.356 L 50.713,245.519 L 48.017,248.317 L 45.669,252.774 L 44.032,254.996 L 42.492,256.114 L 40.403,258.924 L 40.267,259.858 L 41.255,260.648 L 40.818,261.174 L 41.711,263.432 L 43.596,264.666 L 48.963,265.989 L 52.578,268.523 L 55.169,271.042 L 62.340,274.464 L 64.277,276.371 L 63.191,281.721 L 63.440,283.170 L 63.982,284.593 L 66.834,288.193 L 69.829,293.509 L 71.159,297.776 L 72.231,299.164 L 71.401,300.713 L 71.388,301.780 L 73.854,304.416 L 74.509,312.034 L 72.120,315.498 L 71.960,317.184 L 72.947,318.524 L 74.123,319.256 L 77.302,320.333 L 79.780,321.663 L 81.156,322.034 L 81.381,321.864 L 83.786,325.415 L 83.910,327.570 L 83.370,329.245 L 81.910,331.150 L 81.120,336.034 L 82.903,339.019 L 84.671,340.050 L 84.731,341.026 L 81.809,344.740 L 81.242,346.585 L 79.288,349.098 L 78.457,350.933 L 78.672,351.687 L 80.701,353.126 L 81.952,356.378 L 82.297,357.728 L 81.704,360.505 L 82.578,362.901 L 81.849,364.132 L 80.134,364.858 L 79.472,365.597 L 80.405,368.356 L 76.620,371.240 L 74.766,373.955 L 74.655,375.079 L 75.474,376.367 L 75.867,379.848 L 78.219,382.824 L 81.364,385.111 L 85.945,387.323 L 95.311,389.375 L 97.922,392.286 L 103.056,397.014 L 105.768,397.589 L 109.828,399.481 L 111.162,399.667 L 111.729,399.047 L 112.706,399.087 L 113.700,398.780 L 113.876,398.419 L 114.930,398.327 L 114.681,398.068 L 116.111,397.261 L 116.273,395.942 L 122.818,393.553 L 124.983,391.642 L 126.983,391.706 L 128.624,392.242 L 131.556,391.691 L 131.740,393.836 L 133.889,396.190 L 134.304,397.510 L 137.845,397.797 L 138.913,398.287 L 141.288,398.461 L 143.887,397.398 L 145.330,397.366 L 147.402,395.279 L 148.150,393.783 L 148.151,392.543 L 150.348,392.033 L 152.025,392.091 L 153.787,392.676 L 156.228,392.984 L 156.938,392.241 L 158.847,392.669 L 159.890,392.558 L 158.615,395.025 L 159.643,396.579 L 162.348,396.623 L 162.884,397.227 L 163.863,397.299 L 164.319,398.896 L 163.722,398.965 L 164.176,399.390 L 163.584,399.545 L 164.022,400.637 L 162.251,401.352 L 162.877,401.862 L 162.590,402.897 L 161.524,403.238 L 163.596,403.980 L 164.665,405.404 L 168.456,404.900 L 169.921,405.565 L 170.846,405.235 L 171.187,404.392 L 170.877,403.482 L 172.308,403.196 L 174.537,401.000 L 176.628,399.968 L 176.126,399.408 L 177.322,399.066 L 176.748,398.665 L 179.588,397.966 L 180.237,397.467 L 181.649,398.013 L 182.207,399.435 L 183.736,399.804 L 184.545,398.806 L 186.710,397.542 L 183.988,393.866 L 184.456,391.822 L 183.875,391.209 L 183.897,390.408 L 185.985,390.872 L 186.438,391.663 L 188.385,391.919 L 189.519,391.747 L 188.953,390.772 L 190.064,390.312 L 190.417,390.605 L 190.148,392.000 L 194.467,390.105 L 194.581,389.254 L 191.685,386.723 L 191.795,385.759 L 189.961,385.034 L 189.824,384.656 L 191.771,383.738 L 192.740,382.077 L 193.637,381.812 L 194.526,382.019 L 194.395,383.357 L 195.386,384.303 L 199.384,383.682 L 200.488,384.025 L 201.212,384.682 L 201.190,385.252 L 199.778,386.722 L 202.810,389.770 L 203.038,393.709 L 205.717,394.092 L 206.824,398.045 L 207.514,398.419 L 209.737,398.533 L 210.430,398.958 L 209.552,400.418 L 209.773,401.012 L 215.349,403.384 L 216.088,405.592 L 216.765,406.118 L 218.283,409.110 L 221.277,410.769 L 221.048,411.698 L 219.423,413.055 L 218.895,414.207 L 220.182,415.252 L 223.172,415.378 L 224.114,416.168 L 223.349,417.407 L 224.283,419.268 L 225.270,423.574 L 224.783,425.050 L 223.290,426.147 L 222.959,427.047 L 225.045,429.275 L 227.713,429.907 L 231.340,429.314 L 232.614,429.895 L 232.629,430.877 L 233.261,431.552 L 235.984,431.685 L 237.593,433.257 L 238.443,433.468 L 239.410,433.365 L 241.122,432.221 L 245.387,430.845 L 246.183,431.148 L 247.201,432.401 L 245.840,433.669 L 246.026,434.425 L 247.560,434.846 L 249.702,434.270 L 250.946,434.947 L 250.122,438.587 L 250.385,439.256 L 251.552,439.959 L 253.848,440.386 L 256.382,441.511 L 257.407,441.630 L 257.862,441.490 L 258.830,439.545 L 260.600,438.563 L 262.496,438.366 L 265.767,439.459 L 269.096,439.151 L 270.297,439.315 L 270.857,439.554 L 269.579,441.497 L 269.994,442.380 L 274.392,441.861 L 274.906,442.091 L 275.149,442.957 L 279.586,445.080 L 280.077,446.235 L 279.211,447.980 L 280.946,449.618 L 280.197,450.318 L 278.565,450.317 L 277.252,451.025 L 277.658,452.166 L 278.748,452.601 L 278.881,453.204 L 276.358,454.587 L 277.335,456.889 L 274.904,458.913 L 276.263,463.165 L 277.276,463.847 L 277.933,464.886 L 277.065,469.111 L 277.441,470.666 L 276.788,471.771 L 276.514,473.646 L 277.430,474.193 L 279.764,473.922 L 280.725,474.096 L 278.694,475.174 L 277.486,475.070 L 277.167,475.619 L 277.592,476.718 L 277.228,476.773 L 276.344,475.969 L 274.958,475.844 L 274.447,475.455 L 273.173,475.276 L 271.041,475.908 L 268.242,475.433 L 269.010,477.185 L 268.613,479.197 L 268.096,479.831 L 265.121,480.772 L 261.551,480.600 L 257.956,481.502 L 258.292,482.387 L 257.388,482.468 L 256.687,483.060 L 257.164,484.163 L 258.443,485.034 L 258.970,484.901 L 259.619,485.672 L 260.152,487.360 L 259.961,488.205 L 260.372,488.173 L 260.534,488.890 L 259.716,490.097 L 260.671,490.978 L 260.014,491.437 L 260.254,492.168 L 259.626,493.070 L 258.357,492.504 L 258.066,492.802 L 257.799,494.193 L 258.237,495.665 L 257.363,496.454 L 257.195,497.538 L 256.452,498.052 L 258.339,499.026 L 258.849,498.839 L 261.364,499.617 L 262.355,500.517 L 265.811,499.749 L 270.707,500.164 L 272.233,500.743 L 272.350,500.516 L 273.948,500.531 L 274.045,503.047 L 273.581,503.422 L 274.024,504.191 L 275.098,504.083 L 275.121,504.702 L 275.704,504.930 L 275.245,505.133 L 275.432,505.746 L 276.377,505.878 L 276.520,506.982 L 277.583,507.674 L 278.332,506.822 L 280.300,507.377 L 283.875,506.976 L 285.954,507.655 L 286.941,506.637 L 290.697,505.079 L 292.349,503.574 L 293.179,503.410 L 294.387,503.998 L 295.780,503.111 L 299.773,502.642 L 300.263,502.002 L 301.728,501.428 L 306.264,504.657 L 307.970,505.235 L 307.959,505.922 L 314.549,506.851 L 319.350,506.510 L 319.635,506.332 L 318.727,505.160 L 318.513,504.080 L 318.922,503.238 L 319.299,503.534 L 320.168,503.468 L 321.497,502.693 L 323.762,502.193 L 326.247,504.278 L 327.378,505.836 L 329.853,505.030 L 329.983,504.450 L 330.877,504.260 L 331.063,503.497 L 332.310,503.586 L 332.953,504.047 L 333.694,503.642 L 335.563,506.342 L 334.180,506.892 L 334.048,507.528 L 333.302,508.120 L 332.414,508.082 L 332.793,508.602 L 332.671,509.973 L 339.273,510.430 L 340.619,509.458 L 341.275,507.774 L 340.957,507.464 L 341.395,507.100 L 344.660,506.481 L 345.482,507.124 L 346.643,507.334 L 347.558,505.937 L 349.063,504.950 L 348.958,504.299 L 351.021,505.138 L 351.396,504.523 L 353.014,503.652 L 354.448,503.965 L 354.806,504.577 L 356.205,504.986 L 356.757,504.893 L 357.309,504.107 L 358.274,504.438 L 359.003,503.903 L 358.024,502.508 L 356.578,502.225 L 356.589,501.133 L 358.888,500.147 L 358.789,499.230 L 359.207,498.740 L 362.235,498.357 L 361.487,495.609 L 361.674,494.126 L 362.904,493.595 L 362.281,492.109 L 361.583,491.812 L 361.388,491.202 L 362.919,490.241 L 362.208,488.797 L 362.947,488.253 L 363.069,487.422 L 363.853,486.948 L 363.691,485.287 L 364.201,484.691 L 363.896,483.501 L 365.320,482.579 L 366.073,481.498 L 365.765,480.742 L 369.283,481.004 L 369.793,480.697 L 370.234,479.347 L 372.569,480.349 L 372.788,481.373 L 374.759,480.745 L 376.636,480.786 L 376.843,480.531 L 378.783,481.816 L 379.538,482.915 L 380.563,483.274 L 381.553,483.195 L 383.268,482.477 L 383.955,483.914 L 385.699,485.292 L 385.801,486.068 L 386.505,486.876 L 388.318,486.787 L 388.956,486.246 L 389.500,486.405 L 390.164,486.123 L 393.580,486.296 L 395.486,485.416 L 395.259,484.572 L 395.810,483.803 L 395.775,483.082 L 396.977,482.975 L 396.690,482.449 L 396.968,481.839 L 398.425,480.951 L 400.469,481.349 L 401.130,482.840 L 401.053,485.003 L 403.246,486.002 L 403.199,486.369 L 408.786,487.085 L 409.616,486.877 L 410.735,487.360 L 411.508,485.973 L 411.276,484.667 L 410.293,483.685 L 411.789,483.205 L 412.554,482.399 L 414.493,482.000 L 414.322,479.894 L 418.074,479.048 L 419.456,479.820 L 419.527,480.325 L 420.408,480.951 L 422.075,480.370 L 422.422,479.951 L 423.419,479.912 L 422.974,479.083 L 423.735,478.558 L 424.808,479.445 L 426.210,479.658 L 426.662,479.416 L 426.476,480.204 L 426.930,481.623 L 427.984,481.964 L 429.005,483.554 L 429.623,483.160 L 429.583,483.835 L 430.184,484.514 L 429.777,484.925 L 429.671,486.353 L 428.937,486.051 L 428.194,486.833 L 426.676,485.929 L 425.697,486.469 L 425.332,487.233 L 423.779,486.745 L 424.176,487.337 L 423.641,488.680 L 424.600,489.801 L 425.150,489.467 L 425.641,489.613 L 425.551,490.675 L 426.613,490.875 L 427.680,489.905 L 428.742,490.536 L 429.151,490.294 L 431.748,491.780 L 432.288,491.518 L 432.803,491.974 L 432.436,492.586 L 433.207,492.236 L 435.842,494.216 L 434.911,495.470 L 432.503,494.845 L 432.111,495.263 L 432.797,495.604 L 432.386,496.534 L 434.652,497.111 L 434.200,498.134 L 435.614,498.603 L 435.342,499.757 L 433.610,499.361 L 433.359,500.204 L 432.427,500.936 L 432.646,501.816 L 432.309,502.363 L 432.709,502.402 L 432.630,503.162 L 433.392,503.532 L 433.233,504.465 L 434.172,504.411 L 433.559,504.749 L 434.301,504.803 L 433.855,505.470 L 436.472,506.275 L 438.268,506.352 L 439.039,506.952 L 440.415,507.044 L 441.002,506.154 L 442.428,506.011 L 442.970,506.370 L 444.032,505.957 L 445.082,506.012 L 444.980,503.483 L 447.750,500.789 L 448.249,496.870 L 450.996,493.075 L 451.702,490.518 L 451.673,488.163 L 454.565,485.557 L 456.007,480.389 L 460.380,473.970 L 460.196,467.983 L 461.845,465.270 L 468.037,457.945 L 467.889,455.898 L 468.565,453.397 L 468.686,449.976 L 469.636,448.570 L 473.003,446.211 L 473.758,444.244 L 473.691,439.928 L 475.880,438.109 L 477.371,435.029 L 477.975,434.524 L 479.296,434.995 L 478.887,434.006 L 479.287,433.345 L 479.523,434.394 L 481.308,434.485 L 481.981,434.936 L 481.413,435.286 L 479.707,435.282 L 479.760,436.499 L 481.146,437.490 L 481.552,437.447 L 481.698,436.648 L 483.185,435.831 L 483.799,435.800 L 484.563,436.419 L 485.301,436.344 L 485.456,435.790 L 483.866,435.193 L 483.972,434.791 L 488.236,434.296 L 489.810,434.955 L 491.781,435.041 L 492.695,435.487 L 493.805,435.187 L 493.996,435.546 L 493.561,436.073 L 494.120,436.327 L 494.278,437.267 L 497.137,438.429 L 497.684,439.305 L 500.188,439.371 L 503.542,441.007 L 504.768,440.607 L 507.783,440.519 L 507.700,439.934 L 509.731,439.589 L 510.390,438.474 L 511.149,438.604 L 512.155,437.612 L 512.886,438.465 L 514.360,439.285 L 515.805,439.120 L 516.225,438.346 L 518.728,437.628 L 519.182,436.945 L 519.366,437.262 L 520.601,437.088 L 520.101,436.485 L 520.288,435.580 L 521.017,435.512 L 522.647,436.089 L 524.753,435.973 L 526.867,436.911 L 526.677,435.498 L 527.148,434.912 L 526.716,433.810 L 527.087,433.512 L 527.979,434.089 L 528.169,434.720 L 529.941,435.454 L 533.891,435.980 L 534.380,435.826 L 534.733,436.539 L 533.795,436.929 L 534.660,437.600 L 534.927,438.725 L 536.210,439.182 L 536.010,439.704 L 535.317,439.728 L 535.057,440.123 L 536.978,441.025 L 537.031,441.409 L 536.071,442.017 L 536.691,442.285 L 536.860,442.924 L 537.442,442.957 L 537.067,444.200 L 539.313,444.220 L 541.789,446.618 L 541.773,446.229 L 542.813,445.749 L 544.142,446.216 L 545.548,446.900 L 546.172,448.157 L 547.752,447.866 L 551.723,449.090 L 552.813,448.207 L 553.498,448.166 L 556.567,449.121 L 557.410,448.803 L 558.382,449.212 L 558.175,449.818 L 558.861,450.693 L 559.029,451.957 L 560.362,452.714 L 558.528,453.122 L 558.498,453.353 L 558.049,453.201 L 557.819,453.777 L 557.069,453.548 L 556.539,454.093 L 557.015,454.532 L 556.747,455.167 L 558.275,455.336 L 556.826,455.638 L 555.664,455.119 L 554.925,455.398 L 554.900,455.977 L 558.263,456.733 L 560.683,458.329 L 561.351,458.067 L 561.691,459.053 L 562.380,459.389 L 563.047,458.458 L 563.922,458.317 L 564.505,458.773 L 566.461,459.333 L 566.246,460.219 L 567.812,460.658 L 568.430,459.941 L 568.612,461.105 L 570.150,461.563 L 570.333,462.394 L 571.654,462.524 L 568.387,465.134 L 569.930,465.351 L 569.902,465.822 L 571.510,466.372 L 570.735,468.878 L 572.123,470.223 L 574.849,471.347 L 576.765,471.663 L 576.704,472.987 L 577.255,472.983 L 577.369,477.786 L 578.514,478.005 L 579.263,476.185 L 579.885,470.301 L 581.331,469.822 L 582.256,470.991 L 581.699,471.106 L 581.787,471.508 L 582.985,472.957 L 584.216,476.730 L 585.490,476.345 L 585.732,475.970 L 586.142,476.267 L 586.328,476.014 L 588.438,476.321 L 588.953,474.978 L 589.948,475.189 L 590.523,475.005 L 590.943,476.333 L 592.299,476.676 L 590.319,481.667 L 589.603,482.172 L 588.827,481.904 L 588.916,483.644 L 588.324,485.276 L 589.446,485.382 L 589.441,485.944 L 591.002,486.064 L 590.756,486.524 L 591.644,486.854 L 591.951,487.502 L 596.012,486.489 L 597.623,486.687 L 598.072,486.060 L 598.547,486.178 L 598.381,486.670 L 599.570,487.509 L 602.056,487.458 L 602.809,487.028 L 606.374,486.336 L 610.179,483.332 L 611.379,481.240 L 613.407,481.458 L 613.991,481.095 L 616.089,481.517 L 617.964,480.713 L 619.194,478.319 L 620.220,477.670 L 620.046,476.989 L 620.992,475.780 L 621.199,474.532 L 622.062,473.846 L 625.554,473.355 L 627.210,471.705 L 627.907,470.432 L 629.262,471.374 L 629.190,473.406 L 628.530,474.197 L 627.983,474.314 L 628.037,474.640 L 629.890,475.009 L 633.116,474.749 L 634.609,475.900 L 635.837,475.949 L 636.454,476.364 L 636.628,477.605 L 638.253,477.932 L 638.528,477.724 L 641.599,477.779 L 642.998,478.023 L 643.994,481.320 L 642.976,483.980 L 644.279,486.470 L 644.028,487.485 L 645.241,488.264 L 649.213,486.959 L 650.785,487.155 L 654.311,486.671 L 656.145,487.081 L 660.835,487.292 L 666.601,488.027 L 670.662,487.766 L 672.300,488.109 L 674.655,485.995 L 675.816,487.379 L 677.856,486.355 L 681.140,482.766 L 684.214,483.358 L 685.710,481.437 L 685.357,481.166 L 686.551,478.481 L 685.950,478.159 L 686.891,477.300 L 687.253,477.462 L 687.797,477.009 L 691.051,478.079 L 691.198,477.469 L 692.002,477.147 L 693.681,474.210 L 694.490,473.694 L 695.540,472.058 L 696.061,471.914 L 696.480,470.849 L 699.187,468.455 L 700.085,466.405 L 701.570,466.103 L 706.578,463.757 L 707.687,462.429 L 708.963,462.061 L 711.064,460.502 L 711.379,459.723 L 713.899,457.433 L 715.261,455.401 L 716.210,454.953 L 716.996,455.275 L 719.122,452.739 L 719.265,451.931 L 721.607,450.096 L 721.773,449.450 L 721.346,448.696 L 719.233,447.411 L 719.762,446.545 L 719.028,446.061 L 718.889,444.882 L 723.997,441.523 L 727.324,435.534 L 732.695,430.994 L 733.909,431.684 L 735.982,429.766 L 734.946,429.221 L 736.658,427.964 L 726.872,421.366 L 729.283,419.763 L 730.272,418.510 L 733.043,416.878 L 736.029,415.601 L 737.619,414.263 L 738.494,414.240 L 741.384,413.037 L 741.497,412.115 L 745.057,410.389 L 745.964,409.251 L 745.734,409.059 L 746.698,408.686 L 747.022,408.958 L 747.409,408.827 L 748.566,407.678 L 749.536,407.415 L 749.870,406.822 L 751.681,406.164 L 752.780,404.836 L 760.090,400.227 L 760.767,399.615 L 760.487,398.884 L 762.585,397.836 L 763.212,397.163 L 766.405,396.399 L 772.348,393.816 L 775.763,393.043 L 778.074,392.039 L 778.417,391.330 L 779.774,390.296 L 780.621,390.576 L 782.218,390.077 L 782.134,389.004 L 781.398,389.000 L 782.080,388.685 L 785.020,388.537 L 786.524,386.931 L 785.756,386.015 L 787.197,384.918 L 788.401,384.405 L 788.930,384.588 L 790.615,384.274 L 794.638,383.154 L 796.556,381.892 L 796.245,381.814 L 796.359,381.060 L 799.286,379.463 L 799.161,378.528 L 800.590,376.378 L 795.584,373.685 L 794.790,371.382 L 796.865,370.649 L 796.585,368.920 L 797.358,367.070 L 800.933,363.131 L 801.905,354.857 L 800.486,352.647 L 795.817,348.229 L 795.140,346.737 L 798.067,345.595 L 799.556,344.606 L 804.686,339.725 L 808.536,337.148 L 810.419,338.895 L 813.404,337.776 L 817.302,337.249 L 824.905,335.352 L 829.128,333.363 L 830.577,333.207 L 832.803,333.594 L 834.395,333.396 L 837.701,332.019 L 839.138,331.031 L 841.949,326.893 L 843.129,325.834 L 846.948,324.147 L 848.777,323.692 L 851.041,323.723 L 854.212,321.448 L 855.836,320.783 L 854.139,320.159 L 853.640,319.325 L 851.856,319.054 L 849.975,317.501 L 850.377,317.021 L 852.018,316.772 L 852.476,316.066 L 853.096,315.905 L 852.878,315.442 L 853.371,314.793 L 852.352,314.224 L 853.450,314.009 L 854.969,312.895 L 856.586,312.649 L 857.256,312.148 L 858.552,312.672 L 860.582,312.362 L 861.217,311.990 L 861.675,310.903 L 860.559,309.548 L 860.364,308.401 L 861.699,308.323 L 862.805,307.348 L 865.485,306.121 L 867.870,305.914 L 868.591,305.404 L 874.242,303.933 L 874.673,302.946 L 876.291,302.830 L 878.968,300.590 L 881.291,299.852 L 881.518,299.021 L 883.534,298.482 L 885.335,296.586 L 882.379,296.291 L 881.661,295.308 L 886.522,293.400 L 887.215,292.358 L 888.613,292.366 L 888.652,291.162 L 890.059,289.137 L 895.659,286.141 L 896.259,285.399 L 899.195,284.571 L 900.065,283.180 L 902.800,282.572 L 903.286,281.221 L 905.942,280.121 L 904.180,278.508 L 904.022,277.784 L 905.080,276.216 L 904.766,275.258 L 905.167,274.443 L 902.838,270.886 L 904.929,269.765 L 907.330,269.888 L 908.653,269.617 L 909.760,269.906 L 910.280,269.526 L 910.373,268.840 L 914.543,268.959 L 916.122,267.731 L 916.938,267.852 L 917.317,267.570 L 917.664,266.356 L 918.676,265.245 L 918.149,263.852 L 917.305,263.763 L 917.452,262.870 L 920.874,262.523 L 922.506,262.068 L 925.005,262.453 L 927.403,260.777 L 926.566,260.629 L 926.550,260.293 L 928.005,259.647 L 928.553,258.722 L 927.080,258.027 L 925.904,257.958 L 926.526,257.145 L 925.915,255.051 L 924.472,254.450 L 922.716,254.645 L 922.555,253.306 L 919.601,253.164 L 919.187,252.679 L 918.633,252.617 L 918.113,252.932 L 917.913,252.624 L 916.904,253.634 L 914.568,254.589 L 912.005,254.577 L 909.951,255.324 L 909.099,255.138 L 908.109,255.515 L 907.741,255.291 L 905.247,255.556 L 905.185,255.359 L 903.212,255.847 L 901.163,255.683 L 899.249,256.376 L 894.735,255.446 L 894.072,255.838 L 893.227,255.636 L 893.034,256.088 L 891.386,256.776 L 889.761,256.927 L 889.776,255.825 L 890.954,253.780 L 890.673,252.629 L 893.262,251.138 L 893.109,250.755 L 895.233,250.582 L 897.010,249.404 L 896.121,247.707 L 897.430,247.482 L 897.913,246.205 L 896.955,245.910 L 898.323,245.475 L 898.519,245.804 L 902.291,245.591 L 902.951,243.552 L 902.687,239.819 L 905.791,239.408 L 906.345,239.716 L 907.647,239.296 L 908.192,238.902 L 909.039,236.898 L 911.305,236.448 L 913.257,236.714 L 914.462,236.361 L 915.797,235.404 L 915.639,235.020 L 914.814,234.924 L 914.888,234.200 L 915.607,233.760 L 915.438,232.642 L 913.578,232.811 L 913.850,231.809 L 912.855,231.392 L 912.462,230.707 L 912.930,228.469 L 912.459,227.358 L 911.726,226.847 L 912.374,227.104 L 916.127,225.535 L 920.618,224.783 L 921.192,225.413 L 923.100,225.861 L 923.162,226.219 L 924.770,226.022 L 926.443,226.728 L 928.209,226.670 L 930.604,227.308 L 931.194,228.195 L 935.299,226.659 L 936.529,226.896 L 939.175,226.729 L 942.455,224.871 L 942.932,225.068 L 943.776,224.643 L 944.441,223.712 L 944.878,221.594 L 945.709,220.483 L 944.647,219.820 L 944.173,217.820 L 943.541,217.237 L 941.382,216.428 L 940.831,215.679 L 938.835,215.356 L 937.732,214.759 L 938.268,214.646 L 938.274,212.158 L 937.606,210.956 L 936.250,210.197 L 935.280,210.121 L 934.349,208.073 L 933.365,207.447 L 933.877,206.884 L 933.582,206.007 L 932.461,205.680 L 932.454,205.308 L 931.201,204.710 L 930.200,205.283 L 930.255,204.350 L 929.489,204.570 L 929.328,204.199 L 928.951,204.252 L 927.140,204.881 L 926.332,204.401 L 925.415,204.785 L 925.448,204.330 L 923.763,204.263 L 922.617,205.748 L 920.702,206.049 L 920.593,206.793 L 919.523,206.918 L 918.679,206.231 L 919.829,205.941 L 919.476,205.367 L 917.885,204.425 L 917.264,204.604 L 916.533,204.060 L 917.538,203.480 L 916.934,203.147 L 917.213,202.494 L 916.385,200.436 L 916.962,200.400 L 917.057,200.096 L 916.591,198.379 L 917.648,198.055 L 918.370,199.031 L 918.892,198.798 L 917.968,197.843 L 918.334,197.669 L 917.770,197.435 L 918.393,197.580 L 918.196,197.133 L 918.721,196.897 L 917.948,196.176 L 919.420,195.763 L 918.831,194.875 L 919.320,193.732 L 921.749,194.072 L 923.662,193.805 L 922.539,191.529 L 922.788,191.043 L 923.977,190.699 L 925.148,189.348 L 923.421,188.848 L 923.289,188.329 L 923.577,187.864 L 924.430,187.664 L 924.377,187.320 L 925.593,187.109 L 925.403,186.538 L 923.485,186.122 L 923.061,185.245 L 923.345,184.562 L 922.299,184.304 L 922.500,183.393 L 920.944,183.115 L 921.586,181.467 L 922.649,179.876 L 923.341,179.510 L 922.934,178.794 L 923.340,178.738 L 919.974,176.281 L 918.690,174.038 L 918.066,174.538 L 912.682,173.095 L 911.535,172.466 L 909.439,172.391 L 909.109,171.838 L 905.682,170.360 L 905.189,169.671 L 903.357,169.217 L 902.619,168.136 L 899.540,168.581 L 898.850,167.891 L 896.555,166.780 L 893.369,166.980 L 890.361,165.938 L 888.216,165.994 L 886.948,165.553 L 886.170,165.120 L 885.818,164.332 L 886.134,163.868 L 885.683,163.330 L 884.510,163.004 L 883.425,161.956 L 883.173,161.228 L 883.673,160.689 L 883.017,159.851 L 882.005,159.551 L 881.651,158.110 L 882.677,157.289 L 882.451,157.049 L 881.309,156.906 L 880.158,158.192 L 877.963,159.318 L 876.618,158.187 L 875.309,157.901 L 875.336,157.578 L 873.456,156.821 L 872.931,156.234 L 871.432,155.834 L 870.556,154.780 L 871.382,153.552 L 870.922,152.790 L 871.215,152.677 L 870.422,152.494 L 869.278,151.268 L 868.279,151.344 L 865.432,150.806 L 865.309,149.965 L 864.564,149.716 L 863.068,149.698 L 860.478,149.024 L 859.660,149.211 L 859.653,148.372 L 858.283,148.107 L 857.990,147.561 L 854.097,146.168 L 852.553,144.882 L 851.109,144.581 L 848.118,142.933 L 846.754,142.993 L 844.768,142.264 L 843.865,141.486 L 840.420,140.262 L 838.911,138.766 L 839.478,137.022 L 837.786,136.540 L 836.753,135.633 L 837.115,135.017 L 836.552,134.615 L 834.273,134.178 L 831.958,131.556 L 828.407,131.920 L 822.836,134.296 L 820.423,137.662 L 820.497,138.457 L 818.715,139.156 L 818.724,140.292 L 813.534,140.964 L 810.082,141.747 L 804.796,144.029 L 803.909,142.853 L 804.816,142.892 L 804.587,142.276 L 803.568,142.316 L 802.096,141.558 L 800.082,139.541 L 801.018,138.096 L 801.651,137.984 L 801.140,137.469 L 801.490,137.284 L 800.677,137.015 L 800.454,136.597 L 799.200,136.658 L 798.375,136.142 L 798.409,135.380 L 795.906,133.213 L 795.588,131.851 L 789.981,131.774 L 789.349,129.693 L 787.992,129.233 L 786.983,129.257 L 786.392,128.817 L 786.309,128.124 L 785.071,128.535 L 783.831,128.521 L 780.798,127.689 L 780.067,127.950 L 779.844,128.639 L 778.697,128.418 L 776.479,129.445 L 774.299,129.114 L 773.167,129.612 L 772.110,130.687 L 771.143,130.373 L 768.570,130.323 L 766.171,129.183 L 764.713,129.114 L 762.225,129.546 L 756.597,132.666 L 755.002,132.546 L 754.040,133.086 L 753.888,133.988 L 749.912,133.373 L 748.878,134.501 L 746.956,134.168 L 747.686,132.546 L 747.530,131.028 L 745.229,130.896 L 745.282,129.972 L 743.910,129.517 L 743.009,129.602 L 742.039,128.883 L 740.306,129.875 L 739.058,129.853 L 737.806,128.916 L 737.535,127.226 L 736.800,126.580 L 736.391,127.277 L 735.198,127.049 L 735.309,126.064 L 738.327,125.455 L 738.485,124.689 L 736.807,123.111 L 737.516,121.993 L 737.311,121.390 L 735.727,120.915 L 736.558,118.325 L 734.615,116.470 L 732.835,116.117 L 732.040,115.519 L 731.272,115.522 L 731.748,115.233 L 731.286,114.645 L 729.227,115.497 L 728.329,115.532 L 726.643,117.085 L 724.174,116.571 L 720.604,117.016 L 718.974,116.382 L 712.191,118.821 L 710.275,120.018 L 709.956,120.904 L 710.280,121.746 L 708.753,121.490 L 708.694,122.493 L 707.492,122.412 L 707.342,123.132 L 708.216,123.678 L 708.992,123.708 L 707.128,125.586 L 707.510,126.164 L 706.039,125.723 L 704.788,127.381 L 705.443,127.955 L 704.913,128.444 L 703.947,129.062 L 702.574,128.590 L 701.215,128.948 L 700.784,128.610 L 700.073,129.036 L 699.643,128.669 L 697.224,128.826 L 696.904,130.881 L 695.776,131.239 L 694.062,132.836 L 692.737,133.435 L 689.870,133.264 L 688.357,132.870 L 690.185,130.790 L 690.364,129.989 L 692.121,129.257 L 692.406,128.545 L 693.683,128.018 L 694.973,126.963 L 695.020,126.533 L 694.743,126.010 L 692.777,125.491 L 692.349,124.057 L 690.642,124.109 L 689.447,124.730 L 688.971,124.659 L 686.829,125.861 L 685.963,126.912 L 686.497,127.625 L 686.620,128.954 L 686.226,129.033 L 686.097,130.894 L 682.186,131.528 L 680.776,133.076 L 681.784,134.390 L 678.800,135.668 L 678.765,136.401 L 680.072,136.584 L 679.394,137.602 L 680.361,138.698 L 679.470,140.347 L 678.540,140.983 L 678.205,140.570 L 675.917,140.797 L 671.996,139.665 L 671.372,139.983 L 671.297,140.753 L 670.170,142.130 L 669.034,142.802 L 669.278,144.039 L 667.593,145.076 L 665.467,147.490 L 666.309,148.321 L 665.797,148.435 L 666.357,149.635 L 667.064,149.904 L 665.754,149.883 L 666.311,150.330 L 664.874,150.850 L 664.907,151.112 L 666.652,150.646 L 666.565,150.347 L 667.180,150.010 L 667.347,150.807 L 666.788,150.988 L 667.115,151.130 L 666.102,151.051 L 664.368,151.799 L 660.279,152.232 L 660.105,151.703 L 660.856,150.330 L 657.846,150.422 L 655.744,149.835 L 654.165,150.322 L 652.872,149.560 L 651.224,151.162 L 650.383,151.023 L 649.271,151.782 L 649.547,152.782 L 649.140,153.160 L 649.383,153.568 L 649.847,153.391 L 650.107,153.980 L 649.512,154.425 L 649.920,155.472 L 649.476,155.850 L 650.633,155.720 L 650.749,155.994 L 649.481,156.468 L 649.672,157.140 L 649.213,157.227 L 648.805,158.016 L 646.471,158.415 L 645.136,157.826 L 644.788,157.965 L 644.446,157.534 L 644.285,157.749 L 641.011,157.497 L 639.952,157.072 L 638.233,157.591 L 637.128,159.302 L 636.018,160.213 L 635.922,162.606 L 635.372,163.596 L 634.902,166.552 L 636.119,167.316 L 635.670,168.470 L 637.560,168.715 L 639.604,168.404 L 641.501,169.007 L 641.820,171.238 L 641.173,172.337 L 641.936,173.721 L 641.263,174.326 L 638.113,175.562 L 637.497,176.851 L 639.040,177.972 L 636.666,178.573 L 637.432,179.217 L 636.404,179.646 L 636.912,180.279 L 636.541,180.784 L 637.333,180.997 L 638.536,182.300 L 638.818,184.949 L 638.026,186.557 L 637.299,186.328 L 636.906,186.907 L 635.879,186.151 L 634.726,187.104 L 634.137,187.140 L 632.996,186.386 L 632.358,186.653 L 631.552,186.504 L 631.309,187.295 L 628.948,188.530 L 628.147,188.242 L 627.113,188.413 L 625.459,188.132 L 622.173,188.942 L 618.980,188.562 L 618.046,189.247 L 617.100,188.051 L 617.036,186.780 L 615.799,185.864 L 616.082,185.385 L 615.457,185.231 L 615.588,183.315 L 614.902,183.031 L 614.843,182.668 L 611.853,181.757 L 611.174,182.771 L 608.023,184.976 L 603.858,189.041 L 599.719,188.797 L 599.234,188.310 L 598.184,188.188 L 593.882,186.574 L 592.139,187.394 L 591.210,188.593 L 585.651,189.554 L 583.639,189.413 L 580.552,188.038 L 577.689,188.954 L 576.917,192.496 L 576.100,193.260 L 575.947,194.181 L 577.260,194.178 L 577.562,194.576 L 573.312,197.079 L 570.484,200.590 L 570.847,200.712 L 570.293,201.393 L 570.803,203.556 L 569.320,203.455 L 569.043,204.393 L 567.721,205.837 L 567.186,205.823 L 566.790,206.347 L 564.505,205.321 L 564.054,205.626 L 563.790,205.306 L 564.794,203.501 L 563.623,203.013 L 563.506,202.346 L 559.917,201.877 L 558.184,203.207 L 557.108,203.284 L 556.998,202.986 L 556.490,202.968 L 555.549,203.187 L 554.779,203.587 L 555.046,203.973 L 553.886,204.956 L 551.091,206.066 L 550.434,206.595 L 550.474,208.410 L 549.468,208.629 L 548.492,208.433 L 545.884,209.474 L 545.226,209.409 L 544.251,206.877 L 542.047,205.247 L 546.413,199.809 L 544.681,199.813 L 542.284,201.088 L 541.798,200.952 L 541.889,200.049 L 540.125,199.042 L 540.380,198.247 L 538.479,197.676 L 536.581,195.731 L 533.582,195.104 L 531.456,193.975 L 528.547,193.570 L 528.292,190.503 L 528.758,190.379 L 529.404,187.348 L 525.833,187.464 L 525.715,188.508 L 524.716,190.103 L 523.254,191.041 L 522.003,192.629 L 520.431,193.149 L 520.957,193.729 L 520.218,193.559 L 518.858,193.946 L 518.566,194.120 L 518.963,194.358 L 518.160,194.596 L 517.435,194.449 L 517.071,193.691 L 516.479,194.031 L 516.302,193.511 L 514.665,193.979 L 513.366,192.928 L 514.186,193.166 L 513.504,192.721 L 513.665,192.058 L 513.107,191.882 L 511.806,192.252 L 511.574,191.846 L 511.662,192.315 L 509.846,192.510 L 510.021,192.114 L 509.222,192.286 L 509.322,191.700 L 508.174,191.813 L 508.490,191.439 L 507.910,190.920 L 508.394,190.026 L 507.764,190.745 L 506.923,190.907 L 506.251,189.976 L 506.205,190.849 L 505.620,189.885 L 505.202,190.342 L 502.916,190.019 L 502.379,189.117 L 500.882,188.286 L 502.252,187.585 L 502.739,185.784 L 503.752,185.322 L 504.481,184.411 L 503.405,183.864 L 502.886,184.587 L 498.955,184.972 L 498.307,184.652 L 497.696,184.743 L 497.768,183.858 L 498.788,182.966 L 498.370,182.575 L 498.728,181.649 L 497.775,181.217 L 496.851,181.339 L 495.403,182.335 L 495.130,181.852 L 494.555,182.058 L 493.883,183.053 L 493.237,183.267 L 492.609,183.053 L 492.097,184.092 L 492.361,184.687 L 491.608,184.765 L 490.563,185.627 L 487.903,185.748 L 487.271,186.239 L 486.519,186.031 L 485.050,186.322 L 484.939,186.005 L 485.756,185.194 L 483.041,183.929 L 481.794,182.719 L 481.812,181.854 L 484.325,180.166 L 483.864,178.621 L 485.616,176.916 L 485.206,175.782 L 484.131,175.805 L 482.446,176.444 L 484.425,174.725 L 483.113,172.398 L 482.910,170.211 L 481.179,170.048 L 481.011,169.453 L 480.159,169.224 L 479.355,170.055 L 475.161,170.829 L 476.070,169.581 L 473.995,169.156 L 474.836,169.077 L 474.809,167.894 L 475.452,167.766 L 475.472,167.356 L 474.217,166.985 L 475.078,166.432 L 478.266,165.750 L 482.333,164.272 L 484.051,163.150 L 487.008,162.029 L 487.870,162.177 L 487.867,161.697 L 489.168,161.315 L 489.804,160.454 L 489.093,160.236 L 489.888,159.339 L 490.295,159.396 L 489.875,158.462 L 489.365,158.479 L 489.224,158.180 L 490.354,157.949 L 488.629,157.357 L 488.228,156.902 L 488.329,155.996 L 484.892,155.365 L 484.956,154.357 L 484.432,153.792 L 483.281,153.871 L 483.152,152.476 L 483.763,151.861 L 483.845,151.071 L 481.874,147.986 L 478.930,147.930 L 478.022,147.376 L 476.228,146.974 L 476.775,146.233 L 476.162,145.428 L 476.235,143.371 L 473.680,141.408 L 473.378,139.762 L 471.654,137.913 L 471.028,136.488 L 469.212,136.067 L 465.323,136.646 L 463.892,137.188 L 464.172,137.816 L 461.772,140.567 L 462.277,140.968 L 462.029,141.726 L 461.256,141.871 L 456.284,139.410 L 455.459,138.313 L 455.838,137.161 L 457.634,136.124 L 458.182,136.458 L 459.191,136.398 L 459.215,134.802 L 460.592,134.403 L 463.228,132.363 L 461.458,129.913 L 458.798,127.969 L 455.048,128.051 L 453.771,127.747 L 453.424,127.282 L 452.992,127.416 L 453.340,128.157 L 451.621,128.371 L 450.708,127.795 L 447.820,127.721 L 447.373,127.097 L 446.368,127.343 L 446.171,125.813 L 446.571,125.826 L 448.088,123.049 L 448.706,122.575 L 449.213,122.979 L 450.526,122.758 L 451.468,122.162 L 447.794,120.492 L 447.787,118.462 L 447.035,118.317 L 446.998,118.040 L 446.403,118.328 L 444.724,118.219 L 443.517,118.706 L 436.966,118.780 L 432.284,117.837 L 432.852,117.608 L 431.465,117.345 L 428.152,114.730 L 425.426,115.296 L 421.669,116.686 L 420.703,115.310 L 418.690,116.162 L 418.403,115.154 L 416.932,114.315 L 414.176,114.602 L 411.908,114.366 L 411.504,114.592 L 410.357,113.128 L 408.524,113.750 L 406.667,113.294 L 403.696,113.390 L 403.158,113.720 L 402.258,113.645 L 401.625,114.243 L 400.763,114.472 L 399.148,116.462 L 397.448,116.874 L 396.148,118.820 L 393.232,118.324 L 393.255,119.550 L 394.346,121.447 L 395.255,122.215 L 397.316,122.727 L 397.707,123.540 L 398.384,125.747 L 397.151,126.611 L 392.430,126.120 L 388.864,126.899 L 384.300,126.353 L 382.044,127.543 L 380.005,127.729 L 378.558,128.367 L 376.290,128.265 L 374.463,128.999 L 371.941,128.157 L 370.019,126.796 L 368.122,126.395 L 365.164,127.036 L 363.891,127.759 L 361.790,127.774 L 361.038,128.300 L 360.579,127.952 L 358.922,128.118 L 357.810,127.836 L 358.035,128.208 L 356.319,128.828 L 352.425,129.112 L 351.840,128.647 L 347.539,128.327 L 345.985,127.663 L 345.198,127.985 L 344.944,129.077 L 343.839,130.191 L 342.885,130.408 L 343.920,132.919 L 341.765,135.462 L 340.811,135.206 L 338.203,135.864 L 336.192,135.870 L 334.157,135.267 L 334.087,134.854 L 331.651,134.584 L 329.937,132.291 L 328.891,131.930 L 328.363,131.167 L 326.795,130.417 L 328.166,127.849 L 327.796,125.874 L 325.449,125.583 L 324.293,125.774 L 323.092,125.631 L 322.944,125.370 L 320.600,127.173 L 321.612,127.343 L 322.789,128.234 L 324.736,127.563 L 324.814,127.812 L 322.772,128.381 L 323.638,129.698 L 323.221,130.379 L 323.764,131.073 L 322.675,132.118 L 321.158,132.234 L 320.527,132.594 L 319.031,132.414 L 318.749,129.103 L 316.358,128.362 L 315.603,128.800 L 314.858,128.233 L 312.752,129.125 L 311.308,130.744 L 310.626,130.781 L 309.425,131.887 L 309.781,133.084 L 307.907,132.909 L 306.404,133.994 L 305.253,134.072 L 304.504,134.832 L 302.967,135.438 L 302.609,135.062 L 302.898,134.784 L 302.412,134.629 L 300.504,134.644 L 299.653,135.311 L 299.239,134.972 L 299.606,133.738 L 298.799,133.278 L 299.424,131.852 L 298.733,131.410 L 295.782,131.841 L 292.604,131.245 L 291.664,132.086 L 292.203,134.229 L 289.223,135.624 L 288.148,134.599 L 286.414,133.915 L 285.164,134.945 L 283.175,134.718 L 282.321,134.008 L 282.614,133.141 L 281.808,132.925 L 280.790,131.922 L 278.385,133.137 L 277.873,134.079 L 276.717,134.447 L 274.476,134.336 L 271.611,133.258 L 268.739,134.422 L 268.182,133.580 L 265.808,134.168 L 264.107,133.570 L 262.563,134.925 L 260.999,134.534 L 259.925,135.012 L 259.556,135.663 L 258.944,135.524 L 257.279,134.766 L 259.271,132.802 L 258.355,132.344 L 259.102,131.855 L 259.388,130.477 L 259.066,130.191 L 259.721,129.568 L 259.897,127.738 L 261.313,126.217 L 261.657,124.908 L 260.968,123.755 L 259.986,122.894 L 258.603,120.207 L 258.011,120.180 L 257.101,119.381 L 256.755,119.704 L 254.631,119.687 L 255.427,121.540 L 254.946,121.547 L 253.797,122.501 L 255.026,122.886 L 254.287,124.183 L 252.680,124.151 L 252.783,124.510 L 250.430,124.722 L 251.313,123.048 L 247.956,123.205 L 247.297,120.893 L 246.149,120.636 L 245.636,119.917 L 245.982,119.402 L 245.656,119.037 L 248.955,119.030 L 249.608,118.450 L 250.811,118.275 L 252.254,119.188 L 252.568,117.572 L 252.299,116.180 L 251.786,115.640 L 250.952,115.680 L 249.781,115.122 L 248.632,114.084 L 247.302,113.489 L 246.371,112.091 L 245.267,111.979 L 245.075,112.198 L 244.674,111.747 L 244.178,112.055 L 242.028,110.407 L 242.476,110.129 L 243.035,110.354 L 243.798,109.729 L 242.424,108.484 L 243.609,107.493 L 242.420,106.615 L 242.917,106.270 L 241.182,105.136 L 239.278,102.721 L 238.378,102.420 L 238.837,101.930 L 236.947,101.433 L 237.360,100.982 L 236.843,100.197 L 237.587,99.489 L 237.371,99.170 L 238.554,98.463 L 237.709,97.147 L 235.872,95.769 L 235.616,94.820 L 233.096,94.192 L 232.409,93.381 L 232.530,92.520 L 230.623,91.429 L 229.332,91.832 L 228.227,93.210 L 226.922,93.051 L 224.672,91.790 L 224.465,90.683 L 225.190,89.498 L 227.848,87.915 L 227.242,85.647 L 226.226,84.535 L 224.707,83.802 L 220.128,82.557 L 219.213,82.757 L 219.121,83.495 L 220.864,85.881 L 220.418,87.143 L 218.854,87.761 L 217.246,89.184 L 216.229,88.958 L 214.758,86.877 L 214.818,88.402 L 214.435,88.922 L 209.370,90.248 L 207.843,86.053 L 205.715,84.116 L 203.775,80.789 L 202.020,79.741 L 199.571,79.071 L 193.694,81.903 L 190.482,80.592 L 189.702,79.753 L 193.348,77.798 L 193.601,77.344 L 194.959,76.946 L 197.303,74.949 L 198.309,73.568 L 197.935,73.093 L 199.595,71.948 L 198.997,71.329 L 198.563,71.413 L 198.690,71.122 L 197.898,70.494 L 197.141,70.675 L 196.648,70.441 L 195.978,71.022 L 194.887,69.637 L 198.234,66.610 L 200.136,65.832 L 200.038,64.821 L 198.505,62.246 L 196.910,61.433 L 195.387,61.300 L 195.077,60.544 L 192.380,60.447 L 191.617,60.183 L 191.516,59.656 L 190.729,59.734 L 190.279,59.462 L 190.333,58.958 L 192.035,58.242 L 192.426,56.000 L 191.984,55.752 L 191.272,55.980 L 190.763,54.924 L 189.906,55.126 L 188.933,54.940 L 186.973,53.839 L 186.738,53.641 L 187.570,53.345 L 187.630,52.100 L 187.230,51.655 L 185.085,52.151 L 183.097,52.005 L 183.336,48.923 L 181.184,48.075 L 178.123,45.737 L 178.379,45.244 L 176.639,43.405 L 174.824,42.285 L 173.293,41.457 L 168.474,41.523 L 167.567,40.362 L 167.089,40.509 L 166.824,40.211 L 166.440,40.368 L 166.841,40.595 L 165.435,40.282 L 163.751,40.438 L 162.636,40.840 L 162.876,41.703 L 160.491,42.432 L 158.412,43.891 L 157.214,40.953 L 155.587,40.237 L 155.342,39.666 L 155.731,37.090 L 153.960,37.182 L 153.864,36.899 L 153.036,37.206 L 152.675,36.688 L 151.669,36.599 L 151.492,35.973 L 149.079,35.000 L 148.548,35.302 L 147.428,35.305 L 146.999,36.417 L 145.666,36.229 L 144.738,38.747 L 144.755,40.078 L 145.350,40.114 L 145.231,40.886 L 143.430,41.157 L 143.434,39.566 L 142.259,39.515 L 141.665,40.661 L 139.144,40.703 L 138.935,41.328 L 137.951,40.677 L 137.736,40.895 L 136.193,40.607 L 135.360,40.087 L 134.039,39.833 L 133.397,39.888 L 133.762,40.736 L 132.525,40.742 L 131.323,40.176 L 131.338,39.480 L 129.231,40.136 L 129.573,39.240 L 127.751,38.904 L 127.711,39.791 L 125.734,39.848 L 125.558,39.497 L 124.652,39.707 L 124.470,40.606 L 123.174,40.723 L 123.328,41.714 L 122.249,41.820 L 121.775,42.406 L 120.776,42.313 L 120.425,41.895 L 117.026,41.517 L 117.233,41.325 L 115.503,41.528 L 115.178,41.268 L 110.285,42.714 L 109.687,41.869 L 108.224,41.163 L 106.979,41.772 L 106.246,40.425 L 104.938,39.787 L 104.211,39.795 L 103.225,41.178 L 101.113,40.900 L 100.771,41.320 L 100.157,41.063 L 99.708,41.464 L 99.232,41.357 L 98.919,42.307 L 97.731,41.594 L 97.485,40.823 L 95.966,41.508 L 94.957,41.458 L 95.048,41.949 L 93.712,41.659 L 91.995,42.637 L 90.737,44.874 L 89.760,45.740 L 88.893,45.152 L 89.258,44.309 L 88.765,43.980 L 86.408,44.073 L 84.647,43.216 L 82.631,43.907 L 81.212,44.046 L 80.354,43.956 L 79.367,43.379 L 78.515,43.486 L 77.636,43.917 L 75.714,47.159 L 76.245,47.332 L 75.630,47.738 L 75.630,48.794 L 77.010,49.365 L 77.050,49.703 L 75.750,50.262 L 75.147,51.244 L 73.808,51.621 L 74.005,52.015 L 73.423,52.174 L 73.554,52.621 L 70.965,54.866 L 72.015,55.542 L 73.693,55.597 L 73.632,56.041 L 71.802,57.266 L 74.136,59.211 L 73.101,61.280 L 77.495,62.397 L 77.617,63.221 L 76.905,64.163 L 77.895,66.856 L 76.709,66.922 L 75.450,66.553 L 74.519,67.035 L 73.369,68.485 L 73.691,68.569 L 71.852,69.945 L 72.246,70.155 L 71.906,70.641 L 72.754,70.934 L 70.296,73.022 L 69.359,74.247 L 69.676,74.767 L 68.807,75.896 L 67.182,75.833 L 66.236,76.413 L 65.545,75.429 L 63.627,76.193 L 62.192,76.195 L 61.768,77.086 L 62.321,77.842 L 61.710,78.612 L 59.284,79.162 L 58.269,78.982 L 55.203,80.992 L 54.505,80.955 L 53.886,82.493 L 54.434,85.127 Z"/>
<path class="constraint hard-constraint" id="frontier-saone-france-empire" d="M 457.610,480.606 L 460.956,476.796 L 463.439,473.212 L 465.425,465.453 L 467.525,462.375 L 469.956,459.592 L 471.736,456.747 L 474.715,442.833 L 478.874,438.762 L 479.370,433.978 L 478.802,428.608 L 477.664,424.796"/>
</svg>
