<?xml version="1.0" encoding="UTF-8"?>
<svg xmlns="http://www.w3.org/2000/svg" width="1450" height="740" viewBox="0 0 1450 740">
<title>official-1444-reconstruction-v2 — france</title><desc>Deterministic M25 review: provinces, ownership, hierarchy, uncertainty, historical constraints with georeferencing control points and residuals, focus insets, and forbidden modern outlines as negative controls.</desc>
<style>text{font-family:sans-serif;font-size:10px;fill:#333}.sheet-title{font-size:16px;fill:#111}.panel-title{font-size:11px;font-weight:bold;fill:#111}.province{stroke:#222;stroke-width:.7;vector-effect:non-scaling-stroke}.constraint{fill:none;stroke-width:3;vector-effect:non-scaling-stroke}.hard-constraint{stroke:#111}.soft-evidence{stroke:#d28b00;stroke-dasharray:7 5}.forbidden-modern{stroke:#d00000;stroke-dasharray:2 4}.legend-province{fill:#8faf6f;fill-opacity:.75;stroke:#222;stroke-width:.7}.inset-frame{fill:#fdfcf7;stroke:#888;stroke-width:1}.focus-box{fill:none;stroke:#0050c8;stroke-width:1.2;stroke-dasharray:5 3}.focus-label{fill:#0050c8;font-weight:bold;font-size:11px}.control-point circle{fill:#0050c8;stroke:#fff;stroke-width:1}.control-point text{fill:#0050c8}.scale-bar line{stroke:#111;stroke-width:1.5}.scale-bar text{fill:#111}</style>
<defs><clipPath id="clip-main"><rect x="0" y="0" width="1000" height="740"/></clipPath><clipPath id="clip-inset-A"><rect x="1020.0" y="204.0" width="420.0" height="210.0"/></clipPath><clipPath id="clip-inset-B"><rect x="1020.0" y="462.0" width="420.0" height="210.0"/></clipPath></defs>
<rect width="1450" height="740" fill="#ffffff"/>
<rect width="1000" height="740" fill="#f7f3e8"/>
<text x="35" y="25" class="sheet-title">official-1444-reconstruction-v2 — france</text>
<g clip-path="url(#clip-main)">
<path class="province" id="prv_1f636f0396d03bf5e122" data-owner="county-of-provence" data-area="area-1444-county-of-provence" data-uncertainty="0.250" fill="#43fd75" fill-opacity="0.750" d="M 599.320,624.971 L 599.320,622.840 L 600.185,622.372 L 605.384,620.459 L 606.708,619.802 L 605.710,623.152 L 605.710,623.152 L 605.710,623.152 L 599.320,624.971 Z"/>
<path class="province" id="prv_236f173aa0da3ff3f50e" data-owner="county-of-provence" data-area="area-1444-county-of-provence" data-uncertainty="0.250" fill="#43fd75" fill-opacity="0.750" d="M 616.764,626.034 L 626.425,620.315 L 637.492,623.219 L 638.875,631.841 L 644.425,633.309 L 629.210,637.554 L 617.467,630.358 L 616.764,626.034 Z"/>
<path class="province" id="prv_29bb286d3668cebb7098" data-owner="kingdom-of-france" data-area="area-1444-kingdom-of-france" data-uncertainty="0.250" fill="#74e9e0" fill-opacity="0.750" d="M 596.082,628.884 L 599.320,626.956 L 599.320,630.037 L 598.776,632.284 L 597.120,635.171 L 596.082,628.884 Z"/>
<path class="province" id="prv_2e4aeef24c149f799e73" data-owner="kingdom-of-france" data-area="area-1444-kingdom-of-france" data-uncertainty="0.250" fill="#74e9e0" fill-opacity="0.750" d="M 571.107,606.008 L 580.727,600.264 L 591.800,603.104 L 593.230,611.689 L 583.606,617.428 L 572.557,614.587 L 571.107,606.008 Z"/>
<path class="province" id="prv_3861cd67a056ea344dd1" data-owner="county-of-provence" data-area="area-1444-county-of-provence" data-uncertainty="0.250" fill="#43fd75" fill-opacity="0.750" d="M 600.338,654.735 L 609.941,649.001 L 620.962,651.906 L 620.979,652.010 L 608.924,659.166 L 608.845,658.632 L 608.221,657.138 L 607.193,655.417 L 605.808,653.951 L 604.083,653.198 L 604.083,653.813 L 607.047,657.247 L 607.484,658.292 L 607.484,660.020 L 601.817,663.385 L 601.751,663.367 L 600.338,654.735 Z"/>
<path class="province" id="prv_3afbc9f900a1b1fb77ce" data-owner="kingdom-of-france" data-area="area-1444-kingdom-of-france" data-uncertainty="0.150" fill="#74e9e0" fill-opacity="0.850" d="M 255.183,66.949 L 324.218,33.636 L 404.819,60.935 L 415.831,121.034 L 347.900,154.147 L 267.857,127.355 L 255.183,66.949 Z"/>
<path class="province" id="prv_433ad339646e29a54ed0" data-owner="county-of-provence" data-area="area-1444-county-of-provence" data-uncertainty="0.250" fill="#43fd75" fill-opacity="0.750" d="M 599.320,626.956 L 599.320,624.971 L 605.710,623.152 L 605.710,623.152 L 599.320,626.956 Z"/>
<path class="province" id="prv_4d05d067e4cfdd029f74" data-owner="kingdom-of-france" data-area="area-1444-kingdom-of-france" data-uncertainty="0.250" fill="#74e9e0" fill-opacity="0.750" d="M 515.324,649.198 L 521.829,626.260 L 551.931,617.518 L 575.447,631.768 L 568.767,654.733 L 553.615,659.118 L 548.129,657.697 L 548.018,657.462 L 545.443,655.907 L 539.685,655.482 L 539.606,655.489 L 515.324,649.198 Z"/>
<path class="province" id="prv_62bd7fdf1552fa86157c" data-owner="kingdom-of-france" data-area="area-1444-kingdom-of-france" data-uncertainty="0.250" fill="#74e9e0" fill-opacity="0.750" d="M 579.283,591.693 L 588.931,585.956 L 612.540,600.233 L 601.453,597.373 L 591.800,603.104 L 580.727,600.264 L 579.283,591.693 Z"/>
<path class="province" id="prv_6485f291d164d69a7fa4" data-owner="kingdom-of-france" data-area="area-1444-kingdom-of-france" data-uncertainty="0.250" fill="#74e9e0" fill-opacity="0.750" d="M 555.260,606.064 L 558.585,594.625 L 588.931,585.956 L 579.283,591.693 L 580.727,600.264 L 571.107,606.008 L 560.048,603.188 L 555.260,606.064 Z"/>
<path class="province" id="prv_7067ef9dbcdb8cac9db8" data-owner="kingdom-of-france" data-area="area-1444-kingdom-of-france" data-uncertainty="0.250" fill="#74e9e0" fill-opacity="0.750" d="M 583.606,617.428 L 593.230,611.689 L 604.294,614.551 L 609.127,611.686 L 606.708,619.802 L 605.384,620.459 L 600.185,622.372 L 599.320,622.840 L 599.320,624.971 L 590.583,627.459 L 585.042,626.022 L 583.606,617.428 Z"/>
<path class="province" id="prv_79c359cf76be0bff426d" data-owner="kingdom-of-france" data-area="area-1444-kingdom-of-france" data-uncertainty="0.250" fill="#74e9e0" fill-opacity="0.750" d="M 588.931,585.956 L 595.736,563.111 L 610.884,558.856 L 650.029,568.824 L 654.822,598.897 L 643.046,591.693 L 612.540,600.233 L 588.931,585.956 Z"/>
<path class="province" id="prv_7e338b50b0c9ee192d0c" data-owner="kingdom-of-france" data-area="area-1444-kingdom-of-france" data-uncertainty="0.250" fill="#74e9e0" fill-opacity="0.750" d="M 572.109,643.244 L 575.447,631.768 L 599.320,624.971 L 599.320,626.956 L 596.082,628.884 L 597.120,635.171 L 595.812,637.452 L 596.005,638.389 L 587.904,643.233 L 576.887,640.370 L 572.109,643.244 Z"/>
<path class="province" id="prv_9d8a10144cd54124d90b" data-owner="kingdom-of-france" data-area="area-1444-kingdom-of-france" data-uncertainty="0.250" fill="#74e9e0" fill-opacity="0.750" d="M 551.931,617.518 L 555.260,606.064 L 560.048,603.188 L 571.107,606.008 L 572.557,614.587 L 562.966,620.339 L 563.696,624.647 L 551.931,617.518 Z"/>
<path class="province" id="prv_a334845bd2767433c834" data-owner="county-of-provence" data-area="area-1444-county-of-provence" data-uncertainty="0.250" fill="#43fd75" fill-opacity="0.750" d="M 605.710,623.152 L 612.540,600.233 L 612.540,600.233 L 613.951,608.826 L 625.028,611.708 L 626.425,620.315 L 616.764,626.034 L 617.467,630.358 L 605.710,623.152 Z"/>
<path class="province" id="prv_ab9b0b983201db896fbe" data-owner="county-of-provence" data-area="area-1444-county-of-provence" data-uncertainty="0.250" fill="#43fd75" fill-opacity="0.750" d="M 595.812,637.452 L 597.120,635.171 L 597.503,637.493 L 596.005,638.389 L 595.812,637.452 Z"/>
<path class="province" id="prv_ae5faaed835983b59731" data-owner="county-of-provence" data-area="area-1444-county-of-provence" data-uncertainty="0.250" fill="#43fd75" fill-opacity="0.750" d="M 608.845,666.172 L 609.096,660.333 L 608.924,659.166 L 659.631,629.066 L 737.140,649.972 L 744.817,702.441 L 743.137,702.575 L 738.419,703.042 L 736.676,703.043 L 735.632,700.979 L 733.165,700.640 L 729.873,700.658 L 727.429,699.521 L 727.672,698.938 L 727.842,697.978 L 728.110,697.488 L 726.474,697.456 L 724.887,697.759 L 721.987,698.840 L 723.664,699.338 L 725.093,701.550 L 726.749,702.107 L 729.150,702.866 L 728.046,703.768 L 725.749,703.586 L 722.838,703.637 L 721.582,703.979 L 719.718,706.364 L 715.972,705.504 L 713.114,703.866 L 712.282,702.951 L 714.374,701.979 L 715.885,700.964 L 715.226,700.204 L 714.142,699.694 L 712.434,699.421 L 712.179,698.551 L 711.710,697.807 L 710.161,697.691 L 708.215,697.683 L 703.766,696.209 L 702.908,694.022 L 701.539,692.923 L 699.678,692.356 L 697.588,692.193 L 696.462,693.238 L 695.419,694.860 L 693.015,694.109 L 691.467,693.992 L 690.100,692.755 L 688.933,691.533 L 687.997,690.187 L 686.715,689.665 L 685.658,690.152 L 684.647,690.359 L 680.235,690.074 L 678.236,690.161 L 675.227,689.798 L 673.814,689.694 L 671.329,690.140 L 669.004,689.340 L 669.364,687.580 L 669.680,686.563 L 670.384,685.551 L 671.210,683.915 L 670.035,682.927 L 669.899,681.761 L 669.486,681.178 L 668.198,677.559 L 663.749,675.451 L 658.187,678.180 L 650.719,678.054 L 646.932,678.406 L 640.923,678.183 L 637.861,677.440 L 635.862,675.207 L 635.030,672.848 L 637.076,670.091 L 640.161,668.824 L 649.021,668.824 L 651.774,668.204 L 653.669,667.087 L 655.726,665.265 L 656.998,663.029 L 656.650,660.673 L 653.742,662.070 L 650.948,662.811 L 648.405,662.483 L 646.259,660.673 L 645.571,659.142 L 645.506,658.292 L 644.996,657.782 L 642.931,657.271 L 642.178,657.199 L 639.821,657.271 L 639.408,656.943 L 637.991,655.522 L 637.375,655.239 L 636.695,655.874 L 636.055,657.211 L 635.570,658.571 L 635.399,659.312 L 635.934,661.195 L 636.833,662.017 L 638.040,662.503 L 639.481,663.386 L 640.671,665.880 L 639.562,668.107 L 637.222,669.330 L 634.323,669.557 L 632.792,669.322 L 627.358,667.026 L 624.839,667.872 L 623.786,668.496 L 621.357,668.885 L 620.385,669.504 L 619.575,670.877 L 620.045,671.399 L 621.030,673.219 L 621.293,674.491 L 624.624,674.307 L 622.254,675.917 L 620.123,676.813 L 619.630,675.107 L 617.883,672.812 L 613.752,671.108 L 610.375,668.795 L 608.845,666.172 Z"/>
<path class="province" id="prv_bd0320fca2e552b24518" data-owner="kingdom-of-france" data-area="area-1444-kingdom-of-france" data-uncertainty="0.250" fill="#74e9e0" fill-opacity="0.750" d="M 562.966,620.339 L 572.557,614.587 L 583.606,617.428 L 585.042,626.022 L 590.583,627.459 L 575.447,631.768 L 563.696,624.647 L 563.696,624.647 L 562.966,620.339 Z"/>
<path class="province" id="prv_c98836d53c70cfc9c24c" data-owner="county-of-provence" data-area="area-1444-county-of-provence" data-uncertainty="0.250" fill="#43fd75" fill-opacity="0.750" d="M 587.904,643.233 L 597.503,637.493 L 608.534,640.377 L 609.941,649.001 L 600.338,654.735 L 589.331,651.850 L 587.904,643.233 Z"/>
<path class="province" id="prv_d29d13b36aa49bef4b01" data-owner="county-of-provence" data-area="area-1444-county-of-provence" data-uncertainty="0.250" fill="#43fd75" fill-opacity="0.750" d="M 608.534,640.377 L 618.166,634.651 L 629.210,637.554 L 659.631,629.066 L 608.924,659.166 L 620.979,652.010 L 620.962,651.906 L 609.941,649.001 L 608.534,640.377 Z"/>
<path class="province" id="prv_dea819013cfffb8803ac" data-owner="county-of-provence" data-area="area-1444-county-of-provence" data-uncertainty="0.250" fill="#43fd75" fill-opacity="0.750" d="M 597.120,635.171 L 598.776,632.284 L 599.320,630.037 L 599.320,626.956 L 605.710,623.152 L 605.710,623.152 L 629.210,637.554 L 618.166,634.651 L 608.534,640.377 L 597.503,637.493 L 597.120,635.171 Z"/>
<path class="province" id="prv_ef03dbca4c39f9695ee5" data-owner="kingdom-of-france" data-area="area-1444-kingdom-of-france" data-uncertainty="0.250" fill="#74e9e0" fill-opacity="0.750" d="M 591.800,603.104 L 601.453,597.373 L 612.540,600.233 L 609.127,611.686 L 604.294,614.551 L 593.230,611.689 L 591.800,603.104 Z"/>
<path class="constraint forbidden-modern" id="forbidden-modern-nord-department-part1" d="M 439.488,-1.674 L 439.242,-1.632 L 439.479,-0.861 L 438.696,-0.916 L 438.519,-0.806 L 438.314,-0.920 L 438.094,-0.799 L 437.396,-1.099 L 436.967,-0.916 L 436.792,-1.006 L 436.716,-0.766 L 436.329,-0.710 L 436.453,-0.584 L 436.284,-0.438 L 435.853,-0.743 L 434.811,0.594 L 435.228,1.007 L 435.621,0.924 L 435.752,1.291 L 435.521,1.566 L 435.748,1.797 L 435.395,2.390 L 436.484,2.768 L 436.507,3.009 L 437.356,2.645 L 437.955,2.682 L 439.136,1.243 L 439.910,1.387 L 440.040,1.057 L 440.861,1.048 L 442.149,1.422 L 442.812,1.150 L 442.533,1.066 L 442.783,0.877 L 442.421,0.703 L 442.632,0.289 L 442.367,0.169 L 442.475,-0.089 L 442.212,-0.438 L 442.775,-0.558 L 442.690,-0.682 L 442.976,-0.605 L 442.959,-1.033 L 443.426,-1.152 L 443.836,-1.050 L 444.991,-1.999 L 444.482,-2.131 L 444.775,-2.430 L 444.469,-2.458 L 444.655,-2.736 L 444.392,-2.867 L 443.139,-2.814 L 441.370,-3.097 L 441.521,-2.381 L 441.292,-2.443 L 440.933,-2.140 L 440.413,-2.296 L 439.488,-1.674 Z"/>
<path class="constraint forbidden-modern" id="forbidden-modern-nord-department-part2" d="M 549.090,16.322 L 549.375,16.247 L 549.646,15.863 L 550.331,15.754 L 550.822,14.951 L 551.197,14.734 L 551.067,14.176 L 550.775,14.029 L 550.377,14.252 L 549.433,13.854 L 549.649,13.652 L 549.319,13.564 L 549.128,13.670 L 549.384,13.390 L 548.854,13.311 L 548.432,12.729 L 548.502,12.166 L 549.299,11.431 L 549.403,11.088 L 549.770,11.007 L 550.162,10.271 L 551.116,9.327 L 552.278,9.709 L 553.875,9.213 L 554.297,9.315 L 554.744,8.601 L 556.704,8.173 L 557.683,7.628 L 557.976,7.131 L 557.403,6.128 L 557.379,5.719 L 556.616,5.481 L 556.291,4.865 L 555.912,4.596 L 555.567,4.688 L 555.022,4.292 L 555.053,4.065 L 555.596,3.762 L 554.536,3.643 L 554.601,3.359 L 555.270,2.738 L 555.079,2.587 L 555.222,2.193 L 555.045,1.856 L 554.639,1.556 L 554.959,1.014 L 554.812,0.883 L 554.550,0.775 L 552.469,0.996 L 550.590,0.774 L 550.516,1.426 L 550.331,1.511 L 548.666,1.251 L 547.605,0.743 L 547.979,0.246 L 548.457,0.042 L 548.668,-0.885 L 550.422,-1.984 L 550.464,-2.889 L 549.695,-3.109 L 549.993,-3.632 L 550.324,-3.647 L 550.238,-3.828 L 550.508,-4.020 L 550.692,-4.618 L 550.491,-4.915 L 550.825,-4.887 L 550.917,-5.028 L 550.931,-5.899 L 550.097,-6.356 L 550.150,-6.744 L 549.927,-7.018 L 550.205,-6.912 L 550.499,-7.069 L 551.431,-7.118 L 551.393,-7.262 L 551.814,-7.405 L 552.168,-7.374 L 552.130,-7.531 L 551.874,-7.516 L 552.367,-7.657 L 553.042,-8.891 L 554.223,-9.690 L 555.159,-9.677 L 556.858,-10.805 L 556.982,-11.502 L 556.437,-11.803 L 555.686,-12.934 L 554.960,-13.119 L 554.343,-12.960 L 552.618,-13.135 L 552.340,-13.476 L 552.513,-14.071 L 551.782,-14.094 L 551.871,-14.438 L 551.143,-14.520 L 550.994,-14.122 L 550.220,-14.114 L 550.423,-14.009 L 550.438,-13.666 L 549.859,-13.358 L 549.817,-13.184 L 550.035,-12.995 L 551.223,-12.820 L 551.242,-12.551 L 551.746,-12.294 L 551.645,-11.590 L 551.384,-11.582 L 551.244,-11.384 L 550.352,-11.281 L 549.469,-11.491 L 548.448,-11.381 L 548.407,-11.603 L 548.685,-11.627 L 548.774,-11.967 L 548.268,-12.274 L 548.548,-13.102 L 547.311,-12.931 L 547.087,-13.402 L 547.427,-13.680 L 547.469,-14.468 L 547.175,-15.419 L 546.730,-15.668 L 546.723,-15.933 L 546.601,-16.033 L 546.316,-15.844 L 545.884,-15.808 L 545.357,-16.485 L 544.630,-16.963 L 544.471,-16.811 L 544.243,-16.918 L 543.112,-16.533 L 542.816,-16.582 L 542.750,-17.683 L 542.019,-18.020 L 541.412,-18.677 L 540.437,-18.859 L 540.336,-19.533 L 539.354,-19.547 L 538.551,-19.964 L 538.199,-20.942 L 538.146,-20.828 L 537.687,-21.293 L 537.754,-21.428 L 537.370,-21.509 L 537.212,-21.271 L 536.782,-21.318 L 536.509,-20.969 L 536.739,-20.832 L 536.087,-20.595 L 535.090,-20.638 L 534.877,-20.382 L 534.321,-20.464 L 533.829,-20.219 L 533.840,-19.956 L 533.522,-19.814 L 533.120,-20.075 L 532.485,-20.197 L 532.303,-20.397 L 531.719,-19.663 L 531.539,-19.747 L 531.899,-20.301 L 531.813,-20.599 L 526.001,-18.486 L 525.079,-18.301 L 524.670,-18.505 L 523.592,-18.308 L 523.537,-18.475 L 524.065,-18.587 L 523.876,-18.777 L 523.972,-19.257 L 523.660,-19.219 L 523.628,-19.336 L 523.843,-19.360 L 523.739,-19.696 L 523.065,-19.396 L 522.588,-19.362 L 521.243,-19.787 L 521.252,-19.975 L 520.757,-19.821 L 520.880,-20.152 L 520.650,-20.490 L 519.738,-20.893 L 518.851,-21.020 L 518.340,-20.835 L 517.480,-20.937 L 517.391,-20.302 L 516.553,-20.085 L 516.193,-20.095 L 516.586,-20.559 L 516.453,-20.914 L 515.694,-21.129 L 514.958,-20.686 L 513.424,-20.952 L 512.651,-20.912 L 512.113,-20.703 L 511.741,-20.906 L 511.415,-20.401 L 509.801,-20.693 L 509.629,-20.600 L 509.768,-20.419 L 509.309,-20.488 L 508.740,-19.920 L 508.468,-19.885 L 508.926,-19.727 L 508.397,-19.430 L 508.798,-19.208 L 508.471,-19.085 L 508.485,-18.601 L 508.085,-18.645 L 508.049,-18.035 L 508.337,-17.765 L 507.832,-17.143 L 508.286,-16.763 L 507.953,-16.688 L 507.954,-16.553 L 507.189,-16.748 L 507.129,-17.206 L 506.109,-17.565 L 506.131,-17.007 L 506.634,-16.880 L 506.842,-16.512 L 506.657,-16.272 L 507.110,-16.120 L 506.066,-15.950 L 505.312,-16.707 L 504.548,-16.932 L 504.648,-17.283 L 503.506,-17.639 L 504.101,-17.512 L 504.327,-17.632 L 504.380,-17.488 L 504.499,-17.791 L 503.977,-17.886 L 503.610,-18.109 L 503.513,-18.404 L 503.070,-18.524 L 502.911,-18.896 L 502.589,-18.893 L 502.450,-19.112 L 502.860,-19.626 L 502.039,-20.079 L 502.050,-20.267 L 501.595,-20.363 L 501.856,-20.713 L 501.846,-21.675 L 501.581,-22.142 L 500.858,-22.445 L 500.961,-22.938 L 501.682,-23.443 L 502.057,-24.269 L 502.490,-24.443 L 502.353,-24.984 L 502.618,-25.804 L 502.135,-27.337 L 502.348,-27.784 L 502.022,-27.853 L 502.107,-29.275 L 501.804,-29.606 L 501.252,-29.838 L 501.164,-30.183 L 500.970,-30.229 L 501.552,-30.792 L 501.407,-31.145 L 500.515,-31.883 L 500.334,-31.805 L 499.968,-31.955 L 499.680,-31.919 L 499.654,-31.780 L 499.488,-31.871 L 498.639,-32.675 L 498.165,-33.453 L 498.402,-33.525 L 497.074,-34.194 L 495.909,-35.245 L 494.542,-34.667 L 493.688,-34.579 L 493.155,-34.700 L 493.086,-34.978 L 492.453,-35.183 L 492.350,-35.291 L 492.551,-35.398 L 492.083,-35.615 L 491.422,-35.311 L 489.982,-35.320 L 489.097,-34.960 L 488.458,-35.125 L 487.551,-35.061 L 486.713,-34.639 L 486.281,-34.621 L 485.277,-34.197 L 484.964,-34.837 L 485.152,-34.989 L 484.832,-35.406 L 485.588,-36.230 L 486.768,-36.767 L 487.197,-37.872 L 486.367,-38.083 L 486.062,-38.330 L 485.697,-38.337 L 485.594,-38.485 L 485.143,-38.526 L 484.341,-38.272 L 482.664,-38.874 L 482.262,-38.766 L 482.271,-38.568 L 481.637,-38.044 L 480.608,-37.434 L 480.658,-37.040 L 480.286,-36.688 L 480.439,-36.558 L 480.120,-36.177 L 479.547,-36.154 L 479.422,-36.335 L 479.189,-36.259 L 479.097,-36.591 L 478.119,-35.981 L 477.115,-35.755 L 476.867,-35.818 L 476.107,-35.451 L 474.995,-35.363 L 474.862,-35.133 L 474.464,-35.371 L 473.911,-34.946 L 472.919,-34.635 L 472.338,-34.909 L 472.189,-35.314 L 471.456,-35.920 L 469.024,-36.402 L 468.247,-36.316 L 467.945,-36.571 L 468.106,-36.768 L 467.477,-37.083 L 467.356,-37.387 L 466.088,-37.472 L 464.160,-38.091 L 463.765,-39.020 L 463.195,-39.357 L 463.469,-39.860 L 463.140,-40.666 L 463.571,-40.708 L 463.403,-41.094 L 463.205,-41.044 L 462.911,-41.349 L 463.830,-41.659 L 463.088,-41.923 L 463.157,-42.771 L 463.461,-42.776 L 463.513,-42.997 L 463.419,-43.321 L 462.886,-43.662 L 462.921,-44.456 L 463.269,-45.068 L 462.773,-45.163 L 462.930,-45.518 L 462.694,-45.544 L 462.789,-45.951 L 462.415,-46.092 L 462.315,-46.666 L 461.634,-47.131 L 461.713,-47.240 L 461.106,-47.502 L 461.213,-47.617 L 460.852,-47.736 L 461.241,-48.430 L 460.883,-48.488 L 460.535,-49.041 L 459.739,-49.525 L 460.289,-50.199 L 459.340,-51.306 L 459.593,-52.015 L 459.445,-52.319 L 460.617,-52.866 L 461.850,-53.147 L 461.435,-53.335 L 461.092,-53.786 L 461.181,-53.958 L 460.619,-54.403 L 460.698,-54.546 L 461.470,-54.568 L 461.180,-55.035 L 461.433,-55.558 L 460.415,-55.957 L 460.546,-56.078 L 459.855,-56.723 L 459.122,-56.548 L 458.898,-56.724 L 458.413,-56.630 L 458.077,-56.720 L 457.357,-56.405 L 457.200,-56.634 L 456.435,-56.758 L 456.263,-56.529 L 455.898,-56.599 L 456.223,-56.707 L 456.325,-57.163 L 455.803,-57.466 L 455.198,-57.469 L 454.480,-57.972 L 455.353,-58.864 L 455.072,-59.111 L 454.146,-59.435 L 453.987,-60.117 L 453.319,-60.764 L 453.387,-60.925 L 452.491,-61.262 L 452.503,-61.621 L 450.483,-63.744 L 450.711,-63.950 L 450.413,-64.391 L 448.090,-64.017 L 446.676,-64.834 L 446.354,-64.635 L 446.083,-64.175 L 446.221,-63.950 L 445.960,-63.709 L 445.292,-63.301 L 444.403,-63.025 L 444.429,-62.818 L 444.183,-62.698 L 443.496,-62.680 L 441.550,-63.442 L 441.023,-63.440 L 439.394,-62.958 L 439.168,-62.551 L 438.784,-62.371 L 438.094,-62.560 L 437.875,-62.477 L 437.320,-62.760 L 436.937,-62.783 L 436.698,-62.334 L 434.805,-61.421 L 433.572,-61.101 L 432.717,-60.435 L 431.743,-60.384 L 431.774,-60.582 L 431.381,-60.755 L 430.599,-60.594 L 429.230,-59.764 L 429.295,-59.263 L 429.641,-59.102 L 429.945,-58.620 L 428.641,-58.218 L 428.364,-57.716 L 428.589,-57.212 L 428.370,-56.342 L 427.719,-55.725 L 426.730,-55.825 L 426.495,-55.730 L 426.355,-55.601 L 426.571,-54.859 L 426.105,-54.677 L 425.376,-54.822 L 424.044,-56.074 L 423.454,-55.701 L 422.883,-55.846 L 422.483,-55.749 L 420.895,-56.964 L 420.333,-57.716 L 419.518,-57.472 L 418.489,-57.388 L 417.462,-56.968 L 417.100,-57.183 L 416.608,-57.161 L 415.581,-57.768 L 415.011,-57.899 L 415.085,-57.995 L 414.564,-57.988 L 414.590,-58.574 L 414.268,-58.676 L 413.720,-59.740 L 413.915,-59.830 L 413.859,-60.551 L 413.356,-60.455 L 412.827,-60.909 L 412.157,-60.865 L 411.723,-61.315 L 411.955,-61.502 L 411.875,-61.681 L 411.219,-61.662 L 411.765,-62.554 L 410.991,-62.875 L 410.623,-63.242 L 409.690,-63.559 L 409.407,-63.438 L 408.624,-64.188 L 408.564,-64.570 L 408.196,-64.618 L 407.719,-65.605 L 408.175,-66.271 L 407.995,-66.429 L 406.891,-66.903 L 406.649,-66.724 L 403.499,-66.712 L 403.109,-67.304 L 402.536,-67.630 L 402.395,-67.340 L 401.194,-66.714 L 399.134,-66.660 L 398.589,-67.574 L 398.182,-69.025 L 397.272,-69.343 L 397.308,-70.148 L 396.766,-70.383 L 395.992,-70.130 L 395.927,-70.258 L 395.549,-70.245 L 395.545,-70.653 L 396.860,-71.686 L 396.926,-72.087 L 396.250,-72.737 L 396.682,-73.344 L 396.280,-73.595 L 396.345,-73.943 L 396.068,-73.962 L 396.592,-74.819 L 396.579,-75.150 L 396.309,-75.200 L 396.318,-75.514 L 396.033,-75.788 L 396.443,-76.333 L 396.021,-76.985 L 395.091,-76.758 L 394.676,-77.228 L 395.223,-77.437 L 396.516,-78.403 L 397.418,-78.782 L 397.437,-79.450 L 398.650,-79.632 L 398.921,-79.923 L 397.577,-82.032 L 396.728,-82.651 L 396.891,-82.762 L 396.494,-83.211 L 396.564,-83.427 L 396.312,-83.489 L 396.651,-83.818 L 396.370,-84.396 L 395.170,-84.492 L 393.587,-85.193 L 393.062,-85.602 L 393.206,-85.870 L 392.764,-86.321 L 392.888,-86.619 L 393.249,-86.658 L 391.862,-91.093 L 391.947,-91.739 L 390.222,-94.134 L 383.930,-92.306 L 376.552,-90.524 L 373.839,-90.119 L 372.684,-90.274 L 372.517,-90.399 L 372.410,-90.423 L 371.999,-90.673 L 372.416,-90.401 L 372.536,-90.367 L 372.622,-90.281 L 372.511,-90.216 L 372.686,-90.053 L 373.383,-89.959 L 372.951,-89.830 L 373.277,-89.456 L 372.913,-89.510 L 372.827,-89.770 L 371.797,-90.608 L 371.242,-90.475 L 370.338,-90.526 L 370.116,-90.806 L 370.444,-90.850 L 370.182,-90.835 L 370.051,-90.991 L 362.129,-89.698 L 356.831,-88.460 L 355.943,-88.550 L 355.379,-89.291 L 355.040,-89.390 L 354.176,-89.235 L 352.945,-89.689 L 352.175,-89.666 L 352.180,-89.033 L 350.753,-88.706 L 350.759,-88.163 L 350.198,-87.833 L 350.202,-87.506 L 348.321,-86.802 L 348.129,-86.617 L 348.224,-86.423 L 347.324,-86.137 L 346.928,-85.851 L 346.263,-86.009 L 345.296,-86.829 L 346.294,-85.977 L 346.159,-85.929 L 345.041,-86.838 L 346.122,-85.912 L 345.926,-85.783 L 345.719,-85.913 L 345.361,-85.701 L 345.512,-85.656 L 345.432,-85.630 L 345.322,-85.645 L 345.288,-85.602 L 344.827,-85.552 L 345.146,-85.579 L 345.267,-85.285 L 345.561,-85.262 L 346.278,-84.428 L 346.839,-84.144 L 346.806,-83.724 L 347.568,-83.375 L 348.138,-83.395 L 347.996,-83.168 L 348.175,-82.467 L 348.447,-82.153 L 349.406,-81.748 L 349.682,-80.423 L 350.843,-79.352 L 350.972,-78.232 L 352.243,-76.970 L 352.830,-75.556 L 354.810,-72.633 L 354.957,-71.564 L 356.205,-70.309 L 356.011,-69.758 L 356.627,-69.186 L 356.434,-68.615 L 356.564,-68.134 L 357.134,-67.595 L 356.982,-67.343 L 357.169,-66.431 L 357.497,-66.591 L 357.680,-66.379 L 357.771,-66.531 L 359.043,-65.962 L 360.909,-64.335 L 362.803,-63.661 L 363.130,-63.675 L 363.790,-64.051 L 364.594,-64.085 L 364.686,-63.086 L 365.329,-63.420 L 366.386,-63.691 L 367.043,-64.107 L 367.221,-63.648 L 369.980,-63.501 L 372.772,-62.530 L 372.851,-62.785 L 372.515,-62.915 L 372.321,-63.102 L 372.496,-63.188 L 372.135,-63.391 L 372.898,-63.850 L 373.109,-63.724 L 373.293,-63.816 L 374.030,-63.424 L 373.788,-63.257 L 374.816,-63.077 L 375.383,-62.778 L 375.661,-62.889 L 376.318,-62.437 L 375.898,-62.164 L 376.884,-62.059 L 376.486,-61.628 L 375.728,-61.865 L 374.907,-61.124 L 374.204,-61.117 L 373.491,-60.563 L 372.834,-60.982 L 372.326,-60.547 L 372.124,-60.551 L 372.174,-60.419 L 370.494,-59.598 L 369.661,-59.416 L 369.918,-59.194 L 369.613,-59.079 L 369.964,-58.177 L 370.853,-58.169 L 370.991,-57.971 L 370.645,-57.699 L 370.843,-57.401 L 372.181,-56.422 L 373.893,-55.530 L 374.505,-55.388 L 372.126,-53.912 L 372.497,-53.726 L 372.158,-53.562 L 372.966,-53.303 L 372.831,-53.116 L 373.237,-52.937 L 373.097,-52.709 L 373.244,-52.612 L 373.495,-52.500 L 374.097,-52.623 L 374.141,-52.799 L 374.884,-53.214 L 376.084,-53.601 L 376.013,-53.442 L 376.660,-52.567 L 376.905,-52.341 L 377.166,-52.451 L 377.361,-52.015 L 377.898,-52.011 L 378.630,-51.151 L 380.743,-50.844 L 381.065,-50.511 L 382.306,-50.055 L 383.032,-49.313 L 383.556,-49.235 L 383.565,-49.090 L 384.284,-48.702 L 384.442,-48.817 L 384.448,-48.670 L 385.251,-48.679 L 385.363,-48.530 L 386.337,-48.890 L 386.604,-48.854 L 386.586,-49.003 L 387.108,-49.090 L 387.372,-48.973 L 387.854,-49.521 L 388.168,-49.532 L 388.068,-49.665 L 388.977,-49.802 L 389.061,-49.567 L 389.561,-49.525 L 389.209,-49.347 L 389.485,-49.193 L 389.224,-49.098 L 389.462,-48.950 L 389.327,-48.545 L 389.947,-48.394 L 390.201,-47.984 L 390.399,-48.122 L 391.111,-48.041 L 391.259,-48.362 L 391.559,-48.401 L 392.083,-47.922 L 392.418,-48.140 L 391.987,-48.540 L 392.297,-48.786 L 393.040,-48.730 L 393.313,-48.515 L 393.728,-48.767 L 393.714,-48.929 L 393.996,-48.841 L 393.958,-49.019 L 394.305,-49.305 L 394.759,-49.294 L 394.679,-48.846 L 394.956,-48.919 L 394.894,-48.665 L 395.161,-48.601 L 395.755,-48.551 L 396.368,-48.893 L 397.100,-48.939 L 397.053,-48.192 L 397.561,-48.013 L 398.163,-48.077 L 397.976,-47.924 L 398.694,-47.229 L 400.000,-47.727 L 400.897,-47.829 L 401.434,-47.687 L 401.801,-47.890 L 403.113,-48.026 L 403.053,-49.246 L 403.301,-49.057 L 403.807,-49.081 L 404.061,-48.706 L 404.944,-48.836 L 405.191,-48.321 L 406.185,-48.376 L 406.876,-48.669 L 407.064,-48.463 L 407.184,-48.540 L 407.951,-48.144 L 407.480,-47.676 L 408.036,-46.918 L 408.584,-46.759 L 409.209,-46.285 L 409.521,-46.433 L 410.153,-45.946 L 410.719,-46.171 L 410.403,-46.772 L 411.063,-47.012 L 411.306,-47.334 L 411.032,-47.543 L 410.816,-48.241 L 411.094,-48.271 L 411.314,-47.919 L 411.629,-47.985 L 411.517,-48.993 L 412.582,-48.776 L 413.324,-48.423 L 413.582,-48.551 L 414.131,-48.283 L 414.773,-48.830 L 412.189,-50.354 L 411.447,-50.530 L 411.876,-51.389 L 412.902,-51.955 L 414.007,-51.947 L 414.910,-51.671 L 415.460,-51.740 L 416.517,-52.353 L 417.639,-51.573 L 417.993,-51.698 L 419.438,-51.204 L 422.478,-48.578 L 421.709,-48.216 L 421.586,-48.346 L 421.064,-48.103 L 420.636,-48.264 L 420.370,-48.023 L 419.841,-48.445 L 418.973,-47.687 L 416.171,-46.147 L 415.476,-44.892 L 414.465,-43.803 L 415.402,-43.467 L 416.335,-43.406 L 416.373,-42.840 L 416.687,-42.857 L 417.186,-41.957 L 416.798,-41.618 L 416.954,-41.466 L 416.607,-41.273 L 417.247,-40.912 L 416.851,-40.656 L 417.093,-40.541 L 416.859,-40.437 L 415.773,-40.649 L 414.987,-40.435 L 415.616,-39.538 L 415.741,-38.958 L 415.452,-38.749 L 415.409,-38.444 L 415.560,-38.261 L 416.212,-38.219 L 416.649,-38.430 L 418.134,-38.054 L 421.620,-38.481 L 424.194,-39.282 L 424.109,-38.757 L 424.567,-38.457 L 423.508,-37.067 L 423.795,-36.914 L 423.681,-36.295 L 424.431,-36.296 L 424.642,-35.948 L 424.176,-35.851 L 424.653,-35.649 L 424.954,-35.860 L 425.645,-35.560 L 425.979,-35.873 L 426.520,-35.495 L 428.190,-36.309 L 428.550,-36.253 L 429.309,-36.442 L 429.406,-36.356 L 430.001,-36.646 L 430.198,-36.534 L 430.479,-36.751 L 431.259,-36.441 L 431.373,-36.570 L 431.865,-36.516 L 431.922,-36.782 L 434.744,-35.231 L 435.115,-35.085 L 435.452,-35.208 L 435.883,-35.034 L 437.012,-34.281 L 436.987,-34.122 L 438.284,-33.934 L 438.543,-33.532 L 438.247,-33.428 L 437.933,-33.790 L 437.553,-33.726 L 437.420,-33.088 L 437.608,-33.031 L 437.161,-32.832 L 436.967,-32.480 L 437.328,-32.219 L 437.029,-32.079 L 436.800,-31.541 L 436.524,-31.651 L 436.139,-31.289 L 436.597,-30.799 L 436.726,-30.906 L 437.396,-30.800 L 436.889,-30.346 L 437.127,-30.087 L 437.076,-29.760 L 437.959,-29.857 L 438.533,-30.080 L 439.203,-29.716 L 439.824,-30.480 L 440.616,-30.944 L 442.102,-31.409 L 442.318,-31.312 L 441.978,-30.296 L 442.216,-30.140 L 442.401,-30.216 L 443.040,-29.967 L 443.152,-30.096 L 443.564,-29.944 L 442.803,-29.381 L 442.278,-28.125 L 440.345,-28.150 L 439.829,-27.813 L 439.298,-27.869 L 439.180,-27.486 L 438.473,-27.136 L 438.247,-26.442 L 437.743,-26.250 L 437.438,-26.323 L 436.804,-25.866 L 436.605,-25.949 L 436.487,-25.801 L 436.402,-25.882 L 435.575,-25.568 L 435.466,-25.691 L 434.701,-25.565 L 434.578,-25.823 L 434.188,-25.646 L 433.405,-25.951 L 434.465,-25.182 L 434.644,-24.375 L 434.949,-24.329 L 434.766,-23.553 L 435.161,-23.503 L 435.745,-22.902 L 435.924,-22.250 L 436.319,-22.187 L 436.416,-21.862 L 436.094,-21.714 L 436.260,-21.413 L 436.799,-21.550 L 437.785,-20.996 L 438.308,-20.933 L 438.542,-20.513 L 439.278,-20.007 L 440.103,-20.180 L 440.385,-20.029 L 441.629,-18.761 L 441.431,-18.497 L 441.856,-18.019 L 442.103,-18.039 L 441.893,-17.906 L 442.296,-17.665 L 442.722,-17.651 L 442.703,-17.375 L 443.186,-17.276 L 443.839,-16.733 L 443.218,-16.370 L 442.346,-16.150 L 441.945,-16.603 L 441.938,-16.476 L 441.728,-16.587 L 441.874,-16.385 L 441.682,-15.989 L 441.341,-15.825 L 440.856,-15.824 L 440.793,-15.674 L 440.996,-15.653 L 440.181,-14.999 L 441.011,-14.542 L 440.647,-14.470 L 440.498,-14.196 L 440.884,-14.064 L 440.925,-13.854 L 439.775,-13.867 L 439.481,-14.387 L 438.899,-14.434 L 437.002,-14.030 L 437.073,-13.886 L 436.672,-13.808 L 437.147,-13.122 L 436.922,-13.071 L 436.957,-12.874 L 436.517,-12.535 L 437.726,-11.983 L 437.780,-12.306 L 438.113,-12.477 L 438.322,-12.266 L 438.450,-12.349 L 438.808,-12.237 L 439.192,-12.701 L 440.280,-13.424 L 441.567,-12.849 L 443.272,-13.076 L 443.561,-12.870 L 445.215,-12.576 L 445.963,-12.602 L 447.807,-12.245 L 448.182,-12.330 L 449.441,-12.147 L 450.288,-11.888 L 449.902,-11.743 L 450.347,-11.595 L 450.039,-10.797 L 450.420,-10.620 L 450.082,-10.277 L 451.169,-9.932 L 451.581,-10.128 L 451.531,-9.765 L 452.265,-10.017 L 452.495,-9.795 L 452.926,-9.790 L 453.002,-9.354 L 453.285,-9.181 L 453.165,-8.893 L 453.425,-8.791 L 453.600,-9.088 L 453.851,-9.022 L 454.033,-9.173 L 454.123,-8.947 L 453.856,-8.730 L 454.179,-8.532 L 453.011,-7.911 L 453.235,-7.564 L 452.113,-7.462 L 452.055,-7.611 L 451.462,-7.522 L 450.392,-7.633 L 449.658,-7.579 L 449.616,-7.431 L 449.221,-7.374 L 449.270,-6.617 L 448.909,-6.405 L 448.805,-6.243 L 448.991,-6.200 L 448.514,-5.626 L 450.096,-5.221 L 449.650,-4.792 L 450.621,-4.183 L 451.092,-4.198 L 451.170,-4.084 L 450.877,-4.019 L 451.011,-3.833 L 449.934,-3.586 L 450.016,-3.473 L 449.097,-2.639 L 449.136,-2.352 L 448.282,-2.241 L 447.709,-2.421 L 447.256,-2.216 L 446.985,-2.479 L 446.709,-2.427 L 446.774,-2.206 L 445.862,-2.150 L 445.493,-1.889 L 445.979,-1.520 L 446.169,-1.575 L 447.108,-0.381 L 448.511,-0.093 L 448.578,-0.200 L 449.016,0.006 L 448.920,0.264 L 448.435,0.274 L 448.298,0.622 L 447.790,0.576 L 446.869,1.208 L 446.572,1.066 L 446.454,1.285 L 446.163,1.199 L 445.956,1.477 L 445.740,1.442 L 445.426,1.739 L 445.173,1.741 L 444.633,2.196 L 445.323,2.513 L 445.126,2.662 L 445.450,2.596 L 445.895,2.740 L 445.701,3.094 L 445.845,3.384 L 446.001,3.326 L 445.835,3.822 L 445.997,3.712 L 446.678,3.820 L 446.494,4.518 L 446.805,5.019 L 445.736,6.403 L 445.455,6.132 L 445.296,6.405 L 445.144,6.362 L 445.309,5.990 L 444.219,5.958 L 444.132,6.274 L 444.396,6.437 L 444.128,6.429 L 444.148,6.717 L 444.409,6.712 L 445.243,7.448 L 445.061,7.607 L 444.073,7.571 L 443.985,7.960 L 444.256,8.174 L 443.749,8.569 L 444.433,8.881 L 444.878,8.998 L 444.436,9.507 L 445.271,9.665 L 445.206,9.859 L 446.227,10.073 L 447.065,10.501 L 446.778,10.807 L 447.241,11.638 L 447.830,11.541 L 447.754,11.805 L 448.762,11.823 L 450.364,11.515 L 450.089,12.393 L 450.236,12.445 L 450.472,12.169 L 451.206,12.422 L 452.075,12.138 L 452.425,12.476 L 452.617,13.051 L 453.702,12.965 L 454.973,12.522 L 455.133,12.737 L 455.136,12.582 L 456.687,12.116 L 457.448,11.549 L 457.648,11.647 L 457.714,11.364 L 458.232,10.992 L 458.774,11.467 L 459.754,11.172 L 459.851,11.436 L 461.148,11.809 L 461.133,11.049 L 462.427,11.315 L 463.136,12.066 L 462.655,12.203 L 462.987,12.442 L 462.830,12.543 L 463.073,12.806 L 463.715,12.644 L 463.905,12.879 L 464.963,12.495 L 466.605,12.249 L 467.438,12.559 L 468.227,12.652 L 468.996,12.533 L 469.263,12.018 L 469.430,12.027 L 469.470,11.607 L 470.375,11.516 L 470.317,10.793 L 470.603,10.652 L 471.041,10.721 L 471.640,10.567 L 472.482,10.679 L 473.014,10.586 L 473.277,10.697 L 473.281,10.899 L 473.515,10.850 L 473.603,11.098 L 474.175,11.193 L 475.146,10.776 L 476.049,11.187 L 476.601,11.679 L 477.347,11.344 L 477.735,11.499 L 478.204,11.795 L 478.065,12.039 L 480.774,11.989 L 481.765,12.251 L 482.173,12.082 L 484.276,12.354 L 484.834,12.004 L 484.848,11.701 L 485.049,11.796 L 485.631,11.342 L 485.916,10.674 L 487.700,10.652 L 488.124,10.522 L 488.010,10.237 L 488.222,10.153 L 488.153,9.859 L 488.387,9.681 L 489.578,9.630 L 489.381,9.307 L 489.534,9.097 L 489.178,8.975 L 489.322,8.740 L 489.589,8.856 L 491.892,8.934 L 493.080,9.535 L 494.656,9.842 L 495.803,10.763 L 496.562,11.742 L 497.626,11.181 L 498.164,11.113 L 498.383,10.701 L 499.224,10.352 L 500.651,10.919 L 501.018,11.316 L 501.358,10.342 L 500.966,10.158 L 500.348,10.240 L 499.994,9.984 L 500.916,9.791 L 501.099,9.121 L 501.644,8.766 L 502.261,8.751 L 503.042,8.403 L 505.165,7.968 L 506.625,7.319 L 507.316,7.899 L 508.659,8.264 L 509.744,8.963 L 510.184,8.959 L 510.230,9.113 L 511.191,9.001 L 512.502,9.201 L 512.814,9.664 L 513.501,9.458 L 514.852,9.409 L 515.749,10.038 L 516.617,10.360 L 518.604,9.422 L 519.941,10.353 L 522.528,10.602 L 522.925,10.937 L 523.606,11.081 L 523.729,11.229 L 522.854,11.460 L 523.985,11.981 L 523.681,12.234 L 523.760,13.284 L 524.281,13.303 L 524.543,12.677 L 525.254,12.587 L 526.172,12.187 L 526.449,12.235 L 527.253,11.572 L 527.985,11.680 L 529.480,11.226 L 529.819,11.294 L 529.983,11.587 L 530.643,11.054 L 531.353,10.865 L 531.895,10.485 L 532.308,10.559 L 533.203,9.813 L 534.016,10.158 L 534.526,11.444 L 532.962,13.959 L 533.080,14.866 L 535.494,14.619 L 536.153,15.675 L 537.118,15.606 L 537.034,15.749 L 538.125,15.985 L 538.365,15.638 L 540.948,15.755 L 543.294,16.338 L 543.108,17.051 L 543.446,17.312 L 544.545,17.001 L 545.249,16.945 L 545.492,17.126 L 546.477,16.635 L 547.035,16.876 L 547.745,16.577 L 548.278,16.609 L 549.090,16.322 Z"/>
<path class="constraint hard-constraint" id="frontier-rhone-languedoc-provence" d="M 599.260,630.283 L 599.218,630.459"/>
</g>
<g class="scale-bar"><line x1="12.0" y1="728.0" x2="76.8" y2="728.0"/><line x1="12.0" y1="724.0" x2="12.0" y2="732.0"/><line x1="76.8" y1="724.0" x2="76.8" y2="732.0"/><text x="44.4" y="722.0" text-anchor="middle">≈50 km</text></g>
<text x="1020.0" y="30.0" class="panel-title">Legend</text><rect x="1020.0" y="40.0" width="18" height="10" class="legend-province"/><text x="1044.0" y="49.0">province (fill = owner colour, opacity = 1 − uncertainty)</text><line x1="1020.0" y1="62.0" x2="1038.0" y2="62.0" class="constraint hard-constraint"/><text x="1044.0" y="66.0">hard constraint (certified frontier sub-segment)</text><line x1="1020.0" y1="79.0" x2="1038.0" y2="79.0" class="constraint soft-evidence"/><text x="1044.0" y="83.0">soft evidence</text><line x1="1020.0" y1="96.0" x2="1038.0" y2="96.0" class="constraint forbidden-modern"/><text x="1044.0" y="100.0">forbidden modern outline (negative control; excluded from framing)</text><g class="control-point"><circle cx="1029.0" cy="113.0" r="3.2"/></g><text x="1044.0" y="117.0">georeferencing control point (name, residual km)</text><rect x="1020.0" y="125.0" width="18" height="10" class="focus-box"/><text x="1044.0" y="134.0">inset frame on the main map</text>
<text x="1020.0" y="182.0" class="panel-title">Inset A — frontier-rhone-languedoc-provence (hard constraint)</text>
<text x="1020.0" y="196.0" class="panel-title">vector-substring-wgs84 @ EPSG:4326; max residual 2.791 km ≤ budget 6 km</text>
<rect x="1020.0" y="204.0" width="420.0" height="210.0" class="inset-frame"/>
<g clip-path="url(#clip-inset-A)">
<path class="province" data-owner="county-of-provence" data-area="area-1444-county-of-provence" data-uncertainty="0.250" fill="#43fd75" fill-opacity="0.750" d="M 1213.679,272.748 L 1213.679,261.205 L 1218.365,258.664 L 1246.534,248.305 L 1253.706,244.745 L 1248.298,262.892 L 1248.298,262.892 L 1248.298,262.892 L 1213.679,272.748 Z"/>
<path class="province" data-owner="county-of-provence" data-area="area-1444-county-of-provence" data-uncertainty="0.250" fill="#43fd75" fill-opacity="0.750" d="M 1308.187,278.510 L 1360.531,247.525 L 1420.493,263.253 L 1427.986,309.971 L 1458.053,317.923 L 1375.621,340.923 L 1311.999,301.932 L 1308.187,278.510 Z"/>
<path class="province" data-owner="kingdom-of-france" data-area="area-1444-kingdom-of-france" data-uncertainty="0.250" fill="#74e9e0" fill-opacity="0.750" d="M 1196.134,293.950 L 1213.679,283.503 L 1213.679,300.193 L 1210.731,312.369 L 1201.758,328.012 L 1196.134,293.950 Z"/>
<path class="province" data-owner="kingdom-of-france" data-area="area-1444-kingdom-of-france" data-uncertainty="0.250" fill="#74e9e0" fill-opacity="0.750" d="M 1060.824,170.008 L 1112.942,138.885 L 1172.936,154.273 L 1180.684,200.790 L 1128.543,231.881 L 1068.677,216.488 L 1060.824,170.008 Z"/>
<path class="province" data-owner="county-of-provence" data-area="area-1444-county-of-provence" data-uncertainty="0.250" fill="#43fd75" fill-opacity="0.750" d="M 1219.192,434.006 L 1271.224,402.941 L 1330.933,418.678 L 1331.024,419.243 L 1265.711,458.014 L 1265.283,455.120 L 1261.905,447.025 L 1256.333,437.701 L 1248.830,429.760 L 1239.484,425.679 L 1239.484,429.014 L 1255.543,447.618 L 1257.912,453.278 L 1257.912,462.643 L 1227.207,480.869 L 1226.847,480.774 L 1219.192,434.006 Z"/>
<path class="province" data-owner="county-of-provence" data-area="area-1444-county-of-provence" data-uncertainty="0.250" fill="#43fd75" fill-opacity="0.750" d="M 1213.679,283.503 L 1213.679,272.748 L 1248.298,262.892 L 1248.298,262.892 L 1213.679,283.503 Z"/>
<path class="province" data-owner="kingdom-of-france" data-area="area-1444-kingdom-of-france" data-uncertainty="0.250" fill="#74e9e0" fill-opacity="0.750" d="M 1128.543,231.881 L 1180.684,200.790 L 1240.626,216.293 L 1266.812,200.768 L 1253.706,244.745 L 1246.534,248.305 L 1218.365,258.664 L 1213.679,261.205 L 1213.679,272.748 L 1166.340,286.225 L 1136.319,278.442 L 1128.543,231.881 Z"/>
<path class="province" data-owner="kingdom-of-france" data-area="area-1444-kingdom-of-france" data-uncertainty="0.250" fill="#74e9e0" fill-opacity="0.750" d="M 1066.249,371.748 L 1084.334,309.573 L 1213.679,272.748 L 1213.679,283.503 L 1196.134,293.950 L 1201.758,328.012 L 1194.672,340.366 L 1195.716,345.448 L 1151.826,371.691 L 1092.139,356.178 L 1066.249,371.748 Z"/>
<path class="province" data-owner="county-of-provence" data-area="area-1444-county-of-provence" data-uncertainty="0.250" fill="#43fd75" fill-opacity="0.750" d="M 1248.298,262.892 L 1285.303,138.721 L 1285.303,138.721 L 1292.947,185.275 L 1352.963,200.888 L 1360.531,247.525 L 1308.187,278.510 L 1311.999,301.932 L 1248.298,262.892 Z"/>
<path class="province" data-owner="county-of-provence" data-area="area-1444-county-of-provence" data-uncertainty="0.250" fill="#43fd75" fill-opacity="0.750" d="M 1194.672,340.366 L 1201.758,328.012 L 1203.835,340.593 L 1195.716,345.448 L 1194.672,340.366 Z"/>
<path class="province" data-owner="county-of-provence" data-area="area-1444-county-of-provence" data-uncertainty="0.250" fill="#43fd75" fill-opacity="0.750" d="M 1265.283,495.969 L 1266.644,464.334 L 1265.711,458.014 L 1540.436,294.936 L 1960.374,408.199 L 2001.970,692.473 L 1992.865,693.199 L 1967.304,695.730 L 1957.861,695.737 L 1952.206,684.554 L 1938.842,682.715 L 1921.006,682.812 L 1907.765,676.652 L 1909.081,673.493 L 1910.003,668.294 L 1911.451,665.639 L 1902.588,665.464 L 1893.988,667.109 L 1878.280,672.967 L 1887.362,675.665 L 1895.104,687.645 L 1904.077,690.666 L 1917.085,694.776 L 1911.105,699.665 L 1898.662,698.677 L 1882.890,698.955 L 1876.086,700.806 L 1865.987,713.727 L 1845.691,709.068 L 1830.207,700.193 L 1825.695,695.239 L 1837.030,689.970 L 1845.219,684.472 L 1841.650,680.355 L 1835.773,677.592 L 1826.522,676.110 L 1825.139,671.400 L 1822.597,667.369 L 1814.203,666.738 L 1803.665,666.694 L 1779.558,658.708 L 1774.907,646.860 L 1767.491,640.909 L 1757.411,637.835 L 1746.084,636.951 L 1739.986,642.613 L 1734.335,651.400 L 1721.309,647.330 L 1712.923,646.699 L 1705.519,639.998 L 1699.195,633.377 L 1694.122,626.081 L 1687.176,623.256 L 1681.452,625.892 L 1675.974,627.014 L 1652.067,625.472 L 1641.241,625.943 L 1624.938,623.977 L 1617.279,623.412 L 1603.815,625.828 L 1591.222,621.493 L 1593.171,611.956 L 1594.883,606.450 L 1598.700,600.965 L 1603.175,592.102 L 1596.809,586.747 L 1596.067,580.431 L 1593.830,577.272 L 1586.856,557.663 L 1562.751,546.242 L 1532.615,561.032 L 1492.156,560.345 L 1471.634,562.257 L 1439.081,561.044 L 1422.489,557.023 L 1411.660,544.922 L 1407.151,532.140 L 1418.236,517.205 L 1434.953,510.339 L 1482.954,510.339 L 1497.872,506.982 L 1508.139,500.927 L 1519.284,491.055 L 1526.172,478.945 L 1524.286,466.177 L 1508.534,473.746 L 1493.397,477.761 L 1479.619,475.984 L 1467.992,466.177 L 1464.263,457.885 L 1463.912,453.278 L 1461.147,450.513 L 1449.959,447.749 L 1445.878,447.354 L 1433.110,447.749 L 1430.873,445.972 L 1423.194,438.272 L 1419.860,436.736 L 1416.174,440.180 L 1412.708,447.420 L 1410.075,454.791 L 1409.154,458.806 L 1412.050,469.007 L 1416.920,473.461 L 1423.458,476.093 L 1431.268,480.876 L 1437.717,494.390 L 1431.706,506.456 L 1419.026,513.081 L 1403.319,514.310 L 1395.026,513.037 L 1365.585,500.598 L 1351.939,505.183 L 1346.235,508.562 L 1333.072,510.668 L 1327.807,514.024 L 1323.420,521.461 L 1325.964,524.291 L 1331.302,534.150 L 1332.726,541.045 L 1350.773,540.046 L 1337.932,548.771 L 1326.389,553.625 L 1323.717,544.379 L 1314.249,531.948 L 1291.872,522.712 L 1273.576,510.185 L 1265.283,495.969 Z"/>
<path class="province" data-owner="kingdom-of-france" data-area="area-1444-kingdom-of-france" data-uncertainty="0.250" fill="#74e9e0" fill-opacity="0.750" d="M 1016.716,247.651 L 1068.677,216.488 L 1128.543,231.881 L 1136.319,278.442 L 1166.340,286.225 L 1084.334,309.573 L 1020.670,270.993 L 1020.670,270.993 L 1016.716,247.651 Z"/>
<path class="province" data-owner="county-of-provence" data-area="area-1444-county-of-provence" data-uncertainty="0.250" fill="#43fd75" fill-opacity="0.750" d="M 1151.826,371.691 L 1203.835,340.593 L 1263.597,356.216 L 1271.224,402.941 L 1219.192,434.006 L 1159.556,418.378 L 1151.826,371.691 Z"/>
<path class="province" data-owner="county-of-provence" data-area="area-1444-county-of-provence" data-uncertainty="0.250" fill="#43fd75" fill-opacity="0.750" d="M 1263.597,356.216 L 1315.785,325.191 L 1375.621,340.923 L 1540.436,294.936 L 1265.711,458.014 L 1331.024,419.243 L 1330.933,418.678 L 1271.224,402.941 L 1263.597,356.216 Z"/>
<path class="province" data-owner="county-of-provence" data-area="area-1444-county-of-provence" data-uncertainty="0.250" fill="#43fd75" fill-opacity="0.750" d="M 1201.758,328.012 L 1210.731,312.369 L 1213.679,300.193 L 1213.679,283.503 L 1248.298,262.892 L 1248.298,262.892 L 1375.621,340.923 L 1315.785,325.191 L 1263.597,356.216 L 1203.835,340.593 L 1201.758,328.012 Z"/>
<path class="province" data-owner="kingdom-of-france" data-area="area-1444-kingdom-of-france" data-uncertainty="0.250" fill="#74e9e0" fill-opacity="0.750" d="M 1172.936,154.273 L 1225.234,123.222 L 1285.303,138.721 L 1266.812,200.768 L 1240.626,216.293 L 1180.684,200.790 L 1172.936,154.273 Z"/>
<path class="constraint hard-constraint" d="M 1213.356,301.528 L 1213.125,302.483"/>
</g>
<g class="control-point"><circle cx="1267.7" cy="253.7" r="3.2"/><text x="1261.7" y="248.7" text-anchor="end">Barbentane (Durance confluence) (2.791 km)</text></g>
<g class="control-point"><circle cx="1212.2" cy="302.3" r="3.2"/><text x="1218.2" y="314.3" text-anchor="start">Beaucaire (0.144 km)</text></g>
<g class="control-point"><circle cx="1220.8" cy="303.3" r="3.2"/><text x="1226.8" y="298.3" text-anchor="start">Tarascon (1.175 km)</text></g>
<g class="control-point"><circle cx="1192.3" cy="364.3" r="3.2"/><text x="1198.3" y="376.3" text-anchor="start">Fourques (Petit Rhône diffluence) (0.569 km)</text></g>
<g class="scale-bar"><line x1="1032.0" y1="402.0" x2="1099.1" y2="402.0"/><line x1="1032.0" y1="398.0" x2="1032.0" y2="406.0"/><line x1="1099.1" y1="398.0" x2="1099.1" y2="406.0"/><text x="1065.5" y="396.0" text-anchor="middle">≈10 km</text></g>
<rect x="583.0" y="612.3" width="38.8" height="38.8" class="focus-box"/>
<text x="586.0" y="625.3" class="focus-label">A</text>
<text x="1020.0" y="440.0" class="panel-title">Inset B — forbidden-modern-nord-department</text>
<text x="1020.0" y="454.0" class="panel-title">negative control: modern outline vs 1444 provinces</text>
<rect x="1020.0" y="462.0" width="420.0" height="210.0" class="inset-frame"/>
<g clip-path="url(#clip-inset-B)">
<path class="province" data-owner="kingdom-of-france" data-area="area-1444-kingdom-of-france" data-uncertainty="0.150" fill="#74e9e0" fill-opacity="0.850" d="M 1081.293,646.848 L 1133.613,621.602 L 1194.697,642.291 L 1203.042,687.838 L 1151.560,712.933 L 1090.898,692.629 L 1081.293,646.848 Z"/>
<path class="constraint forbidden-modern" d="M 1220.971,594.842 L 1220.785,594.874 L 1220.964,595.458 L 1220.371,595.416 L 1220.237,595.499 L 1220.082,595.413 L 1219.915,595.505 L 1219.386,595.278 L 1219.061,595.416 L 1218.928,595.348 L 1218.870,595.530 L 1218.577,595.573 L 1218.671,595.668 L 1218.543,595.779 L 1218.217,595.548 L 1217.427,596.561 L 1217.743,596.873 L 1218.041,596.811 L 1218.140,597.089 L 1217.965,597.297 L 1218.137,597.472 L 1217.869,597.922 L 1218.695,598.208 L 1218.712,598.391 L 1219.355,598.115 L 1219.809,598.143 L 1220.705,597.053 L 1221.291,597.161 L 1221.389,596.911 L 1222.012,596.904 L 1222.988,597.188 L 1223.490,596.982 L 1223.279,596.918 L 1223.468,596.775 L 1223.194,596.643 L 1223.354,596.329 L 1223.153,596.239 L 1223.235,596.043 L 1223.036,595.779 L 1223.463,595.688 L 1223.398,595.593 L 1223.615,595.652 L 1223.602,595.327 L 1223.956,595.237 L 1224.267,595.315 L 1225.142,594.596 L 1224.756,594.495 L 1224.978,594.269 L 1224.746,594.247 L 1224.887,594.037 L 1224.688,593.937 L 1223.738,593.978 L 1222.398,593.764 L 1222.512,594.306 L 1222.338,594.259 L 1222.066,594.489 L 1221.672,594.370 L 1220.971,594.842 Z"/>
<path class="constraint forbidden-modern" d="M 1304.035,608.481 L 1304.251,608.424 L 1304.456,608.133 L 1304.975,608.050 L 1305.347,607.441 L 1305.631,607.276 L 1305.533,606.854 L 1305.312,606.743 L 1305.010,606.912 L 1304.295,606.610 L 1304.459,606.457 L 1304.208,606.390 L 1304.063,606.470 L 1304.257,606.258 L 1303.856,606.199 L 1303.536,605.757 L 1303.589,605.331 L 1304.193,604.774 L 1304.272,604.514 L 1304.550,604.453 L 1304.847,603.894 L 1305.570,603.179 L 1306.450,603.469 L 1307.661,603.093 L 1307.981,603.170 L 1308.320,602.629 L 1309.805,602.305 L 1310.547,601.892 L 1310.769,601.515 L 1310.334,600.755 L 1310.317,600.445 L 1309.738,600.264 L 1309.492,599.798 L 1309.205,599.593 L 1308.944,599.664 L 1308.530,599.363 L 1308.554,599.191 L 1308.965,598.961 L 1308.162,598.871 L 1308.211,598.656 L 1308.718,598.186 L 1308.574,598.071 L 1308.682,597.772 L 1308.547,597.517 L 1308.240,597.290 L 1308.482,596.879 L 1308.371,596.780 L 1308.172,596.698 L 1306.596,596.865 L 1305.172,596.697 L 1305.115,597.191 L 1304.975,597.255 L 1303.713,597.059 L 1302.909,596.673 L 1303.192,596.297 L 1303.555,596.142 L 1303.715,595.440 L 1305.044,594.607 L 1305.076,593.921 L 1304.493,593.754 L 1304.719,593.358 L 1304.970,593.347 L 1304.905,593.210 L 1305.109,593.064 L 1305.249,592.611 L 1305.096,592.385 L 1305.349,592.407 L 1305.419,592.300 L 1305.430,591.640 L 1304.798,591.294 L 1304.838,591.000 L 1304.669,590.791 L 1304.880,590.872 L 1305.103,590.753 L 1305.809,590.716 L 1305.780,590.607 L 1306.099,590.498 L 1306.368,590.522 L 1306.338,590.403 L 1306.145,590.414 L 1306.518,590.307 L 1307.030,589.372 L 1307.924,588.767 L 1308.634,588.777 L 1309.922,587.922 L 1310.016,587.393 L 1309.603,587.165 L 1309.034,586.308 L 1308.483,586.168 L 1308.016,586.288 L 1306.709,586.156 L 1306.498,585.898 L 1306.629,585.446 L 1306.075,585.430 L 1306.142,585.168 L 1305.590,585.106 L 1305.478,585.408 L 1304.891,585.414 L 1305.045,585.494 L 1305.056,585.754 L 1304.618,585.987 L 1304.586,586.119 L 1304.751,586.262 L 1305.651,586.395 L 1305.666,586.598 L 1306.048,586.793 L 1305.971,587.327 L 1305.773,587.333 L 1305.667,587.483 L 1304.991,587.561 L 1304.322,587.402 L 1303.548,587.486 L 1303.517,587.317 L 1303.728,587.299 L 1303.795,587.041 L 1303.412,586.809 L 1303.624,586.181 L 1302.686,586.310 L 1302.517,585.954 L 1302.774,585.743 L 1302.806,585.146 L 1302.583,584.425 L 1302.246,584.236 L 1302.241,584.035 L 1302.148,583.960 L 1301.933,584.103 L 1301.605,584.130 L 1301.206,583.617 L 1300.655,583.255 L 1300.534,583.370 L 1300.361,583.289 L 1299.504,583.581 L 1299.280,583.544 L 1299.230,582.709 L 1298.676,582.454 L 1298.216,581.956 L 1297.477,581.818 L 1297.401,581.307 L 1296.656,581.296 L 1296.048,580.981 L 1295.780,580.239 L 1295.741,580.325 L 1295.393,579.973 L 1295.444,579.871 L 1295.153,579.810 L 1295.033,579.990 L 1294.707,579.954 L 1294.500,580.219 L 1294.674,580.323 L 1294.180,580.502 L 1293.424,580.469 L 1293.263,580.664 L 1292.842,580.602 L 1292.469,580.787 L 1292.477,580.986 L 1292.236,581.094 L 1291.931,580.896 L 1291.450,580.804 L 1291.313,580.652 L 1290.870,581.208 L 1290.733,581.145 L 1291.006,580.725 L 1290.941,580.499 L 1286.536,582.101 L 1285.838,582.241 L 1285.528,582.087 L 1284.711,582.236 L 1284.669,582.109 L 1285.069,582.024 L 1284.926,581.880 L 1284.999,581.516 L 1284.762,581.545 L 1284.738,581.456 L 1284.901,581.438 L 1284.822,581.184 L 1284.311,581.411 L 1283.950,581.436 L 1282.930,581.114 L 1282.937,580.972 L 1282.562,581.089 L 1282.656,580.838 L 1282.481,580.582 L 1281.790,580.277 L 1281.118,580.180 L 1280.730,580.321 L 1280.079,580.243 L 1280.011,580.724 L 1279.376,580.889 L 1279.103,580.881 L 1279.401,580.530 L 1279.300,580.261 L 1278.725,580.098 L 1278.167,580.434 L 1277.005,580.232 L 1276.419,580.262 L 1276.011,580.421 L 1275.730,580.266 L 1275.482,580.649 L 1274.259,580.428 L 1274.129,580.498 L 1274.234,580.636 L 1273.886,580.583 L 1273.455,581.014 L 1273.248,581.040 L 1273.596,581.160 L 1273.195,581.385 L 1273.499,581.553 L 1273.251,581.647 L 1273.262,582.013 L 1272.958,581.980 L 1272.932,582.442 L 1273.150,582.647 L 1272.767,583.119 L 1273.111,583.406 L 1272.858,583.463 L 1272.859,583.565 L 1272.280,583.418 L 1272.234,583.071 L 1271.461,582.799 L 1271.478,583.221 L 1271.859,583.318 L 1272.017,583.596 L 1271.876,583.778 L 1272.219,583.894 L 1271.428,584.023 L 1270.857,583.448 L 1270.278,583.279 L 1270.354,583.012 L 1269.488,582.742 L 1269.939,582.838 L 1270.110,582.748 L 1270.150,582.857 L 1270.241,582.627 L 1269.845,582.555 L 1269.567,582.386 L 1269.494,582.163 L 1269.158,582.072 L 1269.037,581.790 L 1268.793,581.792 L 1268.688,581.626 L 1268.999,581.237 L 1268.377,580.893 L 1268.385,580.750 L 1268.040,580.678 L 1268.238,580.413 L 1268.230,579.684 L 1268.029,579.330 L 1267.481,579.100 L 1267.559,578.726 L 1268.106,578.344 L 1268.390,577.718 L 1268.718,577.586 L 1268.614,577.176 L 1268.815,576.555 L 1268.449,575.393 L 1268.611,575.054 L 1268.364,575.002 L 1268.428,573.924 L 1268.199,573.673 L 1267.780,573.497 L 1267.713,573.236 L 1267.566,573.201 L 1268.007,572.774 L 1267.898,572.507 L 1267.221,571.947 L 1267.085,572.007 L 1266.807,571.893 L 1266.589,571.921 L 1266.569,572.026 L 1266.443,571.957 L 1265.800,571.348 L 1265.440,570.758 L 1265.620,570.703 L 1264.614,570.196 L 1263.731,569.400 L 1262.695,569.838 L 1262.048,569.905 L 1261.643,569.812 L 1261.591,569.602 L 1261.111,569.446 L 1261.033,569.365 L 1261.186,569.284 L 1260.831,569.119 L 1260.330,569.350 L 1259.239,569.342 L 1258.568,569.615 L 1258.084,569.490 L 1257.396,569.539 L 1256.762,569.859 L 1256.434,569.873 L 1255.673,570.194 L 1255.436,569.708 L 1255.578,569.593 L 1255.336,569.278 L 1255.908,568.653 L 1256.803,568.246 L 1257.128,567.408 L 1256.499,567.249 L 1256.268,567.062 L 1255.991,567.057 L 1255.914,566.944 L 1255.572,566.913 L 1254.964,567.106 L 1253.693,566.650 L 1253.388,566.731 L 1253.395,566.881 L 1252.915,567.278 L 1252.135,567.741 L 1252.173,568.039 L 1251.891,568.306 L 1252.007,568.405 L 1251.765,568.693 L 1251.331,568.711 L 1251.236,568.573 L 1251.059,568.631 L 1250.990,568.379 L 1250.249,568.842 L 1249.488,569.013 L 1249.299,568.965 L 1248.724,569.244 L 1247.880,569.310 L 1247.780,569.484 L 1247.479,569.304 L 1247.059,569.626 L 1246.308,569.861 L 1245.867,569.654 L 1245.754,569.347 L 1245.199,568.888 L 1243.356,568.523 L 1242.767,568.588 L 1242.538,568.395 L 1242.660,568.245 L 1242.183,568.006 L 1242.092,567.776 L 1241.131,567.712 L 1239.669,567.243 L 1239.370,566.538 L 1238.938,566.283 L 1239.146,565.902 L 1238.896,565.291 L 1239.223,565.259 L 1239.096,564.967 L 1238.945,565.005 L 1238.723,564.773 L 1239.420,564.539 L 1238.857,564.339 L 1238.909,563.696 L 1239.139,563.692 L 1239.179,563.524 L 1239.107,563.279 L 1238.704,563.021 L 1238.731,562.419 L 1238.994,561.955 L 1238.618,561.883 L 1238.737,561.614 L 1238.559,561.595 L 1238.630,561.286 L 1238.347,561.179 L 1238.271,560.744 L 1237.755,560.392 L 1237.815,560.309 L 1237.355,560.110 L 1237.436,560.024 L 1237.162,559.933 L 1237.457,559.407 L 1237.186,559.363 L 1236.922,558.944 L 1236.319,558.578 L 1236.736,558.066 L 1236.017,557.228 L 1236.208,556.690 L 1236.096,556.460 L 1236.984,556.045 L 1237.919,555.832 L 1237.604,555.689 L 1237.344,555.348 L 1237.412,555.217 L 1236.985,554.880 L 1237.046,554.772 L 1237.630,554.755 L 1237.411,554.402 L 1237.603,554.005 L 1236.831,553.703 L 1236.930,553.611 L 1236.407,553.122 L 1235.851,553.254 L 1235.681,553.121 L 1235.314,553.193 L 1235.060,553.124 L 1234.514,553.363 L 1234.394,553.189 L 1233.815,553.096 L 1233.685,553.269 L 1233.408,553.216 L 1233.654,553.134 L 1233.731,552.789 L 1233.336,552.559 L 1232.877,552.557 L 1232.333,552.176 L 1232.995,551.499 L 1232.782,551.313 L 1232.080,551.067 L 1231.960,550.550 L 1231.453,550.059 L 1231.505,549.938 L 1230.825,549.682 L 1230.835,549.410 L 1229.304,547.801 L 1229.477,547.645 L 1229.251,547.311 L 1227.491,547.594 L 1226.419,546.975 L 1226.175,547.126 L 1225.969,547.474 L 1226.074,547.645 L 1225.876,547.828 L 1225.370,548.137 L 1224.696,548.346 L 1224.716,548.503 L 1224.529,548.594 L 1224.009,548.607 L 1222.534,548.030 L 1222.135,548.032 L 1220.900,548.397 L 1220.729,548.705 L 1220.438,548.842 L 1219.915,548.698 L 1219.749,548.761 L 1219.329,548.547 L 1219.038,548.530 L 1218.857,548.870 L 1217.422,549.562 L 1216.488,549.804 L 1215.840,550.309 L 1215.101,550.348 L 1215.125,550.198 L 1214.827,550.066 L 1214.235,550.188 L 1213.197,550.818 L 1213.246,551.197 L 1213.508,551.319 L 1213.739,551.684 L 1212.750,551.989 L 1212.541,552.369 L 1212.712,552.752 L 1212.545,553.411 L 1212.052,553.879 L 1211.302,553.802 L 1211.125,553.875 L 1211.018,553.972 L 1211.182,554.535 L 1210.828,554.673 L 1210.276,554.563 L 1209.267,553.614 L 1208.819,553.897 L 1208.387,553.787 L 1208.084,553.860 L 1206.880,552.940 L 1206.454,552.370 L 1205.837,552.554 L 1205.057,552.618 L 1204.279,552.936 L 1204.004,552.774 L 1203.631,552.790 L 1202.853,552.330 L 1202.421,552.231 L 1202.477,552.158 L 1202.082,552.164 L 1202.102,551.719 L 1201.858,551.642 L 1201.443,550.836 L 1201.590,550.768 L 1201.548,550.221 L 1201.167,550.294 L 1200.766,549.950 L 1200.258,549.983 L 1199.929,549.642 L 1200.105,549.500 L 1200.044,549.365 L 1199.547,549.379 L 1199.961,548.703 L 1199.374,548.460 L 1199.096,548.182 L 1198.389,547.942 L 1198.174,548.033 L 1197.580,547.465 L 1197.535,547.175 L 1197.256,547.139 L 1196.894,546.391 L 1197.240,545.886 L 1197.104,545.766 L 1196.267,545.407 L 1196.084,545.543 L 1193.697,545.552 L 1193.401,545.103 L 1192.967,544.856 L 1192.860,545.076 L 1191.950,545.550 L 1190.389,545.591 L 1189.976,544.898 L 1189.667,543.799 L 1188.978,543.558 L 1189.005,542.948 L 1188.594,542.770 L 1188.007,542.961 L 1187.958,542.864 L 1187.672,542.874 L 1187.669,542.565 L 1188.665,541.782 L 1188.715,541.478 L 1188.203,540.986 L 1188.530,540.526 L 1188.225,540.336 L 1188.275,540.072 L 1188.065,540.058 L 1188.462,539.408 L 1188.452,539.157 L 1188.247,539.119 L 1188.254,538.881 L 1188.038,538.673 L 1188.349,538.261 L 1188.029,537.767 L 1187.324,537.939 L 1187.010,537.582 L 1187.424,537.424 L 1188.404,536.692 L 1189.088,536.404 L 1189.103,535.898 L 1190.022,535.760 L 1190.227,535.540 L 1189.208,533.942 L 1188.565,533.472 L 1188.688,533.388 L 1188.388,533.048 L 1188.441,532.884 L 1188.250,532.837 L 1188.507,532.588 L 1188.294,532.150 L 1187.384,532.077 L 1186.184,531.546 L 1185.786,531.236 L 1185.896,531.033 L 1185.561,530.691 L 1185.655,530.465 L 1185.928,530.436 L 1184.877,527.074 L 1184.942,526.585 L 1183.634,524.770 L 1178.866,526.155 L 1173.274,527.505 L 1171.218,527.813 L 1170.343,527.695 L 1170.217,527.601 L 1170.135,527.582 L 1169.823,527.392 L 1170.140,527.599 L 1170.230,527.624 L 1170.296,527.690 L 1170.212,527.739 L 1170.345,527.863 L 1170.872,527.934 L 1170.546,528.032 L 1170.792,528.315 L 1170.516,528.274 L 1170.451,528.077 L 1169.670,527.442 L 1169.250,527.543 L 1168.565,527.504 L 1168.397,527.292 L 1168.645,527.259 L 1168.447,527.270 L 1168.347,527.151 L 1162.344,528.132 L 1158.329,529.070 L 1157.656,529.002 L 1157.228,528.440 L 1156.971,528.365 L 1156.316,528.482 L 1155.383,528.138 L 1154.800,528.156 L 1154.803,528.635 L 1153.722,528.883 L 1153.727,529.295 L 1153.301,529.545 L 1153.304,529.793 L 1151.879,530.326 L 1151.734,530.466 L 1151.805,530.613 L 1151.123,530.830 L 1150.824,531.047 L 1150.320,530.927 L 1149.587,530.306 L 1150.343,530.952 L 1150.240,530.988 L 1149.393,530.299 L 1150.213,531.001 L 1150.064,531.099 L 1149.907,531.000 L 1149.636,531.161 L 1149.750,531.195 L 1149.690,531.215 L 1149.606,531.203 L 1149.581,531.236 L 1149.231,531.274 L 1149.473,531.253 L 1149.564,531.476 L 1149.788,531.494 L 1150.331,532.126 L 1150.756,532.341 L 1150.731,532.659 L 1151.308,532.923 L 1151.741,532.908 L 1151.633,533.081 L 1151.769,533.612 L 1151.975,533.849 L 1152.701,534.157 L 1152.910,535.161 L 1153.790,535.972 L 1153.888,536.821 L 1154.851,537.778 L 1155.296,538.849 L 1156.797,541.065 L 1156.908,541.875 L 1157.854,542.826 L 1157.707,543.243 L 1158.174,543.677 L 1158.028,544.110 L 1158.126,544.474 L 1158.558,544.882 L 1158.443,545.074 L 1158.585,545.765 L 1158.833,545.643 L 1158.972,545.804 L 1159.041,545.689 L 1160.005,546.120 L 1161.419,547.353 L 1162.855,547.864 L 1163.102,547.853 L 1163.602,547.569 L 1164.212,547.543 L 1164.282,548.300 L 1164.769,548.047 L 1165.570,547.842 L 1166.068,547.526 L 1166.203,547.874 L 1168.294,547.985 L 1170.409,548.721 L 1170.470,548.528 L 1170.215,548.430 L 1170.068,548.287 L 1170.200,548.223 L 1169.927,548.069 L 1170.505,547.721 L 1170.665,547.816 L 1170.804,547.746 L 1171.363,548.044 L 1171.180,548.171 L 1171.958,548.307 L 1172.388,548.534 L 1172.599,548.449 L 1173.097,548.792 L 1172.779,548.999 L 1173.526,549.079 L 1173.224,549.405 L 1172.649,549.225 L 1172.028,549.787 L 1171.495,549.792 L 1170.954,550.212 L 1170.457,549.895 L 1170.072,550.224 L 1169.918,550.221 L 1169.956,550.321 L 1168.683,550.943 L 1168.052,551.081 L 1168.247,551.250 L 1168.015,551.336 L 1168.282,552.020 L 1168.955,552.026 L 1169.060,552.176 L 1168.798,552.382 L 1168.948,552.609 L 1169.962,553.350 L 1171.259,554.026 L 1171.723,554.134 L 1169.920,555.253 L 1170.201,555.393 L 1169.945,555.518 L 1170.557,555.714 L 1170.454,555.856 L 1170.762,555.991 L 1170.656,556.165 L 1170.767,556.238 L 1170.958,556.323 L 1171.414,556.230 L 1171.447,556.096 L 1172.011,555.781 L 1172.919,555.488 L 1172.866,555.608 L 1173.356,556.272 L 1173.542,556.443 L 1173.739,556.360 L 1173.887,556.690 L 1174.294,556.693 L 1174.849,557.345 L 1176.451,557.578 L 1176.695,557.830 L 1177.635,558.176 L 1178.185,558.738 L 1178.582,558.797 L 1178.589,558.907 L 1179.134,559.201 L 1179.254,559.114 L 1179.258,559.225 L 1179.867,559.219 L 1179.952,559.332 L 1180.690,559.058 L 1180.893,559.086 L 1180.879,558.973 L 1181.274,558.907 L 1181.475,558.996 L 1181.839,558.581 L 1182.078,558.572 L 1182.002,558.471 L 1182.691,558.367 L 1182.754,558.546 L 1183.134,558.577 L 1182.866,558.712 L 1183.076,558.829 L 1182.878,558.901 L 1183.058,559.013 L 1182.956,559.320 L 1183.426,559.434 L 1183.619,559.745 L 1183.769,559.640 L 1184.308,559.702 L 1184.420,559.458 L 1184.648,559.429 L 1185.045,559.792 L 1185.299,559.627 L 1184.972,559.324 L 1185.207,559.137 L 1185.770,559.180 L 1185.977,559.343 L 1186.291,559.152 L 1186.281,559.029 L 1186.495,559.096 L 1186.466,558.961 L 1186.729,558.744 L 1187.073,558.752 L 1187.012,559.092 L 1187.222,559.036 L 1187.175,559.229 L 1187.377,559.278 L 1187.827,559.316 L 1188.292,559.056 L 1188.847,559.022 L 1188.811,559.588 L 1189.196,559.723 L 1189.653,559.675 L 1189.511,559.790 L 1190.055,560.317 L 1191.045,559.940 L 1191.725,559.863 L 1192.131,559.971 L 1192.410,559.816 L 1193.404,559.713 L 1193.359,558.789 L 1193.546,558.932 L 1193.930,558.914 L 1194.122,559.198 L 1194.792,559.099 L 1194.979,559.489 L 1195.732,559.448 L 1196.256,559.226 L 1196.398,559.382 L 1196.489,559.324 L 1197.071,559.624 L 1196.714,559.978 L 1197.135,560.553 L 1197.550,560.673 L 1198.024,561.033 L 1198.261,560.921 L 1198.739,561.290 L 1199.168,561.119 L 1198.929,560.664 L 1199.429,560.481 L 1199.613,560.238 L 1199.405,560.079 L 1199.242,559.550 L 1199.452,559.528 L 1199.620,559.795 L 1199.858,559.745 L 1199.773,558.980 L 1200.580,559.145 L 1201.143,559.412 L 1201.338,559.315 L 1201.754,559.519 L 1202.241,559.104 L 1200.283,557.949 L 1199.720,557.816 L 1200.045,557.165 L 1200.823,556.736 L 1201.660,556.742 L 1202.345,556.951 L 1202.762,556.898 L 1203.563,556.434 L 1204.413,557.025 L 1204.681,556.931 L 1205.776,557.305 L 1208.080,559.295 L 1207.497,559.570 L 1207.404,559.471 L 1207.008,559.655 L 1206.684,559.533 L 1206.482,559.716 L 1206.081,559.396 L 1205.424,559.970 L 1203.300,561.137 L 1202.773,562.088 L 1202.008,562.914 L 1202.717,563.168 L 1203.424,563.214 L 1203.453,563.644 L 1203.691,563.631 L 1204.070,564.313 L 1203.775,564.570 L 1203.894,564.685 L 1203.631,564.831 L 1204.116,565.105 L 1203.816,565.298 L 1203.999,565.386 L 1203.822,565.464 L 1202.999,565.304 L 1202.403,565.466 L 1202.880,566.146 L 1202.974,566.586 L 1202.755,566.744 L 1202.722,566.975 L 1202.837,567.114 L 1203.331,567.146 L 1203.663,566.986 L 1204.788,567.271 L 1207.430,566.947 L 1209.380,566.340 L 1209.316,566.738 L 1209.663,566.965 L 1208.861,568.019 L 1209.078,568.135 L 1208.992,568.604 L 1209.560,568.603 L 1209.720,568.867 L 1209.367,568.941 L 1209.728,569.093 L 1209.956,568.933 L 1210.480,569.161 L 1210.733,568.924 L 1211.143,569.210 L 1212.409,568.593 L 1212.681,568.636 L 1213.257,568.492 L 1213.331,568.557 L 1213.781,568.338 L 1213.931,568.422 L 1214.143,568.258 L 1214.735,568.493 L 1214.821,568.395 L 1215.194,568.436 L 1215.237,568.235 L 1217.376,569.410 L 1217.657,569.521 L 1217.912,569.428 L 1218.239,569.559 L 1219.095,570.130 L 1219.076,570.250 L 1220.059,570.393 L 1220.255,570.698 L 1220.031,570.777 L 1219.793,570.502 L 1219.505,570.551 L 1219.404,571.034 L 1219.546,571.078 L 1219.208,571.228 L 1219.060,571.495 L 1219.334,571.693 L 1219.108,571.799 L 1218.934,572.207 L 1218.725,572.123 L 1218.433,572.398 L 1218.780,572.769 L 1218.878,572.688 L 1219.386,572.768 L 1219.001,573.112 L 1219.182,573.309 L 1219.143,573.557 L 1219.813,573.483 L 1220.248,573.314 L 1220.756,573.590 L 1221.226,573.011 L 1221.826,572.659 L 1222.952,572.306 L 1223.116,572.380 L 1222.858,573.150 L 1223.039,573.268 L 1223.179,573.211 L 1223.663,573.400 L 1223.748,573.302 L 1224.060,573.417 L 1223.483,573.844 L 1223.085,574.796 L 1221.621,574.777 L 1221.230,575.032 L 1220.828,574.990 L 1220.738,575.280 L 1220.202,575.545 L 1220.031,576.071 L 1219.649,576.217 L 1219.418,576.161 L 1218.937,576.507 L 1218.786,576.445 L 1218.697,576.556 L 1218.633,576.495 L 1218.005,576.733 L 1217.924,576.640 L 1217.343,576.736 L 1217.251,576.540 L 1216.955,576.674 L 1216.361,576.443 L 1217.164,577.026 L 1217.300,577.638 L 1217.532,577.673 L 1217.392,578.260 L 1217.692,578.298 L 1218.135,578.754 L 1218.270,579.248 L 1218.569,579.296 L 1218.643,579.542 L 1218.399,579.654 L 1218.525,579.883 L 1218.934,579.778 L 1219.681,580.198 L 1220.077,580.246 L 1220.254,580.564 L 1220.812,580.948 L 1221.437,580.817 L 1221.651,580.931 L 1222.594,581.892 L 1222.444,582.093 L 1222.766,582.454 L 1222.953,582.439 L 1222.794,582.540 L 1223.099,582.723 L 1223.422,582.733 L 1223.408,582.943 L 1223.774,583.018 L 1224.269,583.429 L 1223.798,583.704 L 1223.137,583.871 L 1222.833,583.527 L 1222.828,583.624 L 1222.669,583.540 L 1222.780,583.693 L 1222.634,583.993 L 1222.376,584.117 L 1222.008,584.118 L 1221.960,584.232 L 1222.115,584.247 L 1221.496,584.743 L 1222.126,585.090 L 1221.850,585.144 L 1221.737,585.352 L 1222.029,585.452 L 1222.060,585.611 L 1221.189,585.602 L 1220.966,585.207 L 1220.525,585.171 L 1219.087,585.477 L 1219.141,585.587 L 1218.837,585.646 L 1219.197,586.166 L 1219.026,586.204 L 1219.053,586.354 L 1218.719,586.611 L 1219.636,587.029 L 1219.677,586.784 L 1219.929,586.655 L 1220.087,586.815 L 1220.185,586.751 L 1220.456,586.836 L 1220.747,586.485 L 1221.572,585.937 L 1222.547,586.373 L 1223.839,586.200 L 1224.058,586.357 L 1225.311,586.579 L 1225.878,586.560 L 1227.276,586.830 L 1227.560,586.766 L 1228.514,586.905 L 1229.157,587.101 L 1228.864,587.211 L 1229.201,587.323 L 1228.967,587.928 L 1229.256,588.062 L 1229.000,588.322 L 1229.824,588.584 L 1230.136,588.435 L 1230.098,588.710 L 1230.655,588.519 L 1230.828,588.687 L 1231.155,588.691 L 1231.213,589.021 L 1231.427,589.152 L 1231.337,589.371 L 1231.533,589.448 L 1231.666,589.223 L 1231.857,589.273 L 1231.994,589.159 L 1232.063,589.330 L 1231.860,589.494 L 1232.105,589.644 L 1231.220,590.115 L 1231.390,590.378 L 1230.539,590.455 L 1230.495,590.342 L 1230.046,590.410 L 1229.235,590.325 L 1228.679,590.366 L 1228.647,590.479 L 1228.348,590.522 L 1228.385,591.096 L 1228.111,591.256 L 1228.032,591.379 L 1228.173,591.412 L 1227.812,591.846 L 1229.011,592.154 L 1228.673,592.479 L 1229.409,592.940 L 1229.765,592.929 L 1229.824,593.015 L 1229.603,593.065 L 1229.704,593.206 L 1228.888,593.393 L 1228.950,593.479 L 1228.253,594.111 L 1228.283,594.328 L 1227.636,594.412 L 1227.202,594.276 L 1226.858,594.431 L 1226.653,594.231 L 1226.444,594.271 L 1226.493,594.438 L 1225.802,594.481 L 1225.523,594.679 L 1225.890,594.959 L 1226.034,594.917 L 1226.746,595.822 L 1227.810,596.040 L 1227.861,595.959 L 1228.192,596.115 L 1228.119,596.311 L 1227.752,596.318 L 1227.648,596.582 L 1227.263,596.547 L 1226.565,597.026 L 1226.340,596.919 L 1226.250,597.085 L 1226.030,597.019 L 1225.873,597.230 L 1225.709,597.203 L 1225.471,597.428 L 1225.279,597.430 L 1224.870,597.775 L 1225.393,598.015 L 1225.244,598.128 L 1225.490,598.078 L 1225.827,598.187 L 1225.680,598.455 L 1225.789,598.675 L 1225.908,598.631 L 1225.782,599.007 L 1225.904,598.924 L 1226.420,599.005 L 1226.281,599.535 L 1226.516,599.914 L 1225.706,600.963 L 1225.494,600.758 L 1225.373,600.965 L 1225.258,600.932 L 1225.383,600.650 L 1224.557,600.626 L 1224.491,600.865 L 1224.691,600.989 L 1224.487,600.982 L 1224.503,601.201 L 1224.701,601.197 L 1225.333,601.755 L 1225.195,601.876 L 1224.446,601.848 L 1224.379,602.143 L 1224.585,602.305 L 1224.200,602.605 L 1224.719,602.841 L 1225.056,602.930 L 1224.721,603.315 L 1225.354,603.435 L 1225.305,603.582 L 1226.079,603.744 L 1226.713,604.069 L 1226.496,604.301 L 1226.847,604.930 L 1227.293,604.857 L 1227.235,605.057 L 1227.999,605.071 L 1229.214,604.838 L 1229.005,605.503 L 1229.116,605.542 L 1229.295,605.333 L 1229.852,605.524 L 1230.510,605.309 L 1230.776,605.566 L 1230.922,606.001 L 1231.743,605.936 L 1232.707,605.600 L 1232.828,605.763 L 1232.830,605.646 L 1234.006,605.293 L 1234.582,604.863 L 1234.734,604.937 L 1234.784,604.723 L 1235.177,604.441 L 1235.587,604.801 L 1236.330,604.578 L 1236.404,604.778 L 1237.387,605.060 L 1237.375,604.484 L 1238.356,604.686 L 1238.893,605.255 L 1238.528,605.359 L 1238.780,605.540 L 1238.661,605.616 L 1238.845,605.815 L 1239.332,605.693 L 1239.476,605.871 L 1240.278,605.580 L 1241.522,605.394 L 1242.154,605.628 L 1242.751,605.699 L 1243.334,605.609 L 1243.537,605.219 L 1243.663,605.226 L 1243.694,604.907 L 1244.379,604.838 L 1244.336,604.290 L 1244.552,604.183 L 1244.884,604.236 L 1245.338,604.119 L 1245.976,604.204 L 1246.380,604.133 L 1246.579,604.217 L 1246.581,604.371 L 1246.759,604.333 L 1246.826,604.521 L 1247.259,604.593 L 1247.995,604.277 L 1248.680,604.589 L 1249.098,604.961 L 1249.663,604.708 L 1249.957,604.825 L 1250.313,605.050 L 1250.207,605.234 L 1252.261,605.196 L 1253.011,605.395 L 1253.321,605.267 L 1254.915,605.473 L 1255.337,605.208 L 1255.348,604.978 L 1255.501,605.050 L 1255.941,604.706 L 1256.158,604.200 L 1257.509,604.183 L 1257.830,604.085 L 1257.744,603.869 L 1257.905,603.805 L 1257.852,603.582 L 1258.030,603.448 L 1258.933,603.409 L 1258.784,603.164 L 1258.899,603.005 L 1258.630,602.913 L 1258.739,602.734 L 1258.941,602.822 L 1260.686,602.881 L 1261.587,603.336 L 1262.781,603.569 L 1263.651,604.267 L 1264.226,605.009 L 1265.032,604.584 L 1265.440,604.533 L 1265.606,604.221 L 1266.243,603.956 L 1267.324,604.385 L 1267.603,604.686 L 1267.861,603.948 L 1267.563,603.809 L 1267.095,603.871 L 1266.827,603.677 L 1267.525,603.531 L 1267.664,603.023 L 1268.077,602.754 L 1268.545,602.743 L 1269.137,602.479 L 1270.746,602.149 L 1271.852,601.657 L 1272.375,602.097 L 1273.394,602.374 L 1274.216,602.903 L 1274.549,602.900 L 1274.584,603.017 L 1275.312,602.932 L 1276.306,603.084 L 1276.543,603.434 L 1277.063,603.278 L 1278.087,603.241 L 1278.767,603.718 L 1279.424,603.962 L 1280.930,603.251 L 1281.943,603.957 L 1283.904,604.145 L 1284.205,604.399 L 1284.721,604.508 L 1284.814,604.621 L 1284.151,604.795 L 1285.009,605.191 L 1284.778,605.382 L 1284.838,606.178 L 1285.233,606.192 L 1285.431,605.718 L 1285.970,605.650 L 1286.666,605.347 L 1286.876,605.383 L 1287.486,604.880 L 1288.040,604.962 L 1289.173,604.618 L 1289.430,604.670 L 1289.554,604.892 L 1290.055,604.488 L 1290.593,604.345 L 1291.003,604.057 L 1291.316,604.112 L 1291.994,603.548 L 1292.610,603.809 L 1292.997,604.784 L 1291.812,606.689 L 1291.901,607.377 L 1293.731,607.190 L 1294.231,607.990 L 1294.961,607.937 L 1294.898,608.046 L 1295.725,608.225 L 1295.906,607.962 L 1297.864,608.051 L 1299.642,608.492 L 1299.501,609.032 L 1299.757,609.230 L 1300.590,608.995 L 1301.124,608.952 L 1301.308,609.090 L 1302.054,608.717 L 1302.477,608.901 L 1303.015,608.674 L 1303.419,608.698 L 1304.035,608.481 Z"/>
</g>
<g class="scale-bar"><line x1="1032.0" y1="660.0" x2="1138.6" y2="660.0"/><line x1="1032.0" y1="656.0" x2="1032.0" y2="664.0"/><line x1="1138.6" y1="656.0" x2="1138.6" y2="664.0"/><text x="1085.3" y="654.0" text-anchor="middle">≈100 km</text></g>
<rect x="312.9" y="1.0" width="277.1" height="99.1" class="focus-box"/>
<text x="315.9" y="14.0" class="focus-label">B</text>
</svg>
