<?xml version="1.0" encoding="UTF-8"?>
<svg xmlns="http://www.w3.org/2000/svg" width="1450" height="740" viewBox="0 0 1450 740">
<title>official-1444-reconstruction-v2 — france</title><desc>Deterministic M25 review: provinces, ownership, hierarchy, uncertainty, historical constraints with georeferencing control points and residuals, focus insets, and forbidden modern outlines as negative controls.</desc>
<style>text{font-family:sans-serif;font-size:10px;fill:#333}.sheet-title{font-size:16px;fill:#111}.panel-title{font-size:11px;font-weight:bold;fill:#111}.province{stroke:#222;stroke-width:.7;vector-effect:non-scaling-stroke}.constraint{fill:none;stroke-width:3;vector-effect:non-scaling-stroke}.hard-constraint{stroke:#111}.soft-evidence{stroke:#d28b00;stroke-dasharray:7 5}.forbidden-modern{stroke:#d00000;stroke-dasharray:2 4}.legend-province{fill:#8faf6f;fill-opacity:.75;stroke:#222;stroke-width:.7}.inset-frame{fill:#fdfcf7;stroke:#888;stroke-width:1}.focus-box{fill:none;stroke:#0050c8;stroke-width:1.2;stroke-dasharray:5 3}.focus-label{fill:#0050c8;font-weight:bold;font-size:11px}.control-point circle{fill:#0050c8;stroke:#fff;stroke-width:1}.control-point text{fill:#0050c8}.scale-bar line{stroke:#111;stroke-width:1.5}.scale-bar text{fill:#111}</style>
<defs><clipPath id="clip-main"><rect x="0" y="0" width="1000" height="740"/></clipPath><clipPath id="clip-inset-A"><rect x="1020.0" y="204.0" width="420.0" height="210.0"/></clipPath><clipPath id="clip-inset-B"><rect x="1020.0" y="462.0" width="420.0" height="210.0"/></clipPath></defs>
<rect width="1450" height="740" fill="#ffffff"/>
<rect width="1000" height="740" fill="#f7f3e8"/>
<text x="35" y="25" class="sheet-title">official-1444-reconstruction-v2 — france</text>
<g clip-path="url(#clip-main)">
<path class="province" id="prv_1f636f0396d03bf5e122" data-owner="county-of-provence" data-area="area-1444-county-of-provence" data-uncertainty="0.250" fill="#43fd75" fill-opacity="0.750" d="M 477.599,320.243 L 477.599,304.400 L 484.031,300.913 L 522.693,286.695 L 532.537,281.809 L 525.115,306.715 L 525.115,306.715 L 525.115,306.715 L 477.599,320.243 Z"/>
<path class="province" id="prv_236f173aa0da3ff3f50e" data-owner="county-of-provence" data-area="area-1444-county-of-provence" data-uncertainty="0.250" fill="#43fd75" fill-opacity="0.750" d="M 607.314,328.151 L 679.157,285.623 L 761.457,307.211 L 771.740,371.333 L 813.009,382.247 L 699.868,413.815 L 612.546,360.299 L 607.314,328.151 Z"/>
<path class="province" id="prv_29bb286d3668cebb7098" data-owner="kingdom-of-france" data-area="area-1444-kingdom-of-france" data-uncertainty="0.250" fill="#74e9e0" fill-opacity="0.750" d="M 453.518,349.344 L 477.599,335.005 L 477.599,357.912 L 473.552,374.624 L 461.237,396.095 L 453.518,349.344 Z"/>
<path class="province" id="prv_2e4aeef24c149f799e73" data-owner="kingdom-of-france" data-area="area-1444-kingdom-of-france" data-uncertainty="0.250" fill="#74e9e0" fill-opacity="0.750" d="M 267.802,179.231 L 339.335,136.513 L 421.678,157.633 L 432.312,221.479 L 360.747,264.152 L 278.580,243.024 L 267.802,179.231 Z"/>
<path class="province" id="prv_3861cd67a056ea344dd1" data-owner="county-of-provence" data-area="area-1444-county-of-provence" data-uncertainty="0.250" fill="#43fd75" fill-opacity="0.750" d="M 485.165,541.573 L 556.580,498.936 L 638.533,520.536 L 638.658,521.312 L 549.014,574.525 L 548.427,570.554 L 543.790,559.443 L 536.142,546.646 L 525.844,535.746 L 513.017,530.145 L 513.017,534.722 L 535.058,560.256 L 538.310,568.024 L 538.310,580.879 L 496.167,605.895 L 495.672,605.764 L 485.165,541.573 Z"/>
<path class="province" id="prv_433ad339646e29a54ed0" data-owner="county-of-provence" data-area="area-1444-county-of-provence" data-uncertainty="0.250" fill="#43fd75" fill-opacity="0.750" d="M 477.599,335.005 L 477.599,320.243 L 525.115,306.715 L 525.115,306.715 L 477.599,335.005 Z"/>
<path class="province" id="prv_4d05d067e4cfdd029f74" data-owner="kingdom-of-france" data-area="area-1444-kingdom-of-france" data-uncertainty="0.250" fill="#74e9e0" fill-opacity="0.750" d="M -147.016,500.404 L -98.640,329.828 L 125.201,264.820 L 300.070,370.786 L 250.396,541.561 L 137.725,574.169 L 96.928,563.600 L 96.105,561.852 L 76.954,550.289 L 34.137,547.128 L 33.553,547.182 L -147.016,500.404 Z"/>
<path class="province" id="prv_62bd7fdf1552fa86157c" data-owner="kingdom-of-france" data-area="area-1444-kingdom-of-france" data-uncertainty="0.250" fill="#74e9e0" fill-opacity="0.750" d="M 328.596,72.781 L 400.344,30.118 L 575.905,136.288 L 493.458,115.015 L 421.678,157.633 L 339.335,136.513 L 328.596,72.781 Z"/>
<path class="province" id="prv_6485f291d164d69a7fa4" data-owner="kingdom-of-france" data-area="area-1444-kingdom-of-france" data-uncertainty="0.250" fill="#74e9e0" fill-opacity="0.750" d="M 149.957,179.649 L 174.683,94.581 L 400.344,30.118 L 328.596,72.781 L 339.335,136.513 L 267.802,179.231 L 185.565,158.261 L 149.957,179.649 Z"/>
<path class="province" id="prv_7067ef9dbcdb8cac9db8" data-owner="kingdom-of-france" data-area="area-1444-kingdom-of-france" data-uncertainty="0.250" fill="#74e9e0" fill-opacity="0.750" d="M 360.747,264.152 L 432.312,221.479 L 514.584,242.757 L 550.525,221.450 L 532.537,281.809 L 522.693,286.695 L 484.031,300.913 L 477.599,304.400 L 477.599,320.243 L 412.625,338.741 L 371.421,328.058 L 360.747,264.152 Z"/>
<path class="province" id="prv_79c359cf76be0bff426d" data-owner="kingdom-of-france" data-area="area-1444-kingdom-of-france" data-uncertainty="0.250" fill="#74e9e0" fill-opacity="0.750" d="M 400.344,30.118 L 450.949,-139.764 L 563.590,-171.401 L 854.679,-97.280 L 890.323,126.349 L 802.755,72.781 L 575.905,136.288 L 400.344,30.118 Z"/>
<path class="province" id="prv_7e338b50b0c9ee192d0c" data-owner="kingdom-of-france" data-area="area-1444-kingdom-of-france" data-uncertainty="0.250" fill="#74e9e0" fill-opacity="0.750" d="M 275.248,456.123 L 300.070,370.786 L 477.599,320.243 L 477.599,335.005 L 453.518,349.344 L 461.237,396.095 L 451.512,413.051 L 452.945,420.026 L 392.705,456.045 L 310.783,434.753 L 275.248,456.123 Z"/>
<path class="province" id="prv_9d8a10144cd54124d90b" data-owner="kingdom-of-france" data-area="area-1444-kingdom-of-france" data-uncertainty="0.250" fill="#74e9e0" fill-opacity="0.750" d="M 125.201,264.820 L 149.957,179.649 L 185.565,158.261 L 267.802,179.231 L 278.580,243.024 L 207.262,285.797 L 212.689,317.835 L 125.201,264.820 Z"/>
<path class="province" id="prv_a334845bd2767433c834" data-owner="county-of-provence" data-area="area-1444-county-of-provence" data-uncertainty="0.250" fill="#43fd75" fill-opacity="0.750" d="M 525.115,306.715 L 575.905,136.288 L 575.905,136.288 L 586.396,200.184 L 668.770,221.614 L 679.157,285.623 L 607.314,328.151 L 612.546,360.299 L 525.115,306.715 Z"/>
<path class="province" id="prv_ab9b0b983201db896fbe" data-owner="county-of-provence" data-area="area-1444-county-of-provence" data-uncertainty="0.250" fill="#43fd75" fill-opacity="0.750" d="M 451.512,413.051 L 461.237,396.095 L 464.088,413.363 L 452.945,420.026 L 451.512,413.051 Z"/>
<path class="province" id="prv_ae5faaed835983b59731" data-owner="county-of-provence" data-area="area-1444-county-of-provence" data-uncertainty="0.250" fill="#43fd75" fill-opacity="0.750" d="M 548.427,626.620 L 550.294,583.200 L 549.014,574.525 L 926.081,350.697 L 1502.456,506.153 L 1559.548,896.326 L 1547.051,897.322 L 1511.967,900.796 L 1499.006,900.806 L 1491.245,885.457 L 1472.902,882.933 L 1448.423,883.066 L 1430.249,874.611 L 1432.055,870.275 L 1433.320,863.139 L 1435.307,859.496 L 1423.142,859.255 L 1411.339,861.513 L 1389.780,869.553 L 1402.246,873.256 L 1412.872,889.699 L 1425.187,893.845 L 1443.040,899.487 L 1434.833,906.197 L 1417.754,904.841 L 1396.108,905.223 L 1386.769,907.763 L 1372.908,925.497 L 1345.051,919.103 L 1323.799,906.921 L 1317.606,900.123 L 1333.163,892.891 L 1344.403,885.344 L 1339.504,879.693 L 1331.438,875.902 L 1318.741,873.868 L 1316.842,867.403 L 1313.354,861.870 L 1301.833,861.003 L 1287.369,860.944 L 1254.281,849.982 L 1247.898,833.721 L 1237.720,825.552 L 1223.884,821.333 L 1208.337,820.120 L 1199.968,827.892 L 1192.211,839.953 L 1174.334,834.366 L 1162.823,833.500 L 1152.661,824.303 L 1143.982,815.215 L 1137.018,805.202 L 1127.485,801.324 L 1119.628,804.942 L 1112.110,806.482 L 1079.297,804.366 L 1064.438,805.012 L 1042.061,802.314 L 1031.550,801.538 L 1013.070,804.854 L 995.785,798.905 L 998.461,785.815 L 1000.810,778.257 L 1006.049,770.729 L 1012.192,758.565 L 1003.454,751.215 L 1002.436,742.546 L 999.365,738.210 L 989.793,711.296 L 956.708,695.621 L 915.346,715.920 L 859.816,714.977 L 831.648,717.601 L 786.968,715.936 L 764.196,710.417 L 749.333,693.809 L 743.143,676.266 L 758.359,655.767 L 781.303,646.342 L 847.185,646.342 L 867.661,641.735 L 881.752,633.425 L 897.049,619.875 L 906.503,603.254 L 903.914,585.729 L 882.294,596.118 L 861.518,601.628 L 842.609,599.189 L 826.650,585.729 L 821.531,574.348 L 821.049,568.024 L 817.255,564.230 L 801.899,560.436 L 796.298,559.895 L 778.774,560.436 L 775.703,557.998 L 765.164,547.429 L 760.587,545.321 L 755.529,550.048 L 750.771,559.985 L 747.158,570.102 L 745.893,575.612 L 749.868,589.614 L 756.552,595.726 L 765.525,599.339 L 776.245,605.904 L 785.097,624.452 L 776.847,641.013 L 759.443,650.106 L 737.885,651.792 L 726.502,650.046 L 686.093,632.973 L 667.364,639.266 L 659.536,643.903 L 641.469,646.794 L 634.243,651.401 L 628.221,661.608 L 631.713,665.493 L 639.039,679.024 L 640.993,688.487 L 665.764,687.116 L 648.140,699.091 L 632.296,705.753 L 628.629,693.063 L 615.634,676.001 L 584.921,663.325 L 559.809,646.131 L 548.427,626.620 Z"/>
<path class="province" id="prv_bd0320fca2e552b24518" data-owner="kingdom-of-france" data-area="area-1444-kingdom-of-france" data-uncertainty="0.250" fill="#74e9e0" fill-opacity="0.750" d="M 207.262,285.797 L 278.580,243.024 L 360.747,264.152 L 371.421,328.058 L 412.625,338.741 L 300.070,370.786 L 212.689,317.835 L 212.689,317.835 L 207.262,285.797 Z"/>
<path class="province" id="prv_c98836d53c70cfc9c24c" data-owner="county-of-provence" data-area="area-1444-county-of-provence" data-uncertainty="0.250" fill="#43fd75" fill-opacity="0.750" d="M 392.705,456.045 L 464.088,413.363 L 546.113,434.805 L 556.580,498.936 L 485.165,541.573 L 403.314,520.124 L 392.705,456.045 Z"/>
<path class="province" id="prv_d29d13b36aa49bef4b01" data-owner="county-of-provence" data-area="area-1444-county-of-provence" data-uncertainty="0.250" fill="#43fd75" fill-opacity="0.750" d="M 546.113,434.805 L 617.741,392.222 L 699.868,413.815 L 926.081,350.697 L 549.014,574.525 L 638.658,521.312 L 638.533,520.536 L 556.580,498.936 L 546.113,434.805 Z"/>
<path class="province" id="prv_dea819013cfffb8803ac" data-owner="county-of-provence" data-area="area-1444-county-of-provence" data-uncertainty="0.250" fill="#43fd75" fill-opacity="0.750" d="M 461.237,396.095 L 473.552,374.624 L 477.599,357.912 L 477.599,335.005 L 525.115,306.715 L 525.115,306.715 L 699.868,413.815 L 617.741,392.222 L 546.113,434.805 L 464.088,413.363 L 461.237,396.095 Z"/>
<path class="province" id="prv_ef03dbca4c39f9695ee5" data-owner="kingdom-of-france" data-area="area-1444-kingdom-of-france" data-uncertainty="0.250" fill="#74e9e0" fill-opacity="0.750" d="M 421.678,157.633 L 493.458,115.015 L 575.905,136.288 L 550.525,221.450 L 514.584,242.757 L 432.312,221.479 L 421.678,157.633 Z"/>
<path class="constraint hard-constraint" id="frontier-rhone-languedoc-provence" d="M 477.155,359.744 L 476.839,361.055"/>
</g>
<g class="scale-bar"><line x1="12.0" y1="728.0" x2="104.1" y2="728.0"/><line x1="12.0" y1="724.0" x2="12.0" y2="732.0"/><line x1="104.1" y1="724.0" x2="104.1" y2="732.0"/><text x="58.0" y="722.0" text-anchor="middle">≈10 km</text></g>
<text x="1020.0" y="30.0" class="panel-title">Legend</text><rect x="1020.0" y="40.0" width="18" height="10" class="legend-province"/><text x="1044.0" y="49.0">province (fill = owner colour, opacity = 1 − uncertainty)</text><line x1="1020.0" y1="62.0" x2="1038.0" y2="62.0" class="constraint hard-constraint"/><text x="1044.0" y="66.0">hard constraint (certified frontier sub-segment)</text><line x1="1020.0" y1="79.0" x2="1038.0" y2="79.0" class="constraint soft-evidence"/><text x="1044.0" y="83.0">soft evidence</text><line x1="1020.0" y1="96.0" x2="1038.0" y2="96.0" class="constraint forbidden-modern"/><text x="1044.0" y="100.0">forbidden modern outline (negative control; excluded from framing)</text><g class="control-point"><circle cx="1029.0" cy="113.0" r="3.2"/></g><text x="1044.0" y="117.0">georeferencing control point (name, residual km)</text><rect x="1020.0" y="125.0" width="18" height="10" class="focus-box"/><text x="1044.0" y="134.0">inset frame on the main map</text>
<text x="1020.0" y="182.0" class="panel-title">Inset A — frontier-rhone-languedoc-provence (hard constraint)</text>
<text x="1020.0" y="196.0" class="panel-title">vector-substring-wgs84 @ EPSG:4326; max residual 2.791 km ≤ budget 6 km</text>
<rect x="1020.0" y="204.0" width="420.0" height="210.0" class="inset-frame"/>
<g clip-path="url(#clip-inset-A)">
<path class="province" data-owner="county-of-provence" data-area="area-1444-county-of-provence" data-uncertainty="0.250" fill="#43fd75" fill-opacity="0.750" d="M 1213.679,272.748 L 1213.679,261.205 L 1218.365,258.664 L 1246.534,248.305 L 1253.706,244.745 L 1248.298,262.892 L 1248.298,262.892 L 1248.298,262.892 L 1213.679,272.748 Z"/>
<path class="province" data-owner="county-of-provence" data-area="area-1444-county-of-provence" data-uncertainty="0.250" fill="#43fd75" fill-opacity="0.750" d="M 1308.187,278.510 L 1360.531,247.525 L 1420.493,263.253 L 1427.986,309.971 L 1458.053,317.923 L 1375.621,340.923 L 1311.999,301.932 L 1308.187,278.510 Z"/>
<path class="province" data-owner="kingdom-of-france" data-area="area-1444-kingdom-of-france" data-uncertainty="0.250" fill="#74e9e0" fill-opacity="0.750" d="M 1196.134,293.950 L 1213.679,283.503 L 1213.679,300.193 L 1210.731,312.369 L 1201.758,328.012 L 1196.134,293.950 Z"/>
<path class="province" data-owner="kingdom-of-france" data-area="area-1444-kingdom-of-france" data-uncertainty="0.250" fill="#74e9e0" fill-opacity="0.750" d="M 1060.824,170.008 L 1112.942,138.885 L 1172.936,154.273 L 1180.684,200.790 L 1128.543,231.881 L 1068.677,216.488 L 1060.824,170.008 Z"/>
<path class="province" data-owner="county-of-provence" data-area="area-1444-county-of-provence" data-uncertainty="0.250" fill="#43fd75" fill-opacity="0.750" d="M 1219.192,434.006 L 1271.224,402.941 L 1330.933,418.678 L 1331.024,419.243 L 1265.711,458.014 L 1265.283,455.120 L 1261.905,447.025 L 1256.333,437.701 L 1248.830,429.760 L 1239.484,425.679 L 1239.484,429.014 L 1255.543,447.618 L 1257.912,453.278 L 1257.912,462.643 L 1227.207,480.869 L 1226.847,480.774 L 1219.192,434.006 Z"/>
<path class="province" data-owner="county-of-provence" data-area="area-1444-county-of-provence" data-uncertainty="0.250" fill="#43fd75" fill-opacity="0.750" d="M 1213.679,283.503 L 1213.679,272.748 L 1248.298,262.892 L 1248.298,262.892 L 1213.679,283.503 Z"/>
<path class="province" data-owner="kingdom-of-france" data-area="area-1444-kingdom-of-france" data-uncertainty="0.250" fill="#74e9e0" fill-opacity="0.750" d="M 1128.543,231.881 L 1180.684,200.790 L 1240.626,216.293 L 1266.812,200.768 L 1253.706,244.745 L 1246.534,248.305 L 1218.365,258.664 L 1213.679,261.205 L 1213.679,272.748 L 1166.340,286.225 L 1136.319,278.442 L 1128.543,231.881 Z"/>
<path class="province" data-owner="kingdom-of-france" data-area="area-1444-kingdom-of-france" data-uncertainty="0.250" fill="#74e9e0" fill-opacity="0.750" d="M 1066.249,371.748 L 1084.334,309.573 L 1213.679,272.748 L 1213.679,283.503 L 1196.134,293.950 L 1201.758,328.012 L 1194.672,340.366 L 1195.716,345.448 L 1151.826,371.691 L 1092.139,356.178 L 1066.249,371.748 Z"/>
<path class="province" data-owner="county-of-provence" data-area="area-1444-county-of-provence" data-uncertainty="0.250" fill="#43fd75" fill-opacity="0.750" d="M 1248.298,262.892 L 1285.303,138.721 L 1285.303,138.721 L 1292.947,185.275 L 1352.963,200.888 L 1360.531,247.525 L 1308.187,278.510 L 1311.999,301.932 L 1248.298,262.892 Z"/>
<path class="province" data-owner="county-of-provence" data-area="area-1444-county-of-provence" data-uncertainty="0.250" fill="#43fd75" fill-opacity="0.750" d="M 1194.672,340.366 L 1201.758,328.012 L 1203.835,340.593 L 1195.716,345.448 L 1194.672,340.366 Z"/>
<path class="province" data-owner="county-of-provence" data-area="area-1444-county-of-provence" data-uncertainty="0.250" fill="#43fd75" fill-opacity="0.750" d="M 1265.283,495.969 L 1266.644,464.334 L 1265.711,458.014 L 1540.436,294.936 L 1960.374,408.199 L 2001.970,692.473 L 1992.865,693.199 L 1967.304,695.730 L 1957.861,695.737 L 1952.206,684.554 L 1938.842,682.715 L 1921.006,682.812 L 1907.765,676.652 L 1909.081,673.493 L 1910.003,668.294 L 1911.451,665.639 L 1902.588,665.464 L 1893.988,667.109 L 1878.280,672.967 L 1887.362,675.665 L 1895.104,687.645 L 1904.077,690.666 L 1917.085,694.776 L 1911.105,699.665 L 1898.662,698.677 L 1882.890,698.955 L 1876.086,700.806 L 1865.987,713.727 L 1845.691,709.068 L 1830.207,700.193 L 1825.695,695.239 L 1837.030,689.970 L 1845.219,684.472 L 1841.650,680.355 L 1835.773,677.592 L 1826.522,676.110 L 1825.139,671.400 L 1822.597,667.369 L 1814.203,666.738 L 1803.665,666.694 L 1779.558,658.708 L 1774.907,646.860 L 1767.491,640.909 L 1757.411,637.835 L 1746.084,636.951 L 1739.986,642.613 L 1734.335,651.400 L 1721.309,647.330 L 1712.923,646.699 L 1705.519,639.998 L 1699.195,633.377 L 1694.122,626.081 L 1687.176,623.256 L 1681.452,625.892 L 1675.974,627.014 L 1652.067,625.472 L 1641.241,625.943 L 1624.938,623.977 L 1617.279,623.412 L 1603.815,625.828 L 1591.222,621.493 L 1593.171,611.956 L 1594.883,606.450 L 1598.700,600.965 L 1603.175,592.102 L 1596.809,586.747 L 1596.067,580.431 L 1593.830,577.272 L 1586.856,557.663 L 1562.751,546.242 L 1532.615,561.032 L 1492.156,560.345 L 1471.634,562.257 L 1439.081,561.044 L 1422.489,557.023 L 1411.660,544.922 L 1407.151,532.140 L 1418.236,517.205 L 1434.953,510.339 L 1482.954,510.339 L 1497.872,506.982 L 1508.139,500.927 L 1519.284,491.055 L 1526.172,478.945 L 1524.286,466.177 L 1508.534,473.746 L 1493.397,477.761 L 1479.619,475.984 L 1467.992,466.177 L 1464.263,457.885 L 1463.912,453.278 L 1461.147,450.513 L 1449.959,447.749 L 1445.878,447.354 L 1433.110,447.749 L 1430.873,445.972 L 1423.194,438.272 L 1419.860,436.736 L 1416.174,440.180 L 1412.708,447.420 L 1410.075,454.791 L 1409.154,458.806 L 1412.050,469.007 L 1416.920,473.461 L 1423.458,476.093 L 1431.268,480.876 L 1437.717,494.390 L 1431.706,506.456 L 1419.026,513.081 L 1403.319,514.310 L 1395.026,513.037 L 1365.585,500.598 L 1351.939,505.183 L 1346.235,508.562 L 1333.072,510.668 L 1327.807,514.024 L 1323.420,521.461 L 1325.964,524.291 L 1331.302,534.150 L 1332.726,541.045 L 1350.773,540.046 L 1337.932,548.771 L 1326.389,553.625 L 1323.717,544.379 L 1314.249,531.948 L 1291.872,522.712 L 1273.576,510.185 L 1265.283,495.969 Z"/>
<path class="province" data-owner="kingdom-of-france" data-area="area-1444-kingdom-of-france" data-uncertainty="0.250" fill="#74e9e0" fill-opacity="0.750" d="M 1016.716,247.651 L 1068.677,216.488 L 1128.543,231.881 L 1136.319,278.442 L 1166.340,286.225 L 1084.334,309.573 L 1020.670,270.993 L 1020.670,270.993 L 1016.716,247.651 Z"/>
<path class="province" data-owner="county-of-provence" data-area="area-1444-county-of-provence" data-uncertainty="0.250" fill="#43fd75" fill-opacity="0.750" d="M 1151.826,371.691 L 1203.835,340.593 L 1263.597,356.216 L 1271.224,402.941 L 1219.192,434.006 L 1159.556,418.378 L 1151.826,371.691 Z"/>
<path class="province" data-owner="county-of-provence" data-area="area-1444-county-of-provence" data-uncertainty="0.250" fill="#43fd75" fill-opacity="0.750" d="M 1263.597,356.216 L 1315.785,325.191 L 1375.621,340.923 L 1540.436,294.936 L 1265.711,458.014 L 1331.024,419.243 L 1330.933,418.678 L 1271.224,402.941 L 1263.597,356.216 Z"/>
<path class="province" data-owner="county-of-provence" data-area="area-1444-county-of-provence" data-uncertainty="0.250" fill="#43fd75" fill-opacity="0.750" d="M 1201.758,328.012 L 1210.731,312.369 L 1213.679,300.193 L 1213.679,283.503 L 1248.298,262.892 L 1248.298,262.892 L 1375.621,340.923 L 1315.785,325.191 L 1263.597,356.216 L 1203.835,340.593 L 1201.758,328.012 Z"/>
<path class="province" data-owner="kingdom-of-france" data-area="area-1444-kingdom-of-france" data-uncertainty="0.250" fill="#74e9e0" fill-opacity="0.750" d="M 1172.936,154.273 L 1225.234,123.222 L 1285.303,138.721 L 1266.812,200.768 L 1240.626,216.293 L 1180.684,200.790 L 1172.936,154.273 Z"/>
<path class="constraint hard-constraint" d="M 1213.356,301.528 L 1213.125,302.483"/>
</g>
<g class="control-point"><circle cx="1267.7" cy="253.7" r="3.2"/><text x="1261.7" y="248.7" text-anchor="end">Barbentane (Durance confluence) (2.791 km)</text></g>
<g class="control-point"><circle cx="1212.2" cy="302.3" r="3.2"/><text x="1218.2" y="314.3" text-anchor="start">Beaucaire (0.144 km)</text></g>
<g class="control-point"><circle cx="1220.8" cy="303.3" r="3.2"/><text x="1226.8" y="298.3" text-anchor="start">Tarascon (1.175 km)</text></g>
<g class="control-point"><circle cx="1192.3" cy="364.3" r="3.2"/><text x="1198.3" y="376.3" text-anchor="start">Fourques (Petit Rhône diffluence) (0.569 km)</text></g>
<g class="scale-bar"><line x1="1032.0" y1="402.0" x2="1099.1" y2="402.0"/><line x1="1032.0" y1="398.0" x2="1032.0" y2="406.0"/><line x1="1099.1" y1="398.0" x2="1099.1" y2="406.0"/><text x="1065.5" y="396.0" text-anchor="middle">≈10 km</text></g>
<rect x="355.9" y="225.9" width="288.2" height="288.2" class="focus-box"/>
<text x="358.9" y="238.9" class="focus-label">A</text>
<text x="1020.0" y="440.0" class="panel-title">Inset B — forbidden-modern-nord-department</text>
<text x="1020.0" y="454.0" class="panel-title">negative control: modern outline vs 1444 provinces</text>
<rect x="1020.0" y="462.0" width="420.0" height="210.0" class="inset-frame"/>
<g clip-path="url(#clip-inset-B)">
<path class="province" data-owner="kingdom-of-france" data-area="area-1444-kingdom-of-france" data-uncertainty="0.150" fill="#74e9e0" fill-opacity="0.850" d="M 1081.293,646.848 L 1133.613,621.602 L 1194.697,642.291 L 1203.042,687.838 L 1151.560,712.933 L 1090.898,692.629 L 1081.293,646.848 Z"/>
<path class="constraint forbidden-modern" d="M 1220.971,594.842 L 1220.785,594.874 L 1220.964,595.458 L 1220.371,595.416 L 1220.237,595.499 L 1220.082,595.413 L 1219.915,595.505 L 1219.386,595.278 L 1219.061,595.416 L 1218.928,595.348 L 1218.870,595.530 L 1218.577,595.573 L 1218.671,595.668 L 1218.543,595.779 L 1218.217,595.548 L 1217.427,596.561 L 1217.743,596.873 L 1218.041,596.811 L 1218.140,597.089 L 1217.965,597.297 L 1218.137,597.472 L 1217.869,597.922 L 1218.695,598.208 L 1218.712,598.391 L 1219.355,598.115 L 1219.809,598.143 L 1220.705,597.053 L 1221.291,597.161 L 1221.389,596.911 L 1222.012,596.904 L 1222.988,597.188 L 1223.490,596.982 L 1223.279,596.918 L 1223.468,596.775 L 1223.194,596.643 L 1223.354,596.329 L 1223.153,596.239 L 1223.235,596.043 L 1223.036,595.779 L 1223.463,595.688 L 1223.398,595.593 L 1223.615,595.652 L 1223.602,595.327 L 1223.956,595.237 L 1224.267,595.315 L 1225.142,594.596 L 1224.756,594.495 L 1224.978,594.269 L 1224.746,594.247 L 1224.887,594.037 L 1224.688,593.937 L 1223.738,593.978 L 1222.398,593.764 L 1222.512,594.306 L 1222.338,594.259 L 1222.066,594.489 L 1221.672,594.370 L 1220.971,594.842 Z"/>
<path class="constraint forbidden-modern" d="M 1304.035,608.481 L 1304.251,608.424 L 1304.456,608.133 L 1304.975,608.050 L 1305.347,607.441 L 1305.631,607.276 L 1305.533,606.854 L 1305.312,606.743 L 1305.010,606.912 L 1304.295,606.610 L 1304.459,606.457 L 1304.208,606.390 L 1304.063,606.470 L 1304.257,606.258 L 1303.856,606.199 L 1303.536,605.757 L 1303.589,605.331 L 1304.193,604.774 L 1304.272,604.514 L 1304.550,604.453 L 1304.847,603.894 L 1305.570,603.179 L 1306.450,603.469 L 1307.661,603.093 L 1307.981,603.170 L 1308.320,602.629 L 1309.805,602.305 L 1310.547,601.892 L 1310.769,601.515 L 1310.334,600.755 L 1310.317,600.445 L 1309.738,600.264 L 1309.492,599.798 L 1309.205,599.593 L 1308.944,599.664 L 1308.530,599.363 L 1308.554,599.191 L 1308.965,598.961 L 1308.162,598.871 L 1308.211,598.656 L 1308.718,598.186 L 1308.574,598.071 L 1308.682,597.772 L 1308.547,597.517 L 1308.240,597.290 L 1308.482,596.879 L 1308.371,596.780 L 1308.172,596.698 L 1306.596,596.865 L 1305.172,596.697 L 1305.115,597.191 L 1304.975,597.255 L 1303.713,597.059 L 1302.909,596.673 L 1303.192,596.297 L 1303.555,596.142 L 1303.715,595.440 L 1305.044,594.607 L 1305.076,593.921 L 1304.493,593.754 L 1304.719,593.358 L 1304.970,593.347 L 1304.905,593.210 L 1305.109,593.064 L 1305.249,592.611 L 1305.096,592.385 L 1305.349,592.407 L 1305.419,592.300 L 1305.430,591.640 L 1304.798,591.294 L 1304.838,591.000 L 1304.669,590.791 L 1304.880,590.872 L 1305.103,590.753 L 1305.809,590.716 L 1305.780,590.607 L 1306.099,590.498 L 1306.368,590.522 L 1306.338,590.403 L 1306.145,590.414 L 1306.518,590.307 L 1307.030,589.372 L 1307.924,588.767 L 1308.634,588.777 L 1309.922,587.922 L 1310.016,587.393 L 1309.603,587.165 L 1309.034,586.308 L 1308.483,586.168 L 1308.016,586.288 L 1306.709,586.156 L 1306.498,585.898 L 1306.629,585.446 L 1306.075,585.430 L 1306.142,585.168 L 1305.590,585.106 L 1305.478,585.408 L 1304.891,585.414 L 1305.045,585.494 L 1305.056,585.754 L 1304.618,585.987 L 1304.586,586.119 L 1304.751,586.262 L 1305.651,586.395 L 1305.666,586.598 L 1306.048,586.793 L 1305.971,587.327 L 1305.773,587.333 L 1305.667,587.483 L 1304.991,587.561 L 1304.322,587.402 L 1303.548,587.486 L 1303.517,587.317 L 1303.728,587.299 L 1303.795,587.041 L 1303.412,586.809 L 1303.624,586.181 L 1302.686,586.310 L 1302.517,585.954 L 1302.774,585.743 L 1302.806,585.146 L 1302.583,584.425 L 1302.246,584.236 L 1302.241,584.035 L 1302.148,583.960 L 1301.933,584.103 L 1301.605,584.130 L 1301.206,583.617 L 1300.655,583.255 L 1300.534,583.370 L 1300.361,583.289 L 1299.504,583.581 L 1299.280,583.544 L 1299.230,582.709 L 1298.676,582.454 L 1298.216,581.956 L 1297.477,581.818 L 1297.401,581.307 L 1296.656,581.296 L 1296.048,580.981 L 1295.780,580.239 L 1295.741,580.325 L 1295.393,579.973 L 1295.444,579.871 L 1295.153,579.810 L 1295.033,579.990 L 1294.707,579.954 L 1294.500,580.219 L 1294.674,580.323 L 1294.180,580.502 L 1293.424,580.469 L 1293.263,580.664 L 1292.842,580.602 L 1292.469,580.787 L 1292.477,580.986 L 1292.236,581.094 L 1291.931,580.896 L 1291.450,580.804 L 1291.313,580.652 L 1290.870,581.208 L 1290.733,581.145 L 1291.006,580.725 L 1290.941,580.499 L 1286.536,582.101 L 1285.838,582.241 L 1285.528,582.087 L 1284.711,582.236 L 1284.669,582.109 L 1285.069,582.024 L 1284.926,581.880 L 1284.999,581.516 L 1284.762,581.545 L 1284.738,581.456 L 1284.901,581.438 L 1284.822,581.184 L 1284.311,581.411 L 1283.950,581.436 L 1282.930,581.114 L 1282.937,580.972 L 1282.562,581.089 L 1282.656,580.838 L 1282.481,580.582 L 1281.790,580.277 L 1281.118,580.180 L 1280.730,580.321 L 1280.079,580.243 L 1280.011,580.724 L 1279.376,580.889 L 1279.103,580.881 L 1279.401,580.530 L 1279.300,580.261 L 1278.725,580.098 L 1278.167,580.434 L 1277.005,580.232 L 1276.419,580.262 L 1276.011,580.421 L 1275.730,580.266 L 1275.482,580.649 L 1274.259,580.428 L 1274.129,580.498 L 1274.234,580.636 L 1273.886,580.583 L 1273.455,581.014 L 1273.248,581.040 L 1273.596,581.160 L 1273.195,581.385 L 1273.499,581.553 L 1273.251,581.647 L 1273.262,582.013 L 1272.958,581.980 L 1272.932,582.442 L 1273.150,582.647 L 1272.767,583.119 L 1273.111,583.406 L 1272.858,583.463 L 1272.859,583.565 L 1272.280,583.418 L 1272.234,583.071 L 1271.461,582.799 L 1271.478,583.221 L 1271.859,583.318 L 1272.017,583.596 L 1271.876,583.778 L 1272.219,583.894 L 1271.428,584.023 L 1270.857,583.448 L 1270.278,583.279 L 1270.354,583.012 L 1269.488,582.742 L 1269.939,582.838 L 1270.110,582.748 L 1270.150,582.857 L 1270.241,582.627 L 1269.845,582.555 L 1269.567,582.386 L 1269.494,582.163 L 1269.158,582.072 L 1269.037,581.790 L 1268.793,581.792 L 1268.688,581.626 L 1268.999,581.237 L 1268.377,580.893 L 1268.385,580.750 L 1268.040,580.678 L 1268.238,580.413 L 1268.230,579.684 L 1268.029,579.330 L 1267.481,579.100 L 1267.559,578.726 L 1268.106,578.344 L 1268.390,577.718 L 1268.718,577.586 L 1268.614,577.176 L 1268.815,576.555 L 1268.449,575.393 L 1268.611,575.054 L 1268.364,575.002 L 1268.428,573.924 L 1268.199,573.673 L 1267.780,573.497 L 1267.713,573.236 L 1267.566,573.201 L 1268.007,572.774 L 1267.898,572.507 L 1267.221,571.947 L 1267.085,572.007 L 1266.807,571.893 L 1266.589,571.921 L 1266.569,572.026 L 1266.443,571.957 L 1265.800,571.348 L 1265.440,570.758 L 1265.620,570.703 L 1264.614,570.196 L 1263.731,569.400 L 1262.695,569.838 L 1262.048,569.905 L 1261.643,569.812 L 1261.591,569.602 L 1261.111,569.446 L 1261.033,569.365 L 1261.186,569.284 L 1260.831,569.119 L 1260.330,569.350 L 1259.239,569.342 L 1258.568,569.615 L 1258.084,569.490 L 1257.396,569.539 L 1256.762,569.859 L 1256.434,569.873 L 1255.673,570.194 L 1255.436,569.708 L 1255.578,569.593 L 1255.336,569.278 L 1255.908,568.653 L 1256.803,568.246 L 1257.128,567.408 L 1256.499,567.249 L 1256.268,567.062 L 1255.991,567.057 L 1255.914,566.944 L 1255.572,566.913 L 1254.964,567.106 L 1253.693,566.650 L 1253.388,566.731 L 1253.395,566.881 L 1252.915,567.278 L 1252.135,567.741 L 1252.173,568.039 L 1251.891,568.306 L 1252.007,568.405 L 1251.765,568.693 L 1251.331,568.711 L 1251.236,568.573 L 1251.059,568.631 L 1250.990,568.379 L 1250.249,568.842 L 1249.488,569.013 L 1249.299,568.965 L 1248.724,569.244 L 1247.880,569.310 L 1247.780,569.484 L 1247.479,569.304 L 1247.059,569.626 L 1246.308,569.861 L 1245.867,569.654 L 1245.754,569.347 L 1245.199,568.888 L 1243.356,568.523 L 1242.767,568.588 L 1242.538,568.395 L 1242.660,568.245 L 1242.183,568.006 L 1242.092,567.776 L 1241.131,567.712 L 1239.669,567.243 L 1239.370,566.538 L 1238.938,566.283 L 1239.146,565.902 L 1238.896,565.291 L 1239.223,565.259 L 1239.096,564.967 L 1238.945,565.005 L 1238.723,564.773 L 1239.420,564.539 L 1238.857,564.339 L 1238.909,563.696 L 1239.139,563.692 L 1239.179,563.524 L 1239.107,563.279 L 1238.704,563.021 L 1238.731,562.419 L 1238.994,561.955 L 1238.618,561.883 L 1238.737,561.614 L 1238.559,561.595 L 1238.630,561.286 L 1238.347,561.179 L 1238.271,560.744 L 1237.755,560.392 L 1237.815,560.309 L 1237.355,560.110 L 1237.436,560.024 L 1237.162,559.933 L 1237.457,559.407 L 1237.186,559.363 L 1236.922,558.944 L 1236.319,558.578 L 1236.736,558.066 L 1236.017,557.228 L 1236.208,556.690 L 1236.096,556.460 L 1236.984,556.045 L 1237.919,555.832 L 1237.604,555.689 L 1237.344,555.348 L 1237.412,555.217 L 1236.985,554.880 L 1237.046,554.772 L 1237.630,554.755 L 1237.411,554.402 L 1237.603,554.005 L 1236.831,553.703 L 1236.930,553.611 L 1236.407,553.122 L 1235.851,553.254 L 1235.681,553.121 L 1235.314,553.193 L 1235.060,553.124 L 1234.514,553.363 L 1234.394,553.189 L 1233.815,553.096 L 1233.685,553.269 L 1233.408,553.216 L 1233.654,553.134 L 1233.731,552.789 L 1233.336,552.559 L 1232.877,552.557 L 1232.333,552.176 L 1232.995,551.499 L 1232.782,551.313 L 1232.080,551.067 L 1231.960,550.550 L 1231.453,550.059 L 1231.505,549.938 L 1230.825,549.682 L 1230.835,549.410 L 1229.304,547.801 L 1229.477,547.645 L 1229.251,547.311 L 1227.491,547.594 L 1226.419,546.975 L 1226.175,547.126 L 1225.969,547.474 L 1226.074,547.645 L 1225.876,547.828 L 1225.370,548.137 L 1224.696,548.346 L 1224.716,548.503 L 1224.529,548.594 L 1224.009,548.607 L 1222.534,548.030 L 1222.135,548.032 L 1220.900,548.397 L 1220.729,548.705 L 1220.438,548.842 L 1219.915,548.698 L 1219.749,548.761 L 1219.329,548.547 L 1219.038,548.530 L 1218.857,548.870 L 1217.422,549.562 L 1216.488,549.804 L 1215.840,550.309 L 1215.101,550.348 L 1215.125,550.198 L 1214.827,550.066 L 1214.235,550.188 L 1213.197,550.818 L 1213.246,551.197 L 1213.508,551.319 L 1213.739,551.684 L 1212.750,551.989 L 1212.541,552.369 L 1212.712,552.752 L 1212.545,553.411 L 1212.052,553.879 L 1211.302,553.802 L 1211.125,553.875 L 1211.018,553.972 L 1211.182,554.535 L 1210.828,554.673 L 1210.276,554.563 L 1209.267,553.614 L 1208.819,553.897 L 1208.387,553.787 L 1208.084,553.860 L 1206.880,552.940 L 1206.454,552.370 L 1205.837,552.554 L 1205.057,552.618 L 1204.279,552.936 L 1204.004,552.774 L 1203.631,552.790 L 1202.853,552.330 L 1202.421,552.231 L 1202.477,552.158 L 1202.082,552.164 L 1202.102,551.719 L 1201.858,551.642 L 1201.443,550.836 L 1201.590,550.768 L 1201.548,550.221 L 1201.167,550.294 L 1200.766,549.950 L 1200.258,549.983 L 1199.929,549.642 L 1200.105,549.500 L 1200.044,549.365 L 1199.547,549.379 L 1199.961,548.703 L 1199.374,548.460 L 1199.096,548.182 L 1198.389,547.942 L 1198.174,548.033 L 1197.580,547.465 L 1197.535,547.175 L 1197.256,547.139 L 1196.894,546.391 L 1197.240,545.886 L 1197.104,545.766 L 1196.267,545.407 L 1196.084,545.543 L 1193.697,545.552 L 1193.401,545.103 L 1192.967,544.856 L 1192.860,545.076 L 1191.950,545.550 L 1190.389,545.591 L 1189.976,544.898 L 1189.667,543.799 L 1188.978,543.558 L 1189.005,542.948 L 1188.594,542.770 L 1188.007,542.961 L 1187.958,542.864 L 1187.672,542.874 L 1187.669,542.565 L 1188.665,541.782 L 1188.715,541.478 L 1188.203,540.986 L 1188.530,540.526 L 1188.225,540.336 L 1188.275,540.072 L 1188.065,540.058 L 1188.462,539.408 L 1188.452,539.157 L 1188.247,539.119 L 1188.254,538.881 L 1188.038,538.673 L 1188.349,538.261 L 1188.029,537.767 L 1187.324,537.939 L 1187.010,537.582 L 1187.424,537.424 L 1188.404,536.692 L 1189.088,536.404 L 1189.103,535.898 L 1190.022,535.760 L 1190.227,535.540 L 1189.208,533.942 L 1188.565,533.472 L 1188.688,533.388 L 1188.388,533.048 L 1188.441,532.884 L 1188.250,532.837 L 1188.507,532.588 L 1188.294,532.150 L 1187.384,532.077 L 1186.184,531.546 L 1185.786,531.236 L 1185.896,531.033 L 1185.561,530.691 L 1185.655,530.465 L 1185.928,530.436 L 1184.877,527.074 L 1184.942,526.585 L 1183.634,524.770 L 1178.866,526.155 L 1173.274,527.505 L 1171.218,527.813 L 1170.343,527.695 L 1170.217,527.601 L 1170.135,527.582 L 1169.823,527.392 L 1170.140,527.599 L 1170.230,527.624 L 1170.296,527.690 L 1170.212,527.739 L 1170.345,527.863 L 1170.872,527.934 L 1170.546,528.032 L 1170.792,528.315 L 1170.516,528.274 L 1170.451,528.077 L 1169.670,527.442 L 1169.250,527.543 L 1168.565,527.504 L 1168.397,527.292 L 1168.645,527.259 L 1168.447,527.270 L 1168.347,527.151 L 1162.344,528.132 L 1158.329,529.070 L 1157.656,529.002 L 1157.228,528.440 L 1156.971,528.365 L 1156.316,528.482 L 1155.383,528.138 L 1154.800,528.156 L 1154.803,528.635 L 1153.722,528.883 L 1153.727,529.295 L 1153.301,529.545 L 1153.304,529.793 L 1151.879,530.326 L 1151.734,530.466 L 1151.805,530.613 L 1151.123,530.830 L 1150.824,531.047 L 1150.320,530.927 L 1149.587,530.306 L 1150.343,530.952 L 1150.240,530.988 L 1149.393,530.299 L 1150.213,531.001 L 1150.064,531.099 L 1149.907,531.000 L 1149.636,531.161 L 1149.750,531.195 L 1149.690,531.215 L 1149.606,531.203 L 1149.581,531.236 L 1149.231,531.274 L 1149.473,531.253 L 1149.564,531.476 L 1149.788,531.494 L 1150.331,532.126 L 1150.756,532.341 L 1150.731,532.659 L 1151.308,532.923 L 1151.741,532.908 L 1151.633,533.081 L 1151.769,533.612 L 1151.975,533.849 L 1152.701,534.157 L 1152.910,535.161 L 1153.790,535.972 L 1153.888,536.821 L 1154.851,537.778 L 1155.296,538.849 L 1156.797,541.065 L 1156.908,541.875 L 1157.854,542.826 L 1157.707,543.243 L 1158.174,543.677 L 1158.028,544.110 L 1158.126,544.474 L 1158.558,544.882 L 1158.443,545.074 L 1158.585,545.765 L 1158.833,545.643 L 1158.972,545.804 L 1159.041,545.689 L 1160.005,546.120 L 1161.419,547.353 L 1162.855,547.864 L 1163.102,547.853 L 1163.602,547.569 L 1164.212,547.543 L 1164.282,548.300 L 1164.769,548.047 L 1165.570,547.842 L 1166.068,547.526 L 1166.203,547.874 L 1168.294,547.985 L 1170.409,548.721 L 1170.470,548.528 L 1170.215,548.430 L 1170.068,548.287 L 1170.200,548.223 L 1169.927,548.069 L 1170.505,547.721 L 1170.665,547.816 L 1170.804,547.746 L 1171.363,548.044 L 1171.180,548.171 L 1171.958,548.307 L 1172.388,548.534 L 1172.599,548.449 L 1173.097,548.792 L 1172.779,548.999 L 1173.526,549.079 L 1173.224,549.405 L 1172.649,549.225 L 1172.028,549.787 L 1171.495,549.792 L 1170.954,550.212 L 1170.457,549.895 L 1170.072,550.224 L 1169.918,550.221 L 1169.956,550.321 L 1168.683,550.943 L 1168.052,551.081 L 1168.247,551.250 L 1168.015,551.336 L 1168.282,552.020 L 1168.955,552.026 L 1169.060,552.176 L 1168.798,552.382 L 1168.948,552.609 L 1169.962,553.350 L 1171.259,554.026 L 1171.723,554.134 L 1169.920,555.253 L 1170.201,555.393 L 1169.945,555.518 L 1170.557,555.714 L 1170.454,555.856 L 1170.762,555.991 L 1170.656,556.165 L 1170.767,556.238 L 1170.958,556.323 L 1171.414,556.230 L 1171.447,556.096 L 1172.011,555.781 L 1172.919,555.488 L 1172.866,555.608 L 1173.356,556.272 L 1173.542,556.443 L 1173.739,556.360 L 1173.887,556.690 L 1174.294,556.693 L 1174.849,557.345 L 1176.451,557.578 L 1176.695,557.830 L 1177.635,558.176 L 1178.185,558.738 L 1178.582,558.797 L 1178.589,558.907 L 1179.134,559.201 L 1179.254,559.114 L 1179.258,559.225 L 1179.867,559.219 L 1179.952,559.332 L 1180.690,559.058 L 1180.893,559.086 L 1180.879,558.973 L 1181.274,558.907 L 1181.475,558.996 L 1181.839,558.581 L 1182.078,558.572 L 1182.002,558.471 L 1182.691,558.367 L 1182.754,558.546 L 1183.134,558.577 L 1182.866,558.712 L 1183.076,558.829 L 1182.878,558.901 L 1183.058,559.013 L 1182.956,559.320 L 1183.426,559.434 L 1183.619,559.745 L 1183.769,559.640 L 1184.308,559.702 L 1184.420,559.458 L 1184.648,559.429 L 1185.045,559.792 L 1185.299,559.627 L 1184.972,559.324 L 1185.207,559.137 L 1185.770,559.180 L 1185.977,559.343 L 1186.291,559.152 L 1186.281,559.029 L 1186.495,559.096 L 1186.466,558.961 L 1186.729,558.744 L 1187.073,558.752 L 1187.012,559.092 L 1187.222,559.036 L 1187.175,559.229 L 1187.377,559.278 L 1187.827,559.316 L 1188.292,559.056 L 1188.847,559.022 L 1188.811,559.588 L 1189.196,559.723 L 1189.653,559.675 L 1189.511,559.790 L 1190.055,560.317 L 1191.045,559.940 L 1191.725,559.863 L 1192.131,559.971 L 1192.410,559.816 L 1193.404,559.713 L 1193.359,558.789 L 1193.546,558.932 L 1193.930,558.914 L 1194.122,559.198 L 1194.792,559.099 L 1194.979,559.489 L 1195.732,559.448 L 1196.256,559.226 L 1196.398,559.382 L 1196.489,559.324 L 1197.071,559.624 L 1196.714,559.978 L 1197.135,560.553 L 1197.550,560.673 L 1198.024,561.033 L 1198.261,560.921 L 1198.739,561.290 L 1199.168,561.119 L 1198.929,560.664 L 1199.429,560.481 L 1199.613,560.238 L 1199.405,560.079 L 1199.242,559.550 L 1199.452,559.528 L 1199.620,559.795 L 1199.858,559.745 L 1199.773,558.980 L 1200.580,559.145 L 1201.143,559.412 L 1201.338,559.315 L 1201.754,559.519 L 1202.241,559.104 L 1200.283,557.949 L 1199.720,557.816 L 1200.045,557.165 L 1200.823,556.736 L 1201.660,556.742 L 1202.345,556.951 L 1202.762,556.898 L 1203.563,556.434 L 1204.413,557.025 L 1204.681,556.931 L 1205.776,557.305 L 1208.080,559.295 L 1207.497,559.570 L 1207.404,559.471 L 1207.008,559.655 L 1206.684,559.533 L 1206.482,559.716 L 1206.081,559.396 L 1205.424,559.970 L 1203.300,561.137 L 1202.773,562.088 L 1202.008,562.914 L 1202.717,563.168 L 1203.424,563.214 L 1203.453,563.644 L 1203.691,563.631 L 1204.070,564.313 L 1203.775,564.570 L 1203.894,564.685 L 1203.631,564.831 L 1204.116,565.105 L 1203.816,565.298 L 1203.999,565.386 L 1203.822,565.464 L 1202.999,565.304 L 1202.403,565.466 L 1202.880,566.146 L 1202.974,566.586 L 1202.755,566.744 L 1202.722,566.975 L 1202.837,567.114 L 1203.331,567.146 L 1203.663,566.986 L 1204.788,567.271 L 1207.430,566.947 L 1209.380,566.340 L 1209.316,566.738 L 1209.663,566.965 L 1208.861,568.019 L 1209.078,568.135 L 1208.992,568.604 L 1209.560,568.603 L 1209.720,568.867 L 1209.367,568.941 L 1209.728,569.093 L 1209.956,568.933 L 1210.480,569.161 L 1210.733,568.924 L 1211.143,569.210 L 1212.409,568.593 L 1212.681,568.636 L 1213.257,568.492 L 1213.331,568.557 L 1213.781,568.338 L 1213.931,568.422 L 1214.143,568.258 L 1214.735,568.493 L 1214.821,568.395 L 1215.194,568.436 L 1215.237,568.235 L 1217.376,569.410 L 1217.657,569.521 L 1217.912,569.428 L 1218.239,569.559 L 1219.095,570.130 L 1219.076,570.250 L 1220.059,570.393 L 1220.255,570.698 L 1220.031,570.777 L 1219.793,570.502 L 1219.505,570.551 L 1219.404,571.034 L 1219.546,571.078 L 1219.208,571.228 L 1219.060,571.495 L 1219.334,571.693 L 1219.108,571.799 L 1218.934,572.207 L 1218.725,572.123 L 1218.433,572.398 L 1218.780,572.769 L 1218.878,572.688 L 1219.386,572.768 L 1219.001,573.112 L 1219.182,573.309 L 1219.143,573.557 L 1219.813,573.483 L 1220.248,573.314 L 1220.756,573.590 L 1221.226,573.011 L 1221.826,572.659 L 1222.952,572.306 L 1223.116,572.380 L 1222.858,573.150 L 1223.039,573.268 L 1223.179,573.211 L 1223.663,573.400 L 1223.748,573.302 L 1224.060,573.417 L 1223.483,573.844 L 1223.085,574.796 L 1221.621,574.777 L 1221.230,575.032 L 1220.828,574.990 L 1220.738,575.280 L 1220.202,575.545 L 1220.031,576.071 L 1219.649,576.217 L 1219.418,576.161 L 1218.937,576.507 L 1218.786,576.445 L 1218.697,576.556 L 1218.633,576.495 L 1218.005,576.733 L 1217.924,576.640 L 1217.343,576.736 L 1217.251,576.540 L 1216.955,576.674 L 1216.361,576.443 L 1217.164,577.026 L 1217.300,577.638 L 1217.532,577.673 L 1217.392,578.260 L 1217.692,578.298 L 1218.135,578.754 L 1218.270,579.248 L 1218.569,579.296 L 1218.643,579.542 L 1218.399,579.654 L 1218.525,579.883 L 1218.934,579.778 L 1219.681,580.198 L 1220.077,580.246 L 1220.254,580.564 L 1220.812,580.948 L 1221.437,580.817 L 1221.651,580.931 L 1222.594,581.892 L 1222.444,582.093 L 1222.766,582.454 L 1222.953,582.439 L 1222.794,582.540 L 1223.099,582.723 L 1223.422,582.733 L 1223.408,582.943 L 1223.774,583.018 L 1224.269,583.429 L 1223.798,583.704 L 1223.137,583.871 L 1222.833,583.527 L 1222.828,583.624 L 1222.669,583.540 L 1222.780,583.693 L 1222.634,583.993 L 1222.376,584.117 L 1222.008,584.118 L 1221.960,584.232 L 1222.115,584.247 L 1221.496,584.743 L 1222.126,585.090 L 1221.850,585.144 L 1221.737,585.352 L 1222.029,585.452 L 1222.060,585.611 L 1221.189,585.602 L 1220.966,585.207 L 1220.525,585.171 L 1219.087,585.477 L 1219.141,585.587 L 1218.837,585.646 L 1219.197,586.166 L 1219.026,586.204 L 1219.053,586.354 L 1218.719,586.611 L 1219.636,587.029 L 1219.677,586.784 L 1219.929,586.655 L 1220.087,586.815 L 1220.185,586.751 L 1220.456,586.836 L 1220.747,586.485 L 1221.572,585.937 L 1222.547,586.373 L 1223.839,586.200 L 1224.058,586.357 L 1225.311,586.579 L 1225.878,586.560 L 1227.276,586.830 L 1227.560,586.766 L 1228.514,586.905 L 1229.157,587.101 L 1228.864,587.211 L 1229.201,587.323 L 1228.967,587.928 L 1229.256,588.062 L 1229.000,588.322 L 1229.824,588.584 L 1230.136,588.435 L 1230.098,588.710 L 1230.655,588.519 L 1230.828,588.687 L 1231.155,588.691 L 1231.213,589.021 L 1231.427,589.152 L 1231.337,589.371 L 1231.533,589.448 L 1231.666,589.223 L 1231.857,589.273 L 1231.994,589.159 L 1232.063,589.330 L 1231.860,589.494 L 1232.105,589.644 L 1231.220,590.115 L 1231.390,590.378 L 1230.539,590.455 L 1230.495,590.342 L 1230.046,590.410 L 1229.235,590.325 L 1228.679,590.366 L 1228.647,590.479 L 1228.348,590.522 L 1228.385,591.096 L 1228.111,591.256 L 1228.032,591.379 L 1228.173,591.412 L 1227.812,591.846 L 1229.011,592.154 L 1228.673,592.479 L 1229.409,592.940 L 1229.765,592.929 L 1229.824,593.015 L 1229.603,593.065 L 1229.704,593.206 L 1228.888,593.393 L 1228.950,593.479 L 1228.253,594.111 L 1228.283,594.328 L 1227.636,594.412 L 1227.202,594.276 L 1226.858,594.431 L 1226.653,594.231 L 1226.444,594.271 L 1226.493,594.438 L 1225.802,594.481 L 1225.523,594.679 L 1225.890,594.959 L 1226.034,594.917 L 1226.746,595.822 L 1227.810,596.040 L 1227.861,595.959 L 1228.192,596.115 L 1228.119,596.311 L 1227.752,596.318 L 1227.648,596.582 L 1227.263,596.547 L 1226.565,597.026 L 1226.340,596.919 L 1226.250,597.085 L 1226.030,597.019 L 1225.873,597.230 L 1225.709,597.203 L 1225.471,597.428 L 1225.279,597.430 L 1224.870,597.775 L 1225.393,598.015 L 1225.244,598.128 L 1225.490,598.078 L 1225.827,598.187 L 1225.680,598.455 L 1225.789,598.675 L 1225.908,598.631 L 1225.782,599.007 L 1225.904,598.924 L 1226.420,599.005 L 1226.281,599.535 L 1226.516,599.914 L 1225.706,600.963 L 1225.494,600.758 L 1225.373,600.965 L 1225.258,600.932 L 1225.383,600.650 L 1224.557,600.626 L 1224.491,600.865 L 1224.691,600.989 L 1224.487,600.982 L 1224.503,601.201 L 1224.701,601.197 L 1225.333,601.755 L 1225.195,601.876 L 1224.446,601.848 L 1224.379,602.143 L 1224.585,602.305 L 1224.200,602.605 L 1224.719,602.841 L 1225.056,602.930 L 1224.721,603.315 L 1225.354,603.435 L 1225.305,603.582 L 1226.079,603.744 L 1226.713,604.069 L 1226.496,604.301 L 1226.847,604.930 L 1227.293,604.857 L 1227.235,605.057 L 1227.999,605.071 L 1229.214,604.838 L 1229.005,605.503 L 1229.116,605.542 L 1229.295,605.333 L 1229.852,605.524 L 1230.510,605.309 L 1230.776,605.566 L 1230.922,606.001 L 1231.743,605.936 L 1232.707,605.600 L 1232.828,605.763 L 1232.830,605.646 L 1234.006,605.293 L 1234.582,604.863 L 1234.734,604.937 L 1234.784,604.723 L 1235.177,604.441 L 1235.587,604.801 L 1236.330,604.578 L 1236.404,604.778 L 1237.387,605.060 L 1237.375,604.484 L 1238.356,604.686 L 1238.893,605.255 L 1238.528,605.359 L 1238.780,605.540 L 1238.661,605.616 L 1238.845,605.815 L 1239.332,605.693 L 1239.476,605.871 L 1240.278,605.580 L 1241.522,605.394 L 1242.154,605.628 L 1242.751,605.699 L 1243.334,605.609 L 1243.537,605.219 L 1243.663,605.226 L 1243.694,604.907 L 1244.379,604.838 L 1244.336,604.290 L 1244.552,604.183 L 1244.884,604.236 L 1245.338,604.119 L 1245.976,604.204 L 1246.380,604.133 L 1246.579,604.217 L 1246.581,604.371 L 1246.759,604.333 L 1246.826,604.521 L 1247.259,604.593 L 1247.995,604.277 L 1248.680,604.589 L 1249.098,604.961 L 1249.663,604.708 L 1249.957,604.825 L 1250.313,605.050 L 1250.207,605.234 L 1252.261,605.196 L 1253.011,605.395 L 1253.321,605.267 L 1254.915,605.473 L 1255.337,605.208 L 1255.348,604.978 L 1255.501,605.050 L 1255.941,604.706 L 1256.158,604.200 L 1257.509,604.183 L 1257.830,604.085 L 1257.744,603.869 L 1257.905,603.805 L 1257.852,603.582 L 1258.030,603.448 L 1258.933,603.409 L 1258.784,603.164 L 1258.899,603.005 L 1258.630,602.913 L 1258.739,602.734 L 1258.941,602.822 L 1260.686,602.881 L 1261.587,603.336 L 1262.781,603.569 L 1263.651,604.267 L 1264.226,605.009 L 1265.032,604.584 L 1265.440,604.533 L 1265.606,604.221 L 1266.243,603.956 L 1267.324,604.385 L 1267.603,604.686 L 1267.861,603.948 L 1267.563,603.809 L 1267.095,603.871 L 1266.827,603.677 L 1267.525,603.531 L 1267.664,603.023 L 1268.077,602.754 L 1268.545,602.743 L 1269.137,602.479 L 1270.746,602.149 L 1271.852,601.657 L 1272.375,602.097 L 1273.394,602.374 L 1274.216,602.903 L 1274.549,602.900 L 1274.584,603.017 L 1275.312,602.932 L 1276.306,603.084 L 1276.543,603.434 L 1277.063,603.278 L 1278.087,603.241 L 1278.767,603.718 L 1279.424,603.962 L 1280.930,603.251 L 1281.943,603.957 L 1283.904,604.145 L 1284.205,604.399 L 1284.721,604.508 L 1284.814,604.621 L 1284.151,604.795 L 1285.009,605.191 L 1284.778,605.382 L 1284.838,606.178 L 1285.233,606.192 L 1285.431,605.718 L 1285.970,605.650 L 1286.666,605.347 L 1286.876,605.383 L 1287.486,604.880 L 1288.040,604.962 L 1289.173,604.618 L 1289.430,604.670 L 1289.554,604.892 L 1290.055,604.488 L 1290.593,604.345 L 1291.003,604.057 L 1291.316,604.112 L 1291.994,603.548 L 1292.610,603.809 L 1292.997,604.784 L 1291.812,606.689 L 1291.901,607.377 L 1293.731,607.190 L 1294.231,607.990 L 1294.961,607.937 L 1294.898,608.046 L 1295.725,608.225 L 1295.906,607.962 L 1297.864,608.051 L 1299.642,608.492 L 1299.501,609.032 L 1299.757,609.230 L 1300.590,608.995 L 1301.124,608.952 L 1301.308,609.090 L 1302.054,608.717 L 1302.477,608.901 L 1303.015,608.674 L 1303.419,608.698 L 1304.035,608.481 Z"/>
</g>
<g class="scale-bar"><line x1="1032.0" y1="660.0" x2="1138.6" y2="660.0"/><line x1="1032.0" y1="656.0" x2="1032.0" y2="664.0"/><line x1="1138.6" y1="656.0" x2="1138.6" y2="664.0"/><text x="1085.3" y="654.0" text-anchor="middle">≈100 km</text></g>
</svg>
