<?xml version="1.0" encoding="UTF-8"?>
<svg xmlns="http://www.w3.org/2000/svg" width="1000" height="740" viewBox="0 0 1000 740">
<title>official-1444-reconstruction-v2 — france</title><desc>Deterministic M25 review: provinces, ownership, hierarchy, uncertainty, historical constraints, and forbidden modern outlines.</desc>
<style>.province{stroke:#222;stroke-width:.7;vector-effect:non-scaling-stroke}.constraint{fill:none;stroke-width:3;vector-effect:non-scaling-stroke}.hard-constraint{stroke:#111}.soft-evidence{stroke:#d28b00;stroke-dasharray:7 5}.forbidden-modern{stroke:#d00000;stroke-dasharray:2 4}</style>
<rect width="1000" height="740" fill="#f7f3e8"/><text x="35" y="25" font-family="sans-serif" font-size="16">official-1444-reconstruction-v2 — france</text>
<path class="province" id="prv_1f636f0396d03bf5e122" data-owner="county-of-provence" data-area="area-1444-county-of-provence" data-uncertainty="0.250" fill="#43fd75" fill-opacity="0.750" d="M 305.840,600.943 L 305.840,599.266 L 306.520,598.897 L 310.612,597.393 L 311.654,596.875 L 310.868,599.511 L 310.868,599.511 L 310.868,599.511 L 305.840,600.943 Z"/>
<path class="province" id="prv_236f173aa0da3ff3f50e" data-owner="county-of-provence" data-area="area-1444-county-of-provence" data-uncertainty="0.250" fill="#43fd75" fill-opacity="0.750" d="M 319.568,601.780 L 327.171,597.279 L 335.882,599.564 L 336.970,606.350 L 341.338,607.505 L 329.363,610.846 L 320.122,605.182 L 319.568,601.780 Z"/>
<path class="province" id="prv_29bb286d3668cebb7098" data-owner="kingdom-of-france" data-area="area-1444-kingdom-of-france" data-uncertainty="0.250" fill="#74e9e0" fill-opacity="0.750" d="M 303.291,604.023 L 305.840,602.506 L 305.840,604.930 L 305.411,606.698 L 304.108,608.971 L 303.291,604.023 Z"/>
<path class="province" id="prv_2e4aeef24c149f799e73" data-owner="kingdom-of-france" data-area="area-1444-kingdom-of-france" data-uncertainty="0.250" fill="#74e9e0" fill-opacity="0.750" d="M 283.636,586.019 L 291.206,581.498 L 299.921,583.733 L 301.047,590.490 L 293.473,595.007 L 284.777,592.771 L 283.636,586.019 Z"/>
<path class="province" id="prv_3861cd67a056ea344dd1" data-owner="county-of-provence" data-area="area-1444-county-of-provence" data-uncertainty="0.250" fill="#43fd75" fill-opacity="0.750" d="M 306.640,624.368 L 314.199,619.855 L 322.872,622.141 L 322.885,622.223 L 313.398,627.855 L 313.336,627.435 L 312.845,626.259 L 312.036,624.904 L 310.946,623.751 L 309.588,623.158 L 309.588,623.642 L 311.921,626.345 L 312.265,627.167 L 312.265,628.527 L 307.805,631.175 L 307.752,631.161 L 306.640,624.368 Z"/>
<path class="province" id="prv_3afbc9f900a1b1fb77ce" data-owner="kingdom-of-france" data-area="area-1444-kingdom-of-france" data-uncertainty="0.150" fill="#74e9e0" fill-opacity="0.850" d="M 35.000,161.774 L 89.332,135.557 L 152.765,157.041 L 161.432,204.339 L 107.970,230.400 L 44.975,209.314 L 35.000,161.774 Z"/>
<path class="province" id="prv_433ad339646e29a54ed0" data-owner="county-of-provence" data-area="area-1444-county-of-provence" data-uncertainty="0.250" fill="#43fd75" fill-opacity="0.750" d="M 305.840,602.506 L 305.840,600.943 L 310.868,599.511 L 310.868,599.511 L 305.840,602.506 Z"/>
<path class="province" id="prv_4d05d067e4cfdd029f74" data-owner="kingdom-of-france" data-area="area-1444-kingdom-of-france" data-uncertainty="0.250" fill="#74e9e0" fill-opacity="0.750" d="M 239.734,620.010 L 244.854,601.958 L 268.544,595.077 L 287.051,606.292 L 281.794,624.366 L 269.869,627.817 L 265.551,626.699 L 265.464,626.514 L 263.438,625.290 L 258.906,624.955 L 258.844,624.961 L 239.734,620.010 Z"/>
<path class="province" id="prv_62bd7fdf1552fa86157c" data-owner="kingdom-of-france" data-area="area-1444-kingdom-of-france" data-uncertainty="0.250" fill="#74e9e0" fill-opacity="0.750" d="M 290.070,574.753 L 297.663,570.238 L 316.244,581.474 L 307.518,579.223 L 299.921,583.733 L 291.206,581.498 L 290.070,574.753 Z"/>
<path class="province" id="prv_6485f291d164d69a7fa4" data-owner="kingdom-of-france" data-area="area-1444-kingdom-of-france" data-uncertainty="0.250" fill="#74e9e0" fill-opacity="0.750" d="M 271.164,586.063 L 273.781,577.060 L 297.663,570.238 L 290.070,574.753 L 291.206,581.498 L 283.636,586.019 L 274.932,583.800 L 271.164,586.063 Z"/>
<path class="province" id="prv_7067ef9dbcdb8cac9db8" data-owner="kingdom-of-france" data-area="area-1444-kingdom-of-france" data-uncertainty="0.250" fill="#74e9e0" fill-opacity="0.750" d="M 293.473,595.007 L 301.047,590.490 L 309.754,592.742 L 313.558,590.487 L 311.654,596.875 L 310.612,597.393 L 306.520,598.897 L 305.840,599.266 L 305.840,600.943 L 298.963,602.901 L 294.602,601.770 L 293.473,595.007 Z"/>
<path class="province" id="prv_79c359cf76be0bff426d" data-owner="kingdom-of-france" data-area="area-1444-kingdom-of-france" data-uncertainty="0.250" fill="#74e9e0" fill-opacity="0.750" d="M 297.663,570.238 L 303.019,552.258 L 314.941,548.910 L 345.748,556.755 L 349.520,580.422 L 340.253,574.753 L 316.244,581.474 L 297.663,570.238 Z"/>
<path class="province" id="prv_7e338b50b0c9ee192d0c" data-owner="kingdom-of-france" data-area="area-1444-kingdom-of-france" data-uncertainty="0.250" fill="#74e9e0" fill-opacity="0.750" d="M 284.424,615.324 L 287.051,606.292 L 305.840,600.943 L 305.840,602.506 L 303.291,604.023 L 304.108,608.971 L 303.079,610.765 L 303.230,611.504 L 296.855,615.316 L 288.185,613.062 L 284.424,615.324 Z"/>
<path class="province" id="prv_9d8a10144cd54124d90b" data-owner="kingdom-of-france" data-area="area-1444-kingdom-of-france" data-uncertainty="0.250" fill="#74e9e0" fill-opacity="0.750" d="M 268.544,595.077 L 271.164,586.063 L 274.932,583.800 L 283.636,586.019 L 284.777,592.771 L 277.229,597.298 L 277.803,600.688 L 268.544,595.077 Z"/>
<path class="province" id="prv_a334845bd2767433c834" data-owner="county-of-provence" data-area="area-1444-county-of-provence" data-uncertainty="0.250" fill="#43fd75" fill-opacity="0.750" d="M 310.868,599.511 L 316.244,581.474 L 316.244,581.474 L 317.354,588.237 L 326.072,590.505 L 327.171,597.279 L 319.568,601.780 L 320.122,605.182 L 310.868,599.511 Z"/>
<path class="province" id="prv_ab9b0b983201db896fbe" data-owner="county-of-provence" data-area="area-1444-county-of-provence" data-uncertainty="0.250" fill="#43fd75" fill-opacity="0.750" d="M 303.079,610.765 L 304.108,608.971 L 304.410,610.798 L 303.230,611.504 L 303.079,610.765 Z"/>
<path class="province" id="prv_ae5faaed835983b59731" data-owner="county-of-provence" data-area="area-1444-county-of-provence" data-uncertainty="0.250" fill="#43fd75" fill-opacity="0.750" d="M 313.336,633.368 L 313.533,628.773 L 313.398,627.855 L 353.305,604.166 L 414.305,620.619 L 420.347,661.913 L 419.025,662.018 L 415.312,662.386 L 413.940,662.387 L 413.119,660.762 L 411.177,660.495 L 408.587,660.509 L 406.663,659.615 L 406.854,659.156 L 406.988,658.400 L 407.198,658.015 L 405.911,657.989 L 404.662,658.228 L 402.380,659.079 L 403.699,659.471 L 404.824,661.211 L 406.127,661.650 L 408.017,662.247 L 407.148,662.957 L 405.341,662.814 L 403.050,662.854 L 402.061,663.123 L 400.594,665.000 L 397.646,664.323 L 395.397,663.034 L 394.742,662.315 L 396.388,661.549 L 397.578,660.750 L 397.059,660.152 L 396.205,659.751 L 394.862,659.536 L 394.661,658.852 L 394.292,658.266 L 393.072,658.174 L 391.541,658.168 L 388.040,657.008 L 387.364,655.287 L 386.287,654.422 L 384.822,653.976 L 383.177,653.848 L 382.291,654.670 L 381.470,655.946 L 379.578,655.355 L 378.360,655.264 L 377.285,654.290 L 376.366,653.328 L 375.629,652.269 L 374.620,651.858 L 373.789,652.241 L 372.993,652.404 L 369.520,652.180 L 367.948,652.249 L 365.579,651.963 L 364.467,651.881 L 362.511,652.232 L 360.682,651.602 L 360.965,650.217 L 361.214,649.417 L 361.768,648.620 L 362.418,647.333 L 361.493,646.555 L 361.386,645.637 L 361.061,645.179 L 360.048,642.330 L 356.546,640.671 L 352.169,642.819 L 346.291,642.720 L 343.310,642.997 L 338.582,642.821 L 336.172,642.237 L 334.599,640.479 L 333.943,638.623 L 335.554,636.453 L 337.982,635.456 L 344.955,635.456 L 347.122,634.968 L 348.613,634.089 L 350.232,632.655 L 351.233,630.896 L 350.959,629.041 L 348.670,630.140 L 346.472,630.723 L 344.470,630.465 L 342.781,629.041 L 342.240,627.836 L 342.189,627.167 L 341.787,626.765 L 340.162,626.364 L 339.569,626.307 L 337.714,626.364 L 337.389,626.106 L 336.274,624.987 L 335.790,624.764 L 335.254,625.265 L 334.751,626.316 L 334.368,627.387 L 334.234,627.970 L 334.655,629.452 L 335.363,630.099 L 336.312,630.481 L 337.447,631.176 L 338.384,633.139 L 337.510,634.892 L 335.669,635.854 L 333.387,636.033 L 332.182,635.848 L 327.906,634.041 L 325.923,634.707 L 325.095,635.198 L 323.183,635.504 L 322.418,635.991 L 321.781,637.071 L 322.150,637.483 L 322.926,638.915 L 323.132,639.916 L 325.754,639.771 L 323.889,641.038 L 322.212,641.744 L 321.824,640.400 L 320.449,638.595 L 317.198,637.253 L 314.540,635.433 L 313.336,633.368 Z"/>
<path class="province" id="prv_bd0320fca2e552b24518" data-owner="kingdom-of-france" data-area="area-1444-kingdom-of-france" data-uncertainty="0.250" fill="#74e9e0" fill-opacity="0.750" d="M 277.229,597.298 L 284.777,592.771 L 293.473,595.007 L 294.602,601.770 L 298.963,602.901 L 287.051,606.292 L 277.803,600.688 L 277.803,600.688 L 277.229,597.298 Z"/>
<path class="province" id="prv_c98836d53c70cfc9c24c" data-owner="county-of-provence" data-area="area-1444-county-of-provence" data-uncertainty="0.250" fill="#43fd75" fill-opacity="0.750" d="M 296.855,615.316 L 304.410,610.798 L 313.091,613.068 L 314.199,619.855 L 306.640,624.368 L 297.978,622.098 L 296.855,615.316 Z"/>
<path class="province" id="prv_d29d13b36aa49bef4b01" data-owner="county-of-provence" data-area="area-1444-county-of-provence" data-uncertainty="0.250" fill="#43fd75" fill-opacity="0.750" d="M 313.091,613.068 L 320.672,608.561 L 329.363,610.846 L 353.305,604.166 L 313.398,627.855 L 322.885,622.223 L 322.872,622.141 L 314.199,619.855 L 313.091,613.068 Z"/>
<path class="province" id="prv_dea819013cfffb8803ac" data-owner="county-of-provence" data-area="area-1444-county-of-provence" data-uncertainty="0.250" fill="#43fd75" fill-opacity="0.750" d="M 304.108,608.971 L 305.411,606.698 L 305.840,604.930 L 305.840,602.506 L 310.868,599.511 L 310.868,599.511 L 329.363,610.846 L 320.672,608.561 L 313.091,613.068 L 304.410,610.798 L 304.108,608.971 Z"/>
<path class="province" id="prv_ef03dbca4c39f9695ee5" data-owner="kingdom-of-france" data-area="area-1444-kingdom-of-france" data-uncertainty="0.250" fill="#74e9e0" fill-opacity="0.750" d="M 299.921,583.733 L 307.518,579.223 L 316.244,581.474 L 313.558,590.487 L 309.754,592.742 L 301.047,590.490 L 299.921,583.733 Z"/>
<path class="constraint forbidden-modern" id="forbidden-modern-nord-department" d="M 180.050,107.767 L 179.857,107.800 L 180.043,108.407 L 179.427,108.364 L 179.287,108.450 L 179.126,108.360 L 178.953,108.455 L 178.404,108.220 L 178.066,108.363 L 177.928,108.292 L 177.868,108.482 L 177.564,108.526 L 177.662,108.625 L 177.528,108.740 L 177.189,108.500 L 176.369,109.552 L 176.697,109.877 L 177.007,109.812 L 177.110,110.101 L 176.928,110.317 L 177.106,110.499 L 176.829,110.965 L 177.686,111.263 L 177.704,111.452 L 178.372,111.166 L 178.843,111.195 L 179.773,110.063 L 180.382,110.176 L 180.484,109.916 L 181.130,109.909 L 182.144,110.204 L 182.666,109.990 L 182.446,109.923 L 182.643,109.774 L 182.359,109.638 L 182.525,109.312 L 182.316,109.218 L 182.401,109.014 L 182.194,108.740 L 182.637,108.645 L 182.570,108.547 L 182.795,108.608 L 182.782,108.271 L 183.149,108.178 L 183.472,108.258 L 184.381,107.511 L 183.981,107.407 L 184.211,107.172 L 183.970,107.150 L 184.117,106.931 L 183.910,106.828 L 182.924,106.870 L 181.531,106.647 L 181.650,107.211 L 181.470,107.162 L 181.187,107.401 L 180.778,107.277 L 180.050,107.767 Z"/>
<path class="constraint forbidden-modern" id="forbidden-modern-nord-department" d="M 266.308,121.930 L 266.532,121.871 L 266.746,121.569 L 267.285,121.483 L 267.671,120.851 L 267.966,120.680 L 267.864,120.241 L 267.634,120.126 L 267.321,120.301 L 266.578,119.988 L 266.748,119.829 L 266.488,119.760 L 266.338,119.843 L 266.539,119.622 L 266.122,119.560 L 265.790,119.102 L 265.845,118.659 L 266.472,118.081 L 266.554,117.811 L 266.843,117.747 L 267.152,117.168 L 267.903,116.425 L 268.817,116.726 L 270.074,116.335 L 270.406,116.415 L 270.758,115.853 L 272.300,115.517 L 273.071,115.088 L 273.302,114.697 L 272.850,113.908 L 272.832,113.585 L 272.231,113.398 L 271.975,112.913 L 271.677,112.701 L 271.406,112.774 L 270.976,112.462 L 271.001,112.284 L 271.428,112.045 L 270.594,111.952 L 270.645,111.728 L 271.172,111.239 L 271.022,111.121 L 271.134,110.810 L 270.994,110.545 L 270.675,110.309 L 270.927,109.882 L 270.812,109.779 L 270.605,109.695 L 268.968,109.868 L 267.489,109.693 L 267.430,110.207 L 267.285,110.273 L 265.974,110.069 L 265.140,109.669 L 265.433,109.278 L 265.810,109.117 L 265.976,108.388 L 267.356,107.523 L 267.389,106.811 L 266.784,106.637 L 267.019,106.226 L 267.279,106.214 L 267.212,106.072 L 267.424,105.920 L 267.569,105.450 L 267.410,105.216 L 267.673,105.239 L 267.746,105.128 L 267.757,104.442 L 267.100,104.082 L 267.142,103.777 L 266.967,103.561 L 267.185,103.645 L 267.417,103.521 L 268.150,103.483 L 268.120,103.370 L 268.452,103.257 L 268.731,103.281 L 268.700,103.157 L 268.499,103.169 L 268.887,103.058 L 269.418,102.087 L 270.347,101.458 L 271.084,101.469 L 272.422,100.581 L 272.519,100.032 L 272.091,99.795 L 271.500,98.905 L 270.928,98.759 L 270.442,98.884 L 269.085,98.747 L 268.866,98.479 L 269.002,98.010 L 268.427,97.993 L 268.497,97.721 L 267.923,97.657 L 267.807,97.971 L 267.198,97.976 L 267.357,98.059 L 267.369,98.329 L 266.913,98.571 L 266.881,98.708 L 267.051,98.857 L 267.987,98.995 L 268.002,99.206 L 268.399,99.409 L 268.319,99.963 L 268.114,99.969 L 268.003,100.125 L 267.302,100.206 L 266.606,100.041 L 265.803,100.128 L 265.771,99.953 L 265.989,99.934 L 266.059,99.666 L 265.661,99.425 L 265.882,98.773 L 264.908,98.907 L 264.732,98.537 L 264.999,98.318 L 265.032,97.698 L 264.801,96.950 L 264.451,96.754 L 264.446,96.545 L 264.349,96.466 L 264.125,96.615 L 263.785,96.643 L 263.370,96.111 L 262.798,95.735 L 262.673,95.854 L 262.493,95.770 L 261.603,96.073 L 261.370,96.034 L 261.319,95.168 L 260.743,94.902 L 260.265,94.385 L 259.498,94.243 L 259.419,93.712 L 258.646,93.701 L 258.014,93.373 L 257.736,92.602 L 257.695,92.692 L 257.334,92.327 L 257.387,92.220 L 257.085,92.157 L 256.960,92.344 L 256.621,92.307 L 256.407,92.581 L 256.587,92.689 L 256.074,92.876 L 255.290,92.842 L 255.122,93.043 L 254.685,92.979 L 254.298,93.172 L 254.306,93.379 L 254.056,93.490 L 253.739,93.285 L 253.239,93.189 L 253.097,93.031 L 252.637,93.609 L 252.495,93.543 L 252.778,93.107 L 252.711,92.873 L 248.137,94.536 L 247.411,94.681 L 247.089,94.521 L 246.241,94.676 L 246.197,94.544 L 246.613,94.456 L 246.464,94.307 L 246.540,93.929 L 246.294,93.959 L 246.269,93.866 L 246.438,93.848 L 246.356,93.584 L 245.826,93.820 L 245.451,93.846 L 244.392,93.512 L 244.399,93.364 L 244.009,93.485 L 244.107,93.224 L 243.926,92.958 L 243.208,92.642 L 242.510,92.541 L 242.108,92.687 L 241.431,92.607 L 241.360,93.107 L 240.701,93.278 L 240.418,93.269 L 240.727,92.905 L 240.622,92.625 L 240.025,92.456 L 239.446,92.805 L 238.239,92.595 L 237.630,92.627 L 237.206,92.791 L 236.914,92.631 L 236.657,93.029 L 235.387,92.799 L 235.252,92.872 L 235.361,93.014 L 235.000,92.960 L 234.552,93.408 L 234.338,93.434 L 234.699,93.559 L 234.283,93.793 L 234.598,93.967 L 234.340,94.064 L 234.351,94.445 L 234.036,94.410 L 234.009,94.891 L 234.235,95.103 L 233.837,95.593 L 234.195,95.892 L 233.932,95.951 L 233.933,96.057 L 233.332,95.904 L 233.284,95.543 L 232.481,95.261 L 232.499,95.700 L 232.895,95.800 L 233.059,96.089 L 232.913,96.278 L 233.269,96.398 L 232.448,96.532 L 231.855,95.935 L 231.253,95.759 L 231.332,95.482 L 230.433,95.202 L 230.901,95.302 L 231.079,95.208 L 231.121,95.321 L 231.215,95.082 L 230.803,95.008 L 230.514,94.832 L 230.439,94.600 L 230.090,94.506 L 229.965,94.213 L 229.711,94.216 L 229.602,94.043 L 229.925,93.639 L 229.279,93.282 L 229.287,93.134 L 228.929,93.059 L 229.135,92.783 L 229.126,92.026 L 228.918,91.658 L 228.349,91.420 L 228.430,91.032 L 228.997,90.634 L 229.293,89.984 L 229.633,89.847 L 229.526,89.422 L 229.734,88.777 L 229.354,87.570 L 229.522,87.218 L 229.265,87.164 L 229.332,86.045 L 229.094,85.784 L 228.659,85.602 L 228.590,85.330 L 228.437,85.294 L 228.895,84.851 L 228.781,84.573 L 228.079,83.992 L 227.937,84.054 L 227.648,83.935 L 227.422,83.964 L 227.402,84.073 L 227.270,84.002 L 226.603,83.369 L 226.229,82.757 L 226.416,82.700 L 225.371,82.174 L 224.454,81.347 L 223.378,81.801 L 222.706,81.871 L 222.286,81.775 L 222.232,81.556 L 221.734,81.395 L 221.653,81.310 L 221.811,81.226 L 221.443,81.055 L 220.923,81.294 L 219.790,81.287 L 219.093,81.570 L 218.590,81.440 L 217.876,81.491 L 217.217,81.823 L 216.877,81.838 L 216.086,82.171 L 215.840,81.667 L 215.988,81.548 L 215.736,81.220 L 216.331,80.571 L 217.260,80.149 L 217.597,79.278 L 216.944,79.112 L 216.705,78.919 L 216.417,78.913 L 216.336,78.796 L 215.981,78.764 L 215.350,78.964 L 214.030,78.491 L 213.714,78.576 L 213.720,78.731 L 213.222,79.143 L 212.412,79.624 L 212.452,79.934 L 212.159,80.211 L 212.279,80.313 L 212.028,80.613 L 211.577,80.631 L 211.479,80.488 L 211.295,80.548 L 211.223,80.287 L 210.453,80.767 L 209.663,80.945 L 209.468,80.895 L 208.870,81.184 L 207.994,81.253 L 207.890,81.434 L 207.577,81.247 L 207.142,81.582 L 206.361,81.826 L 205.904,81.610 L 205.786,81.292 L 205.209,80.815 L 203.295,80.436 L 202.684,80.503 L 202.446,80.303 L 202.573,80.148 L 202.077,79.899 L 201.983,79.661 L 200.985,79.594 L 199.467,79.106 L 199.156,78.375 L 198.708,78.110 L 198.924,77.714 L 198.664,77.080 L 199.004,77.047 L 198.871,76.743 L 198.715,76.783 L 198.484,76.542 L 199.208,76.298 L 198.624,76.091 L 198.678,75.423 L 198.917,75.420 L 198.958,75.245 L 198.884,74.990 L 198.464,74.722 L 198.492,74.097 L 198.766,73.616 L 198.376,73.540 L 198.499,73.261 L 198.314,73.241 L 198.388,72.920 L 198.094,72.809 L 198.015,72.358 L 197.479,71.992 L 197.542,71.906 L 197.063,71.700 L 197.148,71.610 L 196.864,71.515 L 197.170,70.970 L 196.889,70.924 L 196.614,70.488 L 195.988,70.108 L 196.421,69.577 L 195.674,68.706 L 195.873,68.148 L 195.756,67.909 L 196.679,67.478 L 197.650,67.257 L 197.323,67.109 L 197.053,66.754 L 197.123,66.618 L 196.680,66.268 L 196.743,66.156 L 197.350,66.139 L 197.122,65.771 L 197.321,65.360 L 196.520,65.046 L 196.623,64.950 L 196.079,64.443 L 195.502,64.580 L 195.326,64.442 L 194.944,64.516 L 194.680,64.445 L 194.113,64.693 L 193.989,64.513 L 193.388,64.415 L 193.253,64.596 L 192.965,64.540 L 193.221,64.455 L 193.301,64.097 L 192.890,63.858 L 192.414,63.855 L 191.849,63.460 L 192.536,62.758 L 192.315,62.564 L 191.586,62.308 L 191.461,61.771 L 190.935,61.262 L 190.989,61.136 L 190.283,60.871 L 190.293,60.588 L 188.703,58.917 L 188.883,58.755 L 188.649,58.408 L 186.820,58.702 L 185.707,58.060 L 185.454,58.216 L 185.241,58.578 L 185.349,58.755 L 185.143,58.945 L 184.618,59.266 L 183.918,59.483 L 183.939,59.646 L 183.745,59.741 L 183.205,59.754 L 181.673,59.155 L 181.258,59.156 L 179.976,59.536 L 179.798,59.856 L 179.496,59.998 L 178.953,59.849 L 178.781,59.914 L 178.344,59.691 L 178.042,59.674 L 177.855,60.027 L 176.365,60.746 L 175.394,60.997 L 174.721,61.522 L 173.955,61.562 L 173.979,61.406 L 173.670,61.270 L 173.055,61.396 L 171.977,62.050 L 172.028,62.444 L 172.300,62.571 L 172.540,62.949 L 171.513,63.266 L 171.295,63.661 L 171.473,64.058 L 171.300,64.743 L 170.788,65.228 L 170.009,65.149 L 169.825,65.224 L 169.714,65.326 L 169.884,65.910 L 169.517,66.053 L 168.944,65.939 L 167.896,64.953 L 167.431,65.247 L 166.982,65.133 L 166.667,65.209 L 165.417,64.253 L 164.975,63.662 L 164.334,63.853 L 163.524,63.919 L 162.715,64.250 L 162.431,64.081 L 162.043,64.098 L 161.235,63.621 L 160.786,63.517 L 160.845,63.442 L 160.434,63.447 L 160.455,62.986 L 160.202,62.906 L 159.771,62.068 L 159.924,61.998 L 159.880,61.430 L 159.484,61.505 L 159.068,61.148 L 158.540,61.183 L 158.199,60.829 L 158.382,60.682 L 158.318,60.541 L 157.802,60.556 L 158.232,59.854 L 157.623,59.601 L 157.333,59.313 L 156.599,59.063 L 156.376,59.158 L 155.760,58.568 L 155.713,58.267 L 155.423,58.230 L 155.047,57.453 L 155.406,56.929 L 155.265,56.804 L 154.396,56.431 L 154.206,56.572 L 151.727,56.581 L 151.420,56.116 L 150.968,55.859 L 150.858,56.087 L 149.913,56.580 L 148.291,56.622 L 147.862,55.903 L 147.542,54.761 L 146.826,54.511 L 146.854,53.877 L 146.427,53.692 L 145.818,53.891 L 145.767,53.790 L 145.470,53.800 L 145.467,53.480 L 146.501,52.667 L 146.553,52.351 L 146.022,51.839 L 146.361,51.362 L 146.045,51.165 L 146.096,50.891 L 145.878,50.876 L 146.291,50.201 L 146.280,49.940 L 146.067,49.902 L 146.075,49.654 L 145.850,49.438 L 146.174,49.010 L 145.841,48.497 L 145.109,48.675 L 144.783,48.305 L 145.213,48.141 L 146.230,47.381 L 146.940,47.082 L 146.956,46.556 L 147.910,46.413 L 148.123,46.184 L 147.066,44.524 L 146.397,44.037 L 146.526,43.950 L 146.213,43.596 L 146.269,43.427 L 146.070,43.378 L 146.337,43.119 L 146.116,42.664 L 145.171,42.589 L 143.925,42.036 L 143.512,41.715 L 143.626,41.504 L 143.278,41.149 L 143.375,40.914 L 143.659,40.884 L 142.568,37.393 L 142.635,36.885 L 141.277,35.000 L 136.326,36.439 L 130.518,37.841 L 128.384,38.160 L 127.474,38.038 L 127.343,37.940 L 127.259,37.921 L 126.935,37.724 L 127.264,37.938 L 127.358,37.964 L 127.426,38.033 L 127.339,38.083 L 127.476,38.212 L 128.025,38.286 L 127.685,38.388 L 127.941,38.682 L 127.655,38.639 L 127.587,38.435 L 126.776,37.775 L 126.340,37.880 L 125.628,37.840 L 125.454,37.619 L 125.712,37.585 L 125.506,37.596 L 125.402,37.473 L 119.168,38.491 L 114.999,39.466 L 114.300,39.395 L 113.855,38.812 L 113.589,38.733 L 112.908,38.855 L 111.940,38.498 L 111.334,38.517 L 111.338,39.014 L 110.214,39.272 L 110.220,39.699 L 109.778,39.959 L 109.781,40.216 L 108.301,40.770 L 108.150,40.916 L 108.224,41.068 L 107.516,41.293 L 107.205,41.519 L 106.681,41.394 L 105.920,40.749 L 106.705,41.420 L 106.599,41.457 L 105.719,40.742 L 106.570,41.471 L 106.416,41.572 L 106.253,41.470 L 105.971,41.637 L 106.090,41.672 L 106.027,41.693 L 105.940,41.681 L 105.914,41.715 L 105.551,41.754 L 105.802,41.732 L 105.897,41.964 L 106.129,41.982 L 106.693,42.639 L 107.135,42.862 L 107.109,43.193 L 107.708,43.467 L 108.157,43.451 L 108.045,43.631 L 108.186,44.182 L 108.400,44.429 L 109.155,44.748 L 109.372,45.790 L 110.285,46.633 L 110.387,47.515 L 111.387,48.508 L 111.850,49.621 L 113.408,51.922 L 113.523,52.763 L 114.506,53.751 L 114.353,54.184 L 114.838,54.634 L 114.686,55.084 L 114.788,55.462 L 115.236,55.886 L 115.117,56.085 L 115.264,56.803 L 115.522,56.676 L 115.667,56.843 L 115.738,56.724 L 116.739,57.172 L 118.208,58.452 L 119.699,58.982 L 119.955,58.971 L 120.475,58.676 L 121.108,58.649 L 121.180,59.435 L 121.686,59.172 L 122.518,58.959 L 123.035,58.632 L 123.175,58.992 L 125.346,59.108 L 127.544,59.872 L 127.606,59.672 L 127.342,59.570 L 127.189,59.422 L 127.326,59.355 L 127.042,59.195 L 127.643,58.834 L 127.809,58.933 L 127.954,58.860 L 128.534,59.169 L 128.344,59.301 L 129.152,59.442 L 129.599,59.678 L 129.818,59.590 L 130.335,59.946 L 130.004,60.161 L 130.780,60.244 L 130.467,60.583 L 129.870,60.396 L 129.225,60.980 L 128.671,60.985 L 128.110,61.421 L 127.593,61.091 L 127.193,61.433 L 127.034,61.430 L 127.073,61.534 L 125.751,62.180 L 125.096,62.323 L 125.298,62.498 L 125.057,62.588 L 125.334,63.299 L 126.033,63.305 L 126.142,63.461 L 125.870,63.675 L 126.026,63.910 L 127.079,64.680 L 128.426,65.382 L 128.908,65.493 L 127.035,66.655 L 127.327,66.801 L 127.061,66.930 L 127.696,67.134 L 127.590,67.282 L 127.910,67.422 L 127.800,67.602 L 127.916,67.678 L 128.113,67.766 L 128.587,67.670 L 128.622,67.531 L 129.206,67.204 L 130.150,66.900 L 130.094,67.025 L 130.604,67.714 L 130.797,67.892 L 131.002,67.805 L 131.156,68.148 L 131.578,68.151 L 132.154,68.828 L 133.817,69.070 L 134.071,69.331 L 135.047,69.691 L 135.618,70.275 L 136.031,70.336 L 136.038,70.450 L 136.604,70.756 L 136.729,70.665 L 136.733,70.781 L 137.365,70.774 L 137.453,70.891 L 138.220,70.607 L 138.430,70.636 L 138.416,70.518 L 138.826,70.450 L 139.035,70.542 L 139.413,70.111 L 139.661,70.102 L 139.582,69.997 L 140.297,69.890 L 140.364,70.075 L 140.757,70.107 L 140.480,70.247 L 140.698,70.369 L 140.492,70.443 L 140.679,70.560 L 140.573,70.879 L 141.061,70.998 L 141.261,71.321 L 141.417,71.211 L 141.977,71.276 L 142.093,71.023 L 142.330,70.992 L 142.742,71.369 L 143.006,71.197 L 142.666,70.883 L 142.911,70.689 L 143.495,70.733 L 143.710,70.903 L 144.036,70.705 L 144.026,70.577 L 144.248,70.646 L 144.217,70.506 L 144.491,70.281 L 144.848,70.289 L 144.785,70.642 L 145.003,70.584 L 144.954,70.784 L 145.164,70.835 L 145.632,70.874 L 146.114,70.605 L 146.691,70.569 L 146.653,71.157 L 147.053,71.298 L 147.527,71.247 L 147.380,71.367 L 147.945,71.914 L 148.972,71.523 L 149.679,71.442 L 150.101,71.555 L 150.390,71.395 L 151.423,71.288 L 151.375,70.328 L 151.570,70.476 L 151.969,70.457 L 152.168,70.753 L 152.864,70.650 L 153.058,71.055 L 153.840,71.012 L 154.384,70.781 L 154.532,70.944 L 154.627,70.883 L 155.230,71.195 L 154.859,71.563 L 155.297,72.160 L 155.728,72.284 L 156.221,72.657 L 156.466,72.541 L 156.963,72.925 L 157.408,72.747 L 157.160,72.275 L 157.679,72.085 L 157.871,71.832 L 157.655,71.667 L 157.485,71.118 L 157.704,71.095 L 157.877,71.372 L 158.125,71.320 L 158.037,70.526 L 158.875,70.697 L 159.459,70.975 L 159.662,70.874 L 160.094,71.085 L 160.599,70.654 L 158.566,69.455 L 157.982,69.317 L 158.319,68.641 L 159.127,68.195 L 159.996,68.202 L 160.707,68.418 L 161.140,68.364 L 161.972,67.882 L 162.855,68.496 L 163.133,68.398 L 164.270,68.787 L 166.663,70.853 L 166.058,71.138 L 165.961,71.036 L 165.550,71.226 L 165.214,71.100 L 165.004,71.290 L 164.588,70.958 L 163.905,71.555 L 161.700,72.766 L 161.152,73.754 L 160.357,74.611 L 161.094,74.875 L 161.828,74.923 L 161.858,75.369 L 162.105,75.355 L 162.499,76.064 L 162.193,76.331 L 162.316,76.450 L 162.043,76.602 L 162.546,76.886 L 162.235,77.087 L 162.425,77.178 L 162.241,77.260 L 161.386,77.093 L 160.767,77.262 L 161.263,77.968 L 161.361,78.424 L 161.134,78.588 L 161.099,78.828 L 161.218,78.972 L 161.732,79.006 L 162.076,78.840 L 163.244,79.135 L 165.988,78.800 L 168.013,78.169 L 167.947,78.582 L 168.307,78.818 L 167.474,79.912 L 167.699,80.033 L 167.610,80.520 L 168.200,80.519 L 168.366,80.793 L 168.000,80.870 L 168.375,81.028 L 168.611,80.862 L 169.156,81.098 L 169.418,80.852 L 169.844,81.149 L 171.158,80.509 L 171.442,80.553 L 172.039,80.404 L 172.116,80.472 L 172.584,80.244 L 172.739,80.332 L 172.960,80.161 L 173.574,80.405 L 173.663,80.303 L 174.051,80.346 L 174.095,80.136 L 176.316,81.358 L 176.609,81.472 L 176.873,81.375 L 177.213,81.512 L 178.101,82.105 L 178.082,82.230 L 179.103,82.378 L 179.306,82.695 L 179.074,82.776 L 178.826,82.491 L 178.527,82.542 L 178.423,83.044 L 178.571,83.089 L 178.219,83.245 L 178.066,83.522 L 178.350,83.727 L 178.115,83.838 L 177.934,84.262 L 177.718,84.175 L 177.415,84.460 L 177.775,84.845 L 177.876,84.761 L 178.404,84.845 L 178.005,85.202 L 178.192,85.406 L 178.152,85.663 L 178.847,85.587 L 179.299,85.411 L 179.826,85.698 L 180.315,85.096 L 180.938,84.731 L 182.107,84.365 L 182.277,84.442 L 182.010,85.241 L 182.197,85.364 L 182.343,85.304 L 182.845,85.500 L 182.933,85.399 L 183.258,85.518 L 182.659,85.961 L 182.246,86.950 L 180.725,86.930 L 180.318,87.195 L 179.901,87.151 L 179.808,87.453 L 179.251,87.728 L 179.073,88.275 L 178.677,88.426 L 178.437,88.368 L 177.938,88.727 L 177.781,88.662 L 177.688,88.778 L 177.622,88.715 L 176.970,88.962 L 176.885,88.866 L 176.283,88.965 L 176.186,88.761 L 175.879,88.901 L 175.263,88.661 L 176.097,89.266 L 176.238,89.901 L 176.478,89.937 L 176.334,90.548 L 176.645,90.587 L 177.104,91.060 L 177.245,91.573 L 177.556,91.623 L 177.633,91.879 L 177.379,91.995 L 177.510,92.232 L 177.934,92.124 L 178.710,92.560 L 179.122,92.610 L 179.306,92.940 L 179.885,93.338 L 180.534,93.203 L 180.756,93.321 L 181.735,94.319 L 181.579,94.527 L 181.914,94.903 L 182.108,94.887 L 181.943,94.992 L 182.260,95.182 L 182.595,95.193 L 182.580,95.410 L 182.961,95.488 L 183.474,95.916 L 182.986,96.201 L 182.299,96.374 L 181.984,96.017 L 181.978,96.117 L 181.813,96.031 L 181.928,96.189 L 181.777,96.501 L 181.509,96.630 L 181.127,96.630 L 181.077,96.749 L 181.237,96.765 L 180.595,97.280 L 181.249,97.640 L 180.963,97.696 L 180.845,97.912 L 181.149,98.016 L 181.181,98.181 L 180.276,98.171 L 180.045,97.762 L 179.586,97.724 L 178.094,98.042 L 178.149,98.156 L 177.834,98.218 L 178.207,98.757 L 178.030,98.797 L 178.059,98.952 L 177.712,99.219 L 178.663,99.653 L 178.706,99.399 L 178.968,99.265 L 179.132,99.431 L 179.233,99.365 L 179.515,99.454 L 179.817,99.088 L 180.674,98.519 L 181.686,98.972 L 183.028,98.793 L 183.255,98.955 L 184.557,99.187 L 185.146,99.167 L 186.597,99.447 L 186.892,99.380 L 187.883,99.524 L 188.550,99.729 L 188.246,99.843 L 188.596,99.959 L 188.354,100.587 L 188.654,100.726 L 188.388,100.996 L 189.243,101.268 L 189.567,101.114 L 189.528,101.400 L 190.106,101.201 L 190.286,101.376 L 190.626,101.379 L 190.686,101.723 L 190.908,101.859 L 190.814,102.085 L 191.018,102.166 L 191.157,101.932 L 191.354,101.984 L 191.497,101.865 L 191.568,102.043 L 191.358,102.214 L 191.612,102.369 L 190.693,102.858 L 190.869,103.132 L 189.986,103.212 L 189.940,103.095 L 189.474,103.164 L 188.631,103.077 L 188.054,103.119 L 188.021,103.236 L 187.710,103.281 L 187.749,103.877 L 187.464,104.044 L 187.383,104.171 L 187.529,104.205 L 187.153,104.656 L 188.399,104.976 L 188.048,105.313 L 188.812,105.792 L 189.182,105.780 L 189.244,105.870 L 189.014,105.922 L 189.119,106.068 L 188.271,106.262 L 188.336,106.351 L 187.612,107.008 L 187.643,107.233 L 186.971,107.321 L 186.520,107.179 L 186.164,107.341 L 185.950,107.133 L 185.733,107.174 L 185.784,107.348 L 185.066,107.393 L 184.776,107.598 L 185.159,107.888 L 185.308,107.845 L 186.047,108.784 L 187.152,109.011 L 187.204,108.927 L 187.549,109.089 L 187.473,109.292 L 187.092,109.300 L 186.984,109.574 L 186.584,109.538 L 185.859,110.035 L 185.626,109.924 L 185.532,110.096 L 185.303,110.028 L 185.141,110.247 L 184.971,110.219 L 184.723,110.453 L 184.524,110.455 L 184.099,110.813 L 184.642,111.062 L 184.487,111.179 L 184.742,111.128 L 185.093,111.241 L 184.940,111.519 L 185.053,111.748 L 185.176,111.702 L 185.046,112.092 L 185.173,112.006 L 185.708,112.091 L 185.564,112.640 L 185.808,113.035 L 184.967,114.124 L 184.747,113.910 L 184.621,114.125 L 184.502,114.092 L 184.631,113.799 L 183.773,113.773 L 183.705,114.022 L 183.912,114.150 L 183.702,114.144 L 183.717,114.371 L 183.923,114.367 L 184.579,114.946 L 184.436,115.071 L 183.659,115.043 L 183.589,115.349 L 183.802,115.518 L 183.403,115.828 L 183.942,116.074 L 184.292,116.166 L 183.944,116.566 L 184.601,116.691 L 184.551,116.844 L 185.354,117.012 L 186.013,117.349 L 185.787,117.590 L 186.152,118.244 L 186.615,118.167 L 186.555,118.375 L 187.348,118.389 L 188.610,118.147 L 188.393,118.838 L 188.509,118.879 L 188.694,118.662 L 189.272,118.860 L 189.956,118.637 L 190.232,118.903 L 190.383,119.356 L 191.236,119.288 L 192.237,118.939 L 192.363,119.108 L 192.365,118.986 L 193.586,118.620 L 194.185,118.174 L 194.342,118.251 L 194.394,118.028 L 194.802,117.735 L 195.228,118.109 L 196.000,117.877 L 196.076,118.085 L 197.097,118.378 L 197.085,117.780 L 198.103,117.989 L 198.661,118.581 L 198.282,118.689 L 198.544,118.876 L 198.421,118.956 L 198.612,119.162 L 199.117,119.035 L 199.266,119.220 L 200.099,118.918 L 201.391,118.725 L 202.047,118.968 L 202.668,119.042 L 203.273,118.948 L 203.484,118.543 L 203.615,118.550 L 203.647,118.219 L 204.358,118.147 L 204.313,117.579 L 204.538,117.467 L 204.883,117.522 L 205.354,117.401 L 206.017,117.489 L 206.436,117.416 L 206.642,117.503 L 206.645,117.662 L 206.830,117.623 L 206.899,117.818 L 207.349,117.893 L 208.113,117.565 L 208.824,117.889 L 209.259,118.276 L 209.845,118.012 L 210.151,118.134 L 210.520,118.367 L 210.411,118.559 L 212.543,118.520 L 213.323,118.726 L 213.644,118.593 L 215.299,118.807 L 215.738,118.532 L 215.749,118.293 L 215.907,118.368 L 216.365,118.010 L 216.590,117.485 L 217.993,117.468 L 218.327,117.365 L 218.238,117.141 L 218.404,117.075 L 218.350,116.844 L 218.534,116.704 L 219.472,116.663 L 219.317,116.409 L 219.436,116.244 L 219.157,116.148 L 219.270,115.963 L 219.480,116.054 L 221.292,116.116 L 222.227,116.588 L 223.468,116.830 L 224.371,117.555 L 224.968,118.325 L 225.806,117.884 L 226.229,117.831 L 226.401,117.507 L 227.063,117.231 L 228.186,117.677 L 228.475,117.990 L 228.743,117.224 L 228.434,117.079 L 227.947,117.143 L 227.669,116.942 L 228.395,116.790 L 228.539,116.263 L 228.968,115.984 L 229.453,115.972 L 230.068,115.698 L 231.739,115.355 L 232.888,114.844 L 233.431,115.301 L 234.489,115.589 L 235.342,116.138 L 235.688,116.135 L 235.725,116.257 L 236.481,116.169 L 237.513,116.326 L 237.759,116.690 L 238.299,116.528 L 239.362,116.489 L 240.068,116.985 L 240.751,117.238 L 242.315,116.500 L 243.367,117.233 L 245.403,117.428 L 245.716,117.692 L 246.252,117.805 L 246.348,117.922 L 245.660,118.103 L 246.551,118.514 L 246.311,118.712 L 246.373,119.539 L 246.783,119.554 L 246.989,119.061 L 247.549,118.991 L 248.272,118.676 L 248.489,118.713 L 249.122,118.192 L 249.698,118.277 L 250.874,117.919 L 251.141,117.973 L 251.270,118.203 L 251.790,117.784 L 252.349,117.635 L 252.775,117.336 L 253.100,117.394 L 253.804,116.808 L 254.444,117.079 L 254.846,118.091 L 253.615,120.070 L 253.708,120.784 L 255.608,120.590 L 256.127,121.421 L 256.886,121.366 L 256.820,121.479 L 257.678,121.665 L 257.867,121.392 L 259.900,121.484 L 261.747,121.942 L 261.600,122.503 L 261.866,122.709 L 262.731,122.465 L 263.285,122.420 L 263.476,122.563 L 264.252,122.176 L 264.690,122.366 L 265.249,122.131 L 265.669,122.156 L 266.308,121.930 Z"/>
<path class="constraint hard-constraint" id="frontier-rhone-languedoc-provence" d="M 305.793,605.124 L 305.759,605.262"/>
</svg>
