<?xml version="1.0" encoding="UTF-8"?>
<svg xmlns="http://www.w3.org/2000/svg" width="1000" height="740" viewBox="0 0 1000 740">
<title>official-1444-reconstruction-v2 — hre</title><desc>Deterministic M25 review: provinces, ownership, hierarchy, uncertainty, historical constraints, and forbidden modern outlines.</desc>
<style>.province{stroke:#222;stroke-width:.7;vector-effect:non-scaling-stroke}.constraint{fill:none;stroke-width:3;vector-effect:non-scaling-stroke}.hard-constraint{stroke:#111}.soft-evidence{stroke:#d28b00;stroke-dasharray:7 5}.forbidden-modern{stroke:#d00000;stroke-dasharray:2 4}</style>
<rect width="1000" height="740" fill="#f7f3e8"/><text x="35" y="25" font-family="sans-serif" font-size="16">official-1444-reconstruction-v2 — hre</text>
<path class="province" id="prv_0d850347016861f89cc8" data-owner="duchy-of-schleswig" data-area="area-1444-duchy-of-schleswig" data-uncertainty="0.250" fill="#1d3a6c" fill-opacity="0.750" d="M 169.149,520.297 L 280.718,471.969 L 295.251,472.051 L 298.609,470.620 L 301.279,471.811 L 304.509,472.155 L 311.177,471.963 L 312.888,472.651 L 317.205,476.009 L 336.329,496.077 L 344.229,501.601 L 349.745,504.288 L 352.448,506.358 L 355.134,512.299 L 368.630,524.139 L 371.636,525.770 L 375.282,526.746 L 379.967,527.082 L 382.413,527.793 L 394.086,532.582 L 407.326,534.341 L 418.135,535.780 L 420.694,535.141 L 418.247,532.582 L 410.876,530.008 L 393.254,528.793 L 386.059,527.082 L 371.892,521.613 L 365.432,517.264 L 363.129,510.995 L 362.553,505.639 L 361.786,502.217 L 359.819,501.145 L 350.593,498.091 L 347.634,497.452 L 342.837,494.845 L 338.248,488.937 L 335.146,482.597 L 334.858,478.671 L 327.695,476.992 L 315.286,470.636 L 307.867,467.950 L 300.527,466.926 L 292.606,466.820 L 330.798,450.276 L 508.722,488.053 L 522.295,595.598 L 360.680,665.000 L 185.431,627.466 L 171.497,535.751 L 171.886,534.533 L 171.208,533.849 L 169.149,520.297 Z"/>
<path class="province" id="prv_15cc89f6180a5e76ff39" data-owner="county-of-holstein" data-area="area-1444-county-of-holstein" data-uncertainty="0.250" fill="#c25da6" fill-opacity="0.750" d="M 266.421,349.134 L 289.654,339.301 L 315.479,344.399 L 297.813,381.692 L 297.563,381.806 L 296.223,382.501 L 294.285,369.353 L 268.683,364.191 L 266.421,349.134 Z"/>
<path class="province" id="prv_1f0a50201f346791055a" data-owner="county-of-holstein" data-area="area-1444-county-of-holstein" data-uncertainty="0.250" fill="#c25da6" fill-opacity="0.750" d="M 220.432,350.734 L 222.575,350.062 L 222.927,348.951 L 222.031,347.760 L 220.432,346.840 L 226.653,343.346 L 233.560,341.499 L 241.332,341.236 L 249.966,342.571 L 249.055,342.811 L 248.623,343.402 L 248.527,344.282 L 248.735,345.369 L 245.121,347.400 L 242.627,349.822 L 239.781,352.037 L 235.191,353.420 L 226.653,353.804 L 222.607,352.948 L 220.432,350.734 Z"/>
<path class="province" id="prv_2116809de11124f8dae7" data-owner="county-of-holstein" data-area="area-1444-county-of-holstein" data-uncertainty="0.250" fill="#c25da6" fill-opacity="0.750" d="M 177.803,344.537 L 179.018,341.371 L 182.568,339.772 L 184.007,339.373 L 185.398,338.845 L 198.046,335.711 L 198.446,337.838 L 196.863,342.651 L 192.322,346.848 L 186.725,348.719 L 182.312,348.671 L 179.817,347.376 L 177.803,344.537 Z"/>
<path class="province" id="prv_23d842e04926c64666bf" data-owner="duchy-of-schleswig" data-area="area-1444-duchy-of-schleswig" data-uncertainty="0.250" fill="#1d3a6c" fill-opacity="0.750" d="M 224.462,438.304 L 232.025,436.241 L 235.719,436.073 L 240.420,436.841 L 244.998,438.656 L 231.286,444.565 L 229.365,444.177 L 224.462,438.304 Z"/>
<path class="province" id="prv_2680acaf492e23a5d341" data-owner="duchy-of-schleswig" data-area="area-1444-duchy-of-schleswig" data-uncertainty="0.250" fill="#1d3a6c" fill-opacity="0.750" d="M 224.389,415.282 L 226.700,414.285 L 240.114,416.996 L 234.696,418.540 L 231.162,420.867 L 229.835,420.867 L 224.462,415.374 L 224.389,415.282 Z"/>
<path class="province" id="prv_2c6b628c1f1005be5a92" data-owner="duchy-of-schleswig" data-area="area-1444-duchy-of-schleswig" data-uncertainty="0.250" fill="#1d3a6c" fill-opacity="0.750" d="M 239.943,392.510 L 241.891,391.581 L 244.929,389.134 L 248.000,386.016 L 247.272,386.755 L 247.643,389.208 L 239.943,392.510 Z"/>
<path class="province" id="prv_30de1c6482f3497b517b" data-owner="duchy-of-schleswig" data-area="area-1444-duchy-of-schleswig" data-uncertainty="0.250" fill="#1d3a6c" fill-opacity="0.750" d="M 264.110,463.881 L 330.798,450.276 L 292.606,466.820 L 275.567,466.591 L 268.099,464.544 L 264.110,463.881 Z"/>
<path class="province" id="prv_355554df8b624cc0d589" data-owner="county-of-holstein" data-area="area-1444-county-of-holstein" data-uncertainty="0.250" fill="#c25da6" fill-opacity="0.750" d="M 196.537,378.994 L 219.780,369.015 L 245.362,374.125 L 246.768,383.422 L 245.473,383.570 L 238.070,387.335 L 233.848,388.431 L 234.232,387.775 L 234.792,386.376 L 235.191,385.744 L 229.227,386.160 L 218.977,388.007 L 212.933,388.431 L 205.913,387.719 L 202.875,388.431 L 202.321,388.744 L 197.711,386.566 L 196.537,378.994 Z"/>
<path class="province" id="prv_54563625f2adc298acf6" data-owner="county-of-holstein" data-area="area-1444-county-of-holstein" data-uncertainty="0.250" fill="#c25da6" fill-opacity="0.750" d="M 235.872,328.685 L 279.152,337.228 L 238.517,329.207 L 238.893,331.664 L 238.437,331.378 L 236.151,329.291 L 235.872,328.685 Z"/>
<path class="province" id="prv_59e4cf6865825e709c22" data-owner="duchy-of-schleswig" data-area="area-1444-duchy-of-schleswig" data-uncertainty="0.250" fill="#1d3a6c" fill-opacity="0.750" d="M 226.481,398.282 L 239.796,392.573 L 236.423,392.764 L 239.813,392.572 L 239.943,392.510 L 247.643,389.208 L 247.272,386.755 L 248.000,386.016 L 249.637,383.554 L 250.380,383.496 L 251.379,383.176 L 252.189,382.564 L 253.268,381.443 L 255.764,380.223 L 256.203,378.787 L 254.010,377.332 L 253.605,376.389 L 253.707,374.561 L 254.584,373.401 L 256.742,371.947 L 257.455,371.564 L 258.530,371.152 L 259.112,370.995 L 260.031,371.024 L 261.237,371.049 L 261.911,371.220 L 262.270,371.346 L 262.506,371.525 L 262.780,371.891 L 262.814,372.222 L 265.040,373.342 L 266.996,373.264 L 269.458,373.932 L 271.866,374.224 L 272.848,374.232 L 273.451,374.048 L 273.881,373.728 L 274.231,373.156 L 274.484,372.733 L 274.821,372.692 L 275.289,372.785 L 276.643,373.539 L 277.924,373.893 L 278.211,374.286 L 278.135,375.028 L 278.422,375.372 L 280.319,376.114 L 280.960,376.227 L 282.157,376.335 L 282.891,376.497 L 283.523,376.753 L 283.903,377.087 L 283.937,377.583 L 283.760,378.050 L 283.793,378.375 L 284.012,378.586 L 284.839,379.151 L 285.117,379.196 L 286.576,379.205 L 287.208,379.323 L 287.326,379.603 L 286.955,379.800 L 285.682,380.287 L 285.328,380.513 L 285.269,380.872 L 285.699,382.362 L 286.179,382.667 L 288.566,383.060 L 289.789,383.164 L 290.876,383.218 L 291.205,383.090 L 291.011,382.839 L 289.215,381.482 L 288.996,381.177 L 289.266,380.754 L 290.303,380.135 L 291.045,379.810 L 291.753,379.704 L 293.246,379.776 L 295.345,380.100 L 295.843,380.439 L 295.835,380.872 L 295.059,381.836 L 294.612,382.844 L 294.570,383.356 L 294.890,383.528 L 295.337,383.302 L 296.206,382.510 L 296.223,382.501 L 296.510,384.444 L 296.510,384.444 L 260.490,391.802 L 226.680,398.708 L 227.084,399.576 L 226.481,398.282 Z"/>
<path class="province" id="prv_5a503c7607076bd63ad7" data-owner="duchy-of-schleswig" data-area="area-1444-duchy-of-schleswig" data-uncertainty="0.250" fill="#1d3a6c" fill-opacity="0.750" d="M 252.270,419.976 L 252.430,419.333 L 275.434,409.483 L 300.943,414.687 L 303.152,429.839 L 279.908,439.780 L 258.941,435.497 L 259.768,433.483 L 260.856,429.270 L 260.808,426.231 L 258.521,424.217 L 254.875,422.306 L 252.334,420.408 L 252.270,419.976 Z"/>
<path class="province" id="prv_5be84e1dc7ad79b9c578" data-owner="county-of-holstein" data-area="area-1444-county-of-holstein" data-uncertainty="0.250" fill="#c25da6" fill-opacity="0.750" d="M 238.437,331.378 L 238.893,331.664 L 238.517,329.207 L 289.654,339.301 L 266.421,349.134 L 259.475,347.748 L 259.480,345.977 L 254.476,341.467 L 238.437,331.378 Z"/>
<path class="province" id="prv_60084646f361104f085a" data-owner="county-of-holstein" data-area="area-1444-county-of-holstein" data-uncertainty="0.250" fill="#c25da6" fill-opacity="0.750" d="M 221.648,326.469 L 222.639,326.073 L 226.488,326.832 L 225.198,327.044 L 222.991,327.940 L 221.648,326.469 Z"/>
<path class="province" id="prv_666c09cc7f6dea5437b1" data-owner="county-of-holstein" data-area="area-1444-county-of-holstein" data-uncertainty="0.250" fill="#c25da6" fill-opacity="0.750" d="M 297.813,381.692 L 315.479,344.399 L 322.025,389.643 L 309.731,387.138 L 309.950,386.873 L 310.810,386.440 L 310.861,386.165 L 310.355,386.017 L 308.922,385.929 L 308.298,385.633 L 308.011,384.895 L 308.196,384.659 L 308.770,384.639 L 310.507,384.964 L 310.996,384.905 L 311.165,384.649 L 310.979,384.010 L 310.406,383.351 L 310.574,382.898 L 311.401,382.397 L 311.780,381.895 L 311.810,381.676 L 311.717,381.504 L 311.232,381.216 L 309.798,381.000 L 308.820,380.557 L 308.483,380.115 L 308.500,379.702 L 309.360,379.200 L 309.849,378.846 L 309.697,378.492 L 308.854,378.030 L 308.281,377.863 L 307.825,377.883 L 306.426,378.532 L 305.667,378.610 L 304.840,378.571 L 304.081,378.325 L 303.070,377.500 L 302.311,377.264 L 300.422,377.411 L 300.455,377.883 L 302.091,378.620 L 302.327,378.984 L 302.277,379.377 L 301.940,379.889 L 301.771,380.469 L 301.923,381.305 L 301.737,381.796 L 301.299,382.131 L 300.742,382.023 L 299.444,381.383 L 298.533,381.364 L 297.813,381.692 Z"/>
<path class="province" id="prv_7cb1f818fa60f1725ae0" data-owner="county-of-holstein" data-area="area-1444-county-of-holstein" data-uncertainty="0.250" fill="#c25da6" fill-opacity="0.750" d="M 219.032,364.157 L 229.835,364.157 L 234.824,363.374 L 238.981,361.855 L 247.280,357.569 L 254.859,355.387 L 258.137,353.924 L 259.465,350.734 L 259.475,347.748 L 266.421,349.134 L 268.683,364.191 L 245.362,374.125 L 219.780,369.015 L 219.032,364.157 Z"/>
<path class="province" id="prv_7f8ae7c3228a17482bcb" data-owner="duchy-of-schleswig" data-area="area-1444-duchy-of-schleswig" data-uncertainty="0.250" fill="#1d3a6c" fill-opacity="0.750" d="M 229.365,444.177 L 231.286,444.565 L 244.998,438.656 L 248.143,439.903 L 252.365,440.735 L 256.666,439.527 L 258.169,437.377 L 258.941,435.497 L 279.908,439.780 L 282.136,454.958 L 294.918,457.596 L 264.110,463.881 L 263.094,463.712 L 260.929,464.530 L 258.968,464.930 L 238.472,455.086 L 240.708,457.764 L 231.637,446.899 L 229.365,444.177 Z"/>
<path class="province" id="prv_818ab9a795d0a191c07a" data-owner="duchy-of-schleswig" data-area="area-1444-duchy-of-schleswig" data-uncertainty="0.250" fill="#1d3a6c" fill-opacity="0.750" d="M 279.908,439.780 L 303.152,429.839 L 328.600,435.085 L 330.798,450.276 L 294.918,457.596 L 282.136,454.958 L 279.908,439.780 Z"/>
<path class="province" id="prv_84d4282bd673191b8f63" data-owner="duchy-of-schleswig" data-area="area-1444-duchy-of-schleswig" data-uncertainty="0.250" fill="#1d3a6c" fill-opacity="0.750" d="M 296.510,384.444 L 297.813,381.692 L 298.533,381.364 L 299.444,381.383 L 300.742,382.023 L 301.299,382.131 L 301.737,381.796 L 301.923,381.305 L 301.771,380.469 L 301.940,379.889 L 302.277,379.377 L 302.327,378.984 L 302.091,378.620 L 300.455,377.883 L 300.422,377.411 L 302.311,377.264 L 303.070,377.500 L 304.081,378.325 L 304.840,378.571 L 305.667,378.610 L 306.426,378.532 L 307.825,377.883 L 308.281,377.863 L 308.854,378.030 L 309.697,378.492 L 309.849,378.846 L 309.360,379.200 L 308.500,379.702 L 308.483,380.115 L 308.820,380.557 L 309.798,381.000 L 311.232,381.216 L 311.717,381.504 L 311.810,381.676 L 311.780,381.895 L 311.401,382.397 L 310.574,382.898 L 310.406,383.351 L 310.979,384.010 L 311.165,384.649 L 310.996,384.905 L 310.507,384.964 L 308.770,384.639 L 308.196,384.659 L 308.011,384.895 L 308.298,385.633 L 308.922,385.929 L 310.355,386.017 L 310.861,386.165 L 310.810,386.440 L 309.950,386.873 L 309.731,387.138 L 296.510,384.444 Z"/>
<path class="province" id="prv_8d22be4e6c2d3cf94a75" data-owner="duchy-of-schleswig" data-area="area-1444-duchy-of-schleswig" data-uncertainty="0.250" fill="#1d3a6c" fill-opacity="0.750" d="M 260.573,391.785 L 296.510,384.444 L 296.510,384.444 L 296.223,382.501 L 297.563,381.806 L 297.813,381.692 L 296.510,384.444 L 260.573,391.785 Z"/>
<path class="province" id="prv_a88c333d087af92d75d4" data-owner="county-of-holstein" data-area="area-1444-county-of-holstein" data-uncertainty="0.250" fill="#c25da6" fill-opacity="0.750" d="M 178.586,379.036 L 179.841,378.124 L 202.321,388.744 L 202.875,388.431 L 196.335,392.124 L 194.033,392.572 L 188.804,391.461 L 183.207,388.463 L 179.146,384.145 L 178.586,379.036 Z"/>
<path class="province" id="prv_a8a725c07d7e256874e5" data-owner="duchy-of-schleswig" data-area="area-1444-duchy-of-schleswig" data-uncertainty="0.250" fill="#1d3a6c" fill-opacity="0.750" d="M 273.189,394.365 L 296.510,384.444 L 296.510,384.444 L 296.510,384.444 L 322.025,389.643 L 324.218,404.798 L 300.943,414.687 L 275.434,409.483 L 273.189,394.365 Z"/>
<path class="province" id="prv_adb53ea53c830dbe7ffb" data-owner="duchy-of-schleswig" data-area="area-1444-duchy-of-schleswig" data-uncertainty="0.150" fill="#1d3a6c" fill-opacity="0.850" d="M 315.479,344.399 L 442.304,291.909 L 443.384,292.298 L 447.893,295.615 L 450.579,302.323 L 451.827,303.890 L 453.601,305.377 L 457.279,307.680 L 454.753,308.807 L 452.162,308.616 L 449.732,307.968 L 447.893,307.680 L 448.005,308.112 L 443.144,310.350 L 442.520,310.366 L 441.257,310.870 L 440.410,310.822 L 439.930,311.246 L 439.834,313.053 L 442.712,313.165 L 447.845,312.261 L 452.978,312.093 L 455.936,314.396 L 458.047,313.341 L 460.285,313.245 L 461.373,314.444 L 459.966,317.202 L 460.957,319.929 L 461.085,323.822 L 459.966,331.953 L 458.974,335.439 L 457.631,338.213 L 455.744,340.476 L 453.266,342.571 L 446.934,346.009 L 439.018,348.575 L 430.512,350.198 L 422.277,350.734 L 422.277,352.077 L 430.767,354.667 L 478.194,348.055 L 481.872,348.823 L 493.753,354.883 L 489.835,357.170 L 489.819,359.320 L 491.370,361.727 L 492.410,364.885 L 491.274,367.515 L 488.492,369.962 L 484.942,371.721 L 481.552,372.320 L 482.064,372.760 L 482.736,373.096 L 482.832,373.712 L 481.552,375.007 L 483.663,376.342 L 484.255,377.989 L 483.487,379.844 L 481.552,381.723 L 485.870,380.787 L 489.132,378.437 L 493.753,372.320 L 496.359,365.804 L 497.782,364.157 L 499.749,363.390 L 507.169,362.926 L 509.855,362.007 L 511.166,360.943 L 512.174,359.848 L 513.996,358.793 L 516.251,358.361 L 524.598,358.793 L 528.915,360.040 L 540.812,365.613 L 571.801,373.664 L 589.310,383.330 L 597.385,384.513 L 606.388,383.546 L 613.008,381.139 L 624.233,375.007 L 630.709,372.560 L 637.473,370.889 L 653.879,369.642 L 653.879,370.977 L 650.345,371.081 L 645.436,371.113 L 648.842,372.009 L 652.248,371.353 L 656.853,373.232 L 667.993,369.224 L 668.694,375.185 L 667.422,376.350 L 666.255,375.782 L 663.265,375.007 L 665.392,378.221 L 667.199,386.040 L 668.750,389.758 L 667.294,392.236 L 667.422,395.578 L 668.750,401.239 L 667.902,404.597 L 666.015,406.388 L 664.128,407.627 L 663.265,409.330 L 640.447,418.060 L 632.564,424.009 L 629.126,425.320 L 621.179,426.935 L 619.644,426.903 L 617.981,427.782 L 616.654,427.223 L 615.262,426.335 L 613.503,426.231 L 611.952,426.823 L 611.169,427.343 L 603.590,434.298 L 601.575,435.618 L 601.575,436.841 L 604.181,440.679 L 607.043,443.509 L 610.817,445.356 L 612.155,445.607 L 508.722,488.053 L 330.798,450.276 L 315.479,344.399 Z"/>
<path class="province" id="prv_ae16108be32d76f93c90" data-owner="duchy-of-schleswig" data-area="area-1444-duchy-of-schleswig" data-uncertainty="0.250" fill="#1d3a6c" fill-opacity="0.750" d="M 225.693,396.594 L 225.693,395.250 L 228.108,394.171 L 236.423,392.764 L 239.796,392.573 L 226.481,398.282 L 225.693,396.594 Z"/>
<path class="province" id="prv_af88c6801c70d39d04d0" data-owner="county-of-holstein" data-area="area-1444-county-of-holstein" data-uncertainty="0.250" fill="#c25da6" fill-opacity="0.750" d="M 178.586,379.036 L 181.368,377.014 L 183.569,376.427 L 183.569,376.427 L 186.741,375.582 L 192.769,374.871 L 197.391,375.007 L 197.391,373.664 L 193.857,373.176 L 191.154,371.673 L 188.564,371.193 L 185.446,373.664 L 183.767,371.505 L 184.343,369.290 L 186.165,367.236 L 188.132,365.613 L 192.322,366.708 L 208.248,364.157 L 219.032,364.157 L 219.780,369.015 L 196.537,378.994 L 197.711,386.566 L 179.841,378.124 L 178.586,379.036 Z"/>
<path class="province" id="prv_b86b8227a1c87eab92ae" data-owner="duchy-of-schleswig" data-area="area-1444-duchy-of-schleswig" data-uncertainty="0.250" fill="#1d3a6c" fill-opacity="0.750" d="M 300.943,414.687 L 324.218,404.798 L 328.600,435.085 L 303.152,429.839 L 300.943,414.687 Z"/>
<path class="province" id="prv_ce318a455ffdee76361c" data-owner="duchy-of-schleswig" data-area="area-1444-duchy-of-schleswig" data-uncertainty="0.250" fill="#1d3a6c" fill-opacity="0.750" d="M 252.189,420.299 L 252.270,419.976 L 252.334,420.408 L 252.189,420.299 Z"/>
<path class="province" id="prv_d3ab4743209768232785" data-owner="kingdom-of-denmark" data-area="area-1444-kingdom-of-denmark" data-uncertainty="0.150" fill="#62fa53" fill-opacity="0.850" d="M 819.183,142.982 L 962.332,89.630 L 962.538,89.926 L 965.000,92.308 L 964.169,94.227 L 963.753,96.849 L 963.529,101.023 L 962.410,104.413 L 962.186,105.724 L 962.442,106.667 L 963.145,107.675 L 965.000,109.753 L 960.875,112.800 L 952.975,121.482 L 945.556,124.400 L 944.277,126.807 L 942.390,129.150 L 938.041,129.997 L 934.811,129.341 L 932.492,128.254 L 929.918,127.383 L 925.968,127.311 L 911.769,131.988 L 907.979,134.234 L 895.475,141.646 L 895.443,141.670 L 885.593,153.191 L 890.853,163.528 L 900.400,168.373 L 903.758,169.021 L 915.846,169.509 L 919.140,170.364 L 927.647,174.482 L 932.092,177.520 L 934.027,180.430 L 934.363,183.804 L 935.258,186.650 L 938.041,191.943 L 935.130,194.022 L 934.027,194.637 L 923.777,198.811 L 882.587,204.335 L 879.484,206.270 L 874.448,208.109 L 870.466,211.435 L 868.099,215.433 L 869.267,218.775 L 867.780,220.470 L 866.117,221.189 L 864.374,221.029 L 862.535,220.118 L 863.990,215.896 L 861.735,213.226 L 857.754,212.490 L 853.900,214.089 L 852.141,215.049 L 850.606,215.385 L 849.551,216.072 L 849.119,218.103 L 850.190,218.910 L 855.835,221.453 L 872.321,222.276 L 879.804,223.732 L 881.451,228.289 L 880.348,230.224 L 879.101,231.039 L 877.662,231.455 L 875.967,232.198 L 871.905,233.486 L 869.954,234.525 L 871.377,235.005 L 878.765,244.383 L 878.557,248.117 L 875.935,250.131 L 871.905,250.947 L 867.300,251.099 L 864.262,251.794 L 858.816,254.207 L 839.433,249.851 L 835.639,247.781 L 830.449,247.223 L 819.183,142.982 Z"/>
<path class="province" id="prv_dc69f73badfc9cea9238" data-owner="free-city-of-lubeck" data-area="area-1444-free-city-of-lubeck" data-uncertainty="0.150" fill="#4bb1f3" fill-opacity="0.850" d="M 508.722,488.053 L 612.155,445.607 L 616.174,446.363 L 623.769,445.899 L 625.720,446.363 L 627.111,448.402 L 627.303,450.744 L 628.055,452.551 L 630.949,453.055 L 631.716,453.087 L 634.003,453.175 L 634.978,453.055 L 637.489,451.896 L 643.245,448.330 L 646.491,447.578 L 650.233,447.115 L 660.691,443.797 L 684.580,441.926 L 686.307,442.318 L 687.666,443.437 L 688.945,446.203 L 690.336,447.578 L 697.324,448.714 L 698.395,449.705 L 697.484,454.182 L 697.916,456.229 L 700.410,457.084 L 706.263,457.316 L 707.894,457.084 L 715.841,453.055 L 717.344,453.655 L 719.359,456.437 L 720.574,457.084 L 728.761,457.084 L 728.857,457.700 L 736.388,463.321 L 737.875,463.904 L 740.114,463.904 L 740.370,461.834 L 742.352,458.676 L 743.872,454.758 L 743.008,451.592 L 744.463,450.153 L 746.366,449.273 L 748.013,449.033 L 747.629,448.154 L 747.150,445.931 L 746.798,445.004 L 753.514,440.990 L 753.514,439.527 L 752.170,439.527 L 752.170,438.304 L 757.191,439.535 L 758.886,439.527 L 759.056,439.453 L 852.608,460.594 L 863.375,568.464 L 698.356,635.657 L 522.295,595.598 L 508.722,488.053 Z"/>
<path class="province" id="prv_e4ec60d4327f30ad088e" data-owner="county-of-holstein" data-area="area-1444-county-of-holstein" data-uncertainty="0.250" fill="#c25da6" fill-opacity="0.750" d="M 245.362,374.125 L 268.683,364.191 L 294.285,369.353 L 296.223,382.501 L 296.206,382.510 L 295.337,383.302 L 294.890,383.528 L 294.570,383.356 L 294.612,382.844 L 295.059,381.836 L 295.835,380.872 L 295.843,380.439 L 295.345,380.100 L 293.246,379.776 L 291.753,379.704 L 291.045,379.810 L 290.303,380.135 L 289.266,380.754 L 288.996,381.177 L 289.215,381.482 L 291.011,382.839 L 291.205,383.090 L 290.876,383.218 L 289.789,383.164 L 288.566,383.060 L 286.179,382.667 L 285.699,382.362 L 285.269,380.872 L 285.328,380.513 L 285.682,380.287 L 286.955,379.800 L 287.326,379.603 L 287.208,379.323 L 286.576,379.205 L 285.117,379.196 L 284.839,379.151 L 284.012,378.586 L 283.793,378.375 L 283.760,378.050 L 283.937,377.583 L 283.903,377.087 L 283.523,376.753 L 282.891,376.497 L 282.157,376.335 L 280.960,376.227 L 280.319,376.114 L 278.422,375.372 L 278.135,375.028 L 278.211,374.286 L 277.924,373.893 L 276.643,373.539 L 275.289,372.785 L 274.821,372.692 L 274.484,372.733 L 274.231,373.156 L 273.881,373.728 L 273.451,374.048 L 272.848,374.232 L 271.866,374.224 L 269.458,373.932 L 266.996,373.264 L 265.040,373.342 L 262.814,372.222 L 262.780,371.891 L 262.506,371.525 L 262.270,371.346 L 261.911,371.220 L 261.237,371.049 L 260.031,371.024 L 259.112,370.995 L 258.530,371.152 L 257.455,371.564 L 256.742,371.947 L 254.584,373.401 L 253.707,374.561 L 253.605,376.389 L 254.010,377.332 L 256.203,378.787 L 255.764,380.223 L 253.268,381.443 L 252.189,382.564 L 251.379,383.176 L 250.380,383.496 L 249.637,383.554 L 249.966,383.058 L 245.473,383.570 L 246.768,383.422 L 245.362,374.125 Z"/>
<path class="province" id="prv_e5d767bbf5e837128c8f" data-owner="duchy-of-schleswig" data-area="area-1444-duchy-of-schleswig" data-uncertainty="0.250" fill="#1d3a6c" fill-opacity="0.750" d="M 220.432,410.001 L 222.031,406.068 L 224.948,402.779 L 225.038,402.678 L 227.084,399.576 L 226.680,398.708 L 260.490,391.802 L 296.510,384.444 L 273.189,394.365 L 275.434,409.483 L 252.430,419.333 L 252.749,418.060 L 252.749,416.837 L 247.952,415.974 L 241.092,416.717 L 240.114,416.996 L 226.700,414.285 L 224.389,415.282 L 220.992,410.961 L 220.432,410.001 Z"/>
<path class="province" id="prv_ff06d89cb7fcb7a854da" data-owner="county-of-holstein" data-area="area-1444-county-of-holstein" data-uncertainty="0.250" fill="#c25da6" fill-opacity="0.750" d="M 150.875,228.649 L 151.147,223.947 L 152.378,219.190 L 153.114,214.089 L 156.791,210.236 L 164.962,209.532 L 173.229,210.923 L 177.387,213.418 L 174.748,213.818 L 172.622,214.833 L 169.200,217.431 L 169.807,219.630 L 181.512,220.613 L 192.226,222.077 L 196.191,221.157 L 195.744,217.423 L 192.130,210.732 L 189.603,202.313 L 188.132,193.910 L 188.516,191.655 L 190.275,188.889 L 190.675,187.194 L 190.339,184.683 L 188.132,179.758 L 187.383,176.015 L 284.049,135.638 L 360.714,150.652 L 358.380,151.088 L 355.070,152.807 L 358.524,154.046 L 362.218,153.910 L 370.819,152.631 L 387.203,155.839 L 387.722,157.276 L 386.874,159.963 L 384.716,162.313 L 382.029,163.361 L 375.377,164.128 L 372.499,164.992 L 373.539,167.174 L 375.953,170.148 L 376.657,171.707 L 376.113,173.914 L 374.962,175.617 L 375.266,177.080 L 379.247,178.527 L 381.678,179.814 L 383.996,181.637 L 384.588,183.564 L 381.901,185.115 L 381.901,186.578 L 383.916,187.882 L 391.192,195.013 L 393.606,195.605 L 395.941,196.892 L 396.772,200.114 L 396.037,202.409 L 394.646,203.824 L 393.350,205.551 L 392.743,208.717 L 391.687,210.156 L 389.161,211.163 L 386.059,211.755 L 383.373,211.955 L 371.828,210.732 L 369.173,211.147 L 367.542,212.195 L 366.247,213.498 L 364.472,214.761 L 359.739,216.472 L 356.861,217.160 L 354.350,217.431 L 352.767,218.279 L 352.767,220.014 L 354.398,221.453 L 357.788,221.453 L 357.788,222.804 L 352.000,222.692 L 349.313,223.084 L 346.915,224.275 L 348.898,225.123 L 351.360,225.458 L 357.037,225.490 L 359.643,226.210 L 362.489,227.977 L 367.158,232.198 L 362.074,236.044 L 358.716,237.867 L 355.070,239.018 L 346.099,240.066 L 342.550,241.601 L 344.229,244.383 L 346.659,244.423 L 357.788,241.832 L 362.793,242.024 L 364.472,241.832 L 365.911,241.193 L 367.286,240.249 L 368.917,239.394 L 371.156,239.018 L 375.409,240.058 L 383.325,245.102 L 387.402,247.069 L 398.195,248.748 L 400.834,249.876 L 402.337,252.738 L 406.686,267.649 L 407.166,268.536 L 406.846,269.136 L 404.959,269.999 L 402.033,270.047 L 399.267,269.088 L 396.996,268.904 L 395.429,271.342 L 397.892,271.814 L 400.226,272.662 L 402.177,273.829 L 403.488,275.252 L 404.240,276.907 L 404.624,279.186 L 403.776,281.200 L 400.882,282.080 L 398.595,281.232 L 395.797,277.555 L 394.086,276.707 L 385.915,277.059 L 383.373,276.707 L 379.679,275.444 L 379.951,274.660 L 381.550,273.909 L 381.901,272.686 L 378.432,269.759 L 377.136,267.992 L 378.544,267.193 L 383.788,266.018 L 382.733,263.763 L 378.048,262.204 L 372.499,263.179 L 371.412,264.347 L 368.821,268.344 L 366.615,270.527 L 365.384,272.022 L 364.472,272.686 L 362.985,272.965 L 359.803,272.694 L 358.428,273.357 L 355.070,275.636 L 346.883,279.665 L 344.229,282.080 L 342.933,286.221 L 343.173,286.229 L 345.908,286.237 L 357.612,282.807 L 361.338,280.121 L 366.135,279.018 L 368.598,276.451 L 371.156,275.252 L 371.796,282.328 L 381.310,284.366 L 393.382,284.734 L 401.553,286.837 L 404.991,288.348 L 410.092,289.619 L 414.745,291.538 L 416.792,294.944 L 419.063,296.775 L 424.196,296.263 L 433.134,294.272 L 432.367,290.187 L 437.004,290.003 L 442.304,291.909 L 315.479,344.399 L 235.872,328.685 L 235.191,327.204 L 233.384,326.293 L 229.339,326.365 L 226.488,326.832 L 222.639,326.073 L 228.380,323.782 L 221.520,313.101 L 218.977,310.366 L 213.333,308.320 L 202.715,302.907 L 196.047,300.988 L 196.047,299.637 L 197.151,296.087 L 194.592,292.090 L 190.771,288.156 L 188.132,284.766 L 187.013,279.593 L 187.892,275.036 L 190.563,269.352 L 192.130,265.970 L 190.675,264.634 L 193.313,259.206 L 191.650,254.217 L 188.516,249.372 L 186.661,244.383 L 187.413,238.027 L 189.715,232.766 L 192.546,227.929 L 194.704,222.804 L 173.805,220.661 L 171.470,220.805 L 170.735,222.436 L 170.239,230.040 L 169.008,231.023 L 167.089,231.239 L 164.579,232.870 L 161.876,235.069 L 158.838,236.092 L 155.800,235.692 L 153.114,233.534 L 150.875,228.649 Z"/>
<path class="constraint forbidden-modern" id="forbidden-modern-schleswig-holstein" d="M 196.803,433.588 L 196.436,433.382 L 196.752,432.915 L 198.271,432.151 L 197.750,431.802 L 196.631,431.920 L 195.474,432.512 L 194.113,434.441 L 194.764,435.877 L 197.028,436.492 L 198.706,435.992 L 196.634,436.040 L 195.168,435.203 L 196.497,435.109 L 196.797,434.525 L 198.292,434.130 L 198.077,433.810 L 196.803,433.588 Z"/>
<path class="constraint forbidden-modern" id="forbidden-modern-schleswig-holstein" d="M 40.972,408.290 L 39.385,407.541 L 38.076,407.856 L 37.589,408.461 L 35.000,408.559 L 36.576,409.206 L 37.787,410.574 L 38.624,410.777 L 39.272,412.095 L 40.208,412.190 L 40.978,411.688 L 42.581,412.282 L 42.765,410.004 L 42.375,409.650 L 43.191,409.965 L 44.641,409.839 L 45.129,409.098 L 44.959,408.383 L 43.658,408.185 L 41.625,408.684 L 40.972,408.290 Z"/>
<path class="constraint forbidden-modern" id="forbidden-modern-schleswig-holstein" d="M 666.389,359.225 L 667.587,359.815 L 668.132,359.380 L 666.389,359.225 Z"/>
<path class="constraint forbidden-modern" id="forbidden-modern-schleswig-holstein" d="M 205.323,353.583 L 201.893,353.815 L 203.612,354.624 L 205.323,353.583 Z"/>
<path class="constraint forbidden-modern" id="forbidden-modern-schleswig-holstein" d="M 169.329,355.134 L 170.625,354.714 L 171.141,354.140 L 168.338,353.385 L 167.803,354.012 L 168.690,354.961 L 169.329,355.134 Z"/>
<path class="constraint forbidden-modern" id="forbidden-modern-schleswig-holstein" d="M 161.004,341.853 L 162.243,341.520 L 161.486,341.429 L 160.382,341.798 L 161.004,341.853 Z"/>
<path class="constraint forbidden-modern" id="forbidden-modern-schleswig-holstein" d="M 667.115,341.214 L 664.785,340.874 L 663.591,340.127 L 662.806,340.333 L 658.317,343.113 L 656.306,344.902 L 652.210,350.648 L 651.019,357.241 L 651.937,358.683 L 657.692,361.003 L 659.446,361.313 L 658.780,360.817 L 657.543,360.683 L 656.653,359.570 L 655.815,359.808 L 654.521,359.511 L 654.675,358.238 L 655.145,358.060 L 655.730,358.444 L 656.264,358.409 L 657.445,357.725 L 659.592,357.466 L 660.017,357.492 L 660.206,357.972 L 660.656,357.908 L 660.667,357.095 L 662.599,356.493 L 664.699,357.132 L 664.882,357.965 L 665.197,357.097 L 666.697,357.286 L 667.844,358.022 L 668.872,357.939 L 669.150,359.705 L 669.982,359.727 L 670.185,360.667 L 668.831,362.438 L 669.304,363.429 L 668.878,364.997 L 671.783,365.578 L 672.620,366.060 L 673.526,366.054 L 673.951,366.462 L 675.701,366.239 L 684.166,366.579 L 685.595,366.199 L 686.900,365.136 L 688.983,365.553 L 689.661,365.040 L 691.911,364.656 L 695.353,364.468 L 700.286,364.642 L 705.180,365.818 L 711.617,366.426 L 711.481,365.064 L 710.637,364.592 L 710.088,363.329 L 709.478,363.022 L 708.751,360.825 L 705.088,357.847 L 704.313,355.690 L 702.963,354.465 L 699.819,352.771 L 697.700,348.312 L 696.140,347.272 L 695.901,345.873 L 695.214,345.848 L 694.400,346.303 L 692.768,346.361 L 688.849,345.441 L 687.657,344.986 L 687.224,344.249 L 682.698,342.804 L 676.770,342.486 L 673.087,341.705 L 669.220,341.208 L 667.115,341.214 Z"/>
<path class="constraint forbidden-modern" id="forbidden-modern-schleswig-holstein" d="M 221.180,336.910 L 218.809,336.270 L 215.823,337.023 L 222.690,338.743 L 223.370,338.214 L 223.465,337.440 L 221.180,336.910 Z"/>
<path class="constraint forbidden-modern" id="forbidden-modern-schleswig-holstein" d="M 199.252,335.911 L 198.350,335.845 L 198.261,336.210 L 195.585,335.996 L 195.527,336.328 L 194.489,336.246 L 192.051,337.494 L 189.250,337.707 L 189.405,338.135 L 186.809,338.257 L 185.313,339.679 L 183.731,340.221 L 178.196,340.476 L 176.758,340.997 L 176.221,341.552 L 176.117,342.814 L 177.088,345.516 L 179.825,347.006 L 180.538,348.060 L 182.681,349.190 L 183.821,349.406 L 186.102,349.303 L 192.337,348.297 L 193.501,347.748 L 194.542,346.636 L 194.945,346.713 L 195.762,345.448 L 197.966,347.029 L 198.894,346.962 L 196.043,345.101 L 196.957,344.283 L 197.690,344.205 L 197.635,343.783 L 196.914,343.240 L 195.706,343.119 L 197.612,342.535 L 199.449,339.834 L 200.398,336.814 L 199.969,336.340 L 199.187,336.276 L 199.252,335.911 Z"/>
<path class="constraint forbidden-modern" id="forbidden-modern-schleswig-holstein" d="M 170.757,332.291 L 170.214,331.786 L 168.776,331.614 L 167.187,332.266 L 165.394,332.448 L 161.984,331.669 L 160.643,332.152 L 161.995,333.349 L 166.101,334.388 L 167.508,335.638 L 168.972,336.052 L 171.590,336.004 L 173.813,335.342 L 173.799,334.376 L 171.045,332.969 L 170.757,332.291 Z"/>
<path class="constraint forbidden-modern" id="forbidden-modern-schleswig-holstein" d="M 222.817,326.733 L 222.627,326.542 L 220.802,327.204 L 219.580,326.687 L 220.498,328.143 L 221.460,328.560 L 221.893,328.535 L 222.649,327.487 L 224.439,326.903 L 224.174,326.680 L 222.817,326.733 Z"/>
<path class="constraint forbidden-modern" id="forbidden-modern-schleswig-holstein" d="M 212.310,320.305 L 211.311,320.135 L 210.285,320.549 L 212.310,320.305 Z"/>
<path class="constraint forbidden-modern" id="forbidden-modern-schleswig-holstein" d="M 205.392,318.939 L 200.974,319.879 L 200.291,321.364 L 202.021,322.206 L 203.898,321.897 L 206.114,320.443 L 206.188,319.003 L 205.392,318.939 Z"/>
<path class="constraint forbidden-modern" id="forbidden-modern-schleswig-holstein" d="M 189.774,318.991 L 190.511,318.403 L 191.083,316.593 L 188.805,316.247 L 187.511,317.256 L 185.882,317.900 L 179.137,319.333 L 173.321,319.860 L 169.509,320.605 L 166.915,320.418 L 165.141,321.426 L 164.636,322.207 L 164.820,322.555 L 166.873,323.113 L 168.310,324.082 L 168.434,323.623 L 170.677,322.861 L 171.141,322.244 L 172.576,322.296 L 175.596,320.868 L 177.954,320.504 L 179.122,321.088 L 180.045,321.072 L 182.634,320.451 L 184.619,320.360 L 185.083,320.226 L 184.798,320.039 L 187.812,319.848 L 189.774,318.991 Z"/>
<path class="constraint forbidden-modern" id="forbidden-modern-schleswig-holstein" d="M 198.070,311.682 L 196.449,312.583 L 194.563,312.683 L 195.028,313.413 L 195.634,313.494 L 195.677,313.227 L 200.169,313.349 L 199.965,312.886 L 200.832,311.839 L 198.070,311.682 Z"/>
<path class="constraint forbidden-modern" id="forbidden-modern-schleswig-holstein" d="M 128.003,309.191 L 128.102,308.994 L 127.518,308.912 L 128.069,308.158 L 129.884,307.182 L 131.545,305.876 L 131.314,305.674 L 129.401,306.140 L 125.182,309.226 L 124.225,309.276 L 122.439,310.371 L 118.961,313.077 L 118.409,313.857 L 118.506,314.570 L 120.764,317.121 L 128.902,323.326 L 132.545,325.751 L 134.705,326.098 L 138.756,324.806 L 139.993,323.173 L 138.659,324.056 L 137.435,322.804 L 139.684,322.384 L 138.933,321.803 L 138.248,322.142 L 136.327,321.961 L 135.264,321.131 L 135.374,320.103 L 136.037,319.788 L 133.791,318.441 L 131.672,317.790 L 131.290,316.079 L 130.652,315.567 L 129.433,312.697 L 128.484,312.055 L 127.680,310.532 L 128.003,309.191 Z"/>
<path class="constraint forbidden-modern" id="forbidden-modern-schleswig-holstein" d="M 171.914,297.733 L 165.681,296.947 L 163.117,297.794 L 163.159,297.449 L 162.363,297.897 L 161.850,297.881 L 162.356,297.545 L 161.760,297.232 L 160.185,297.705 L 156.129,298.182 L 154.653,297.680 L 153.138,297.648 L 151.612,298.121 L 146.857,298.414 L 144.676,298.849 L 141.472,300.638 L 140.172,302.003 L 138.329,305.169 L 138.629,307.101 L 139.874,307.889 L 141.326,308.012 L 144.245,308.860 L 148.292,309.334 L 148.253,309.523 L 149.563,309.362 L 152.132,311.029 L 155.992,311.794 L 161.201,311.600 L 163.416,311.892 L 164.543,311.568 L 169.773,312.055 L 172.021,311.858 L 173.340,309.789 L 174.425,309.372 L 173.810,307.534 L 175.030,305.919 L 175.795,305.186 L 178.023,304.173 L 176.109,303.025 L 175.535,301.985 L 175.975,301.907 L 176.391,299.871 L 175.927,299.366 L 171.914,297.733 Z"/>
<path class="constraint forbidden-modern" id="forbidden-modern-schleswig-holstein" d="M 132.308,274.916 L 131.524,274.592 L 131.861,275.052 L 132.853,274.806 L 132.308,274.916 Z"/>
<path class="constraint forbidden-modern" id="forbidden-modern-schleswig-holstein" d="M 514.205,556.834 L 515.512,557.033 L 518.687,558.452 L 525.411,558.195 L 527.463,558.479 L 531.887,561.107 L 536.078,562.937 L 552.379,568.556 L 556.167,569.126 L 563.087,569.551 L 565.193,570.748 L 567.051,571.235 L 568.517,571.132 L 570.615,570.445 L 570.345,569.673 L 570.978,569.162 L 571.412,567.714 L 572.805,567.429 L 574.909,566.389 L 575.268,563.932 L 575.792,563.638 L 575.245,563.591 L 575.709,562.554 L 574.865,562.357 L 575.296,561.993 L 575.075,560.110 L 575.546,559.377 L 575.197,558.372 L 576.049,558.275 L 575.794,557.368 L 576.578,556.757 L 576.226,556.537 L 576.643,555.968 L 576.401,555.673 L 577.352,555.313 L 576.733,555.159 L 576.664,554.837 L 577.546,553.318 L 578.135,553.072 L 577.936,552.589 L 580.851,552.075 L 581.814,551.278 L 589.856,552.523 L 591.563,547.981 L 595.311,548.411 L 596.506,547.374 L 597.375,547.741 L 601.491,546.788 L 602.242,546.972 L 604.030,545.462 L 606.520,544.655 L 608.219,541.654 L 612.977,540.528 L 615.667,541.009 L 615.720,540.200 L 613.925,539.747 L 613.738,539.381 L 615.132,538.991 L 614.505,538.412 L 614.558,537.043 L 617.154,535.342 L 616.233,533.059 L 615.681,532.652 L 616.145,530.516 L 615.456,528.937 L 616.164,528.742 L 617.370,529.063 L 618.227,528.818 L 619.176,529.003 L 620.738,530.884 L 621.879,530.724 L 623.402,531.009 L 625.075,530.246 L 627.280,530.124 L 629.518,529.481 L 632.398,529.670 L 635.210,527.167 L 635.163,526.173 L 634.187,525.181 L 633.966,524.194 L 634.909,523.612 L 636.343,518.419 L 639.896,515.720 L 639.370,514.867 L 640.506,515.055 L 641.318,512.918 L 641.283,512.549 L 640.193,512.617 L 640.077,512.005 L 639.408,512.449 L 638.704,511.731 L 638.899,511.501 L 638.124,511.127 L 638.763,510.548 L 638.355,509.691 L 639.232,509.486 L 638.741,507.448 L 637.827,506.907 L 636.252,507.062 L 635.890,506.464 L 634.262,506.541 L 634.164,506.154 L 635.653,505.974 L 634.885,504.515 L 633.401,504.538 L 631.573,503.764 L 627.865,503.298 L 626.757,503.598 L 626.665,503.953 L 625.273,504.092 L 624.201,503.651 L 623.261,503.636 L 623.047,503.944 L 622.524,503.851 L 622.057,504.171 L 621.386,504.014 L 621.360,504.328 L 620.895,504.387 L 620.618,504.072 L 621.136,503.263 L 619.926,503.558 L 619.402,502.868 L 618.660,502.991 L 616.899,502.318 L 615.734,502.249 L 613.022,500.467 L 612.158,498.822 L 612.199,498.471 L 612.867,498.347 L 612.495,497.933 L 612.720,497.479 L 612.048,496.707 L 605.369,494.701 L 602.639,495.075 L 602.628,491.916 L 605.041,489.580 L 604.188,488.712 L 604.813,486.973 L 605.630,486.258 L 605.452,485.318 L 604.013,484.127 L 604.384,483.538 L 603.643,482.689 L 603.339,480.322 L 602.143,478.857 L 600.639,478.207 L 600.950,475.909 L 601.778,475.218 L 600.699,474.928 L 600.611,474.641 L 602.918,473.315 L 602.981,472.685 L 603.862,472.224 L 604.031,471.496 L 605.197,470.382 L 606.614,470.017 L 608.403,470.182 L 609.271,469.799 L 611.358,469.617 L 612.510,468.453 L 612.320,467.842 L 613.835,467.397 L 614.604,466.384 L 616.074,466.482 L 617.187,466.223 L 617.900,465.683 L 618.638,466.000 L 620.162,465.714 L 620.375,464.109 L 621.797,464.173 L 622.510,463.264 L 625.568,462.256 L 625.815,461.361 L 627.110,460.300 L 627.843,460.234 L 628.464,461.010 L 629.765,461.590 L 632.753,462.122 L 630.946,463.878 L 631.012,464.466 L 632.700,465.516 L 637.762,464.986 L 639.019,464.265 L 640.337,464.275 L 641.231,463.378 L 642.122,463.097 L 642.902,463.045 L 642.293,463.264 L 643.176,463.733 L 643.712,463.698 L 643.823,463.024 L 642.638,462.323 L 640.235,462.579 L 638.262,461.315 L 636.404,461.522 L 635.367,460.826 L 633.090,460.390 L 631.113,460.399 L 630.296,460.736 L 629.571,460.290 L 629.825,458.046 L 632.393,456.022 L 631.254,453.949 L 627.148,453.562 L 627.067,453.284 L 627.899,452.978 L 627.018,451.834 L 627.434,449.509 L 626.376,448.226 L 624.300,447.085 L 621.847,446.632 L 618.610,447.085 L 615.559,446.481 L 612.679,446.300 L 613.478,446.756 L 613.241,446.913 L 612.832,446.718 L 611.208,447.015 L 608.380,445.968 L 605.517,443.623 L 603.063,440.630 L 601.424,438.179 L 601.552,435.858 L 602.457,434.336 L 603.279,433.744 L 607.702,431.753 L 609.301,430.541 L 611.006,428.735 L 611.433,427.566 L 612.444,427.143 L 613.767,427.187 L 616.018,428.022 L 621.495,427.950 L 623.827,428.800 L 626.116,428.170 L 628.780,426.911 L 632.093,424.207 L 635.688,422.193 L 639.016,419.333 L 640.202,418.986 L 641.360,417.744 L 659.401,410.779 L 664.034,407.571 L 666.494,406.767 L 668.247,406.694 L 668.610,406.354 L 668.104,402.520 L 666.276,395.983 L 666.642,390.590 L 665.176,385.677 L 664.314,378.218 L 665.693,378.250 L 667.231,375.872 L 666.899,375.712 L 667.704,375.192 L 674.864,372.054 L 675.885,369.661 L 675.321,368.745 L 673.478,367.966 L 673.465,368.376 L 671.739,369.000 L 671.266,368.674 L 671.511,368.300 L 672.475,368.609 L 671.679,368.094 L 671.972,367.580 L 671.340,367.360 L 670.856,367.822 L 668.063,368.463 L 664.599,371.468 L 663.499,371.773 L 661.931,371.682 L 654.848,373.214 L 653.880,371.503 L 655.333,371.144 L 654.519,370.711 L 649.683,370.849 L 647.284,370.647 L 646.348,370.454 L 646.342,369.816 L 645.542,369.809 L 645.378,370.531 L 641.512,370.340 L 640.251,369.860 L 636.666,370.418 L 631.908,373.220 L 630.119,373.825 L 627.930,374.048 L 624.986,375.069 L 616.629,380.619 L 608.823,384.135 L 605.378,385.012 L 602.761,385.342 L 599.058,384.635 L 592.607,385.529 L 590.558,385.279 L 588.217,384.491 L 587.108,383.512 L 587.518,382.916 L 586.955,382.304 L 582.916,380.921 L 581.264,379.965 L 581.364,379.529 L 579.212,377.118 L 571.511,373.996 L 566.707,372.968 L 559.774,370.836 L 551.820,369.564 L 546.771,368.349 L 541.571,366.539 L 541.058,366.175 L 541.365,366.119 L 536.456,364.570 L 532.140,362.394 L 529.929,361.674 L 520.471,360.037 L 516.954,359.846 L 513.056,360.356 L 507.938,362.649 L 508.208,362.940 L 508.717,362.889 L 510.565,361.805 L 511.458,361.798 L 511.241,362.554 L 509.278,362.772 L 508.688,363.299 L 507.757,363.026 L 498.114,364.138 L 498.471,364.428 L 496.444,365.833 L 496.118,365.663 L 494.733,366.879 L 495.332,367.482 L 494.794,367.530 L 495.058,368.138 L 494.577,369.343 L 493.232,370.562 L 491.748,370.946 L 492.342,371.739 L 491.959,372.335 L 492.198,373.547 L 488.714,374.505 L 488.958,375.193 L 487.916,377.530 L 483.578,374.076 L 483.982,372.985 L 491.472,368.793 L 490.841,367.647 L 491.576,366.240 L 490.787,364.692 L 487.460,361.581 L 487.779,360.899 L 486.873,360.163 L 487.030,359.869 L 488.087,359.773 L 489.968,357.607 L 492.135,357.079 L 492.872,355.953 L 491.099,355.658 L 485.555,352.466 L 480.030,350.299 L 476.837,350.118 L 470.430,351.006 L 467.966,351.021 L 463.332,351.681 L 457.819,352.051 L 455.851,352.381 L 453.206,353.385 L 447.992,353.554 L 443.627,354.328 L 438.812,354.630 L 437.657,356.238 L 434.421,356.863 L 427.386,357.415 L 427.016,357.335 L 427.625,356.539 L 425.277,355.811 L 426.669,353.185 L 429.473,352.475 L 429.273,351.967 L 430.078,351.947 L 437.303,349.433 L 441.524,348.593 L 443.893,347.436 L 446.752,346.734 L 448.994,345.106 L 450.722,344.769 L 451.472,343.931 L 453.367,342.966 L 456.607,338.362 L 458.545,337.643 L 459.065,336.784 L 458.680,331.606 L 459.301,331.149 L 458.754,330.028 L 458.823,328.019 L 460.288,323.497 L 459.835,318.292 L 460.471,316.246 L 462.186,315.869 L 460.278,315.102 L 460.774,310.200 L 460.167,309.553 L 453.588,305.947 L 451.533,304.325 L 450.042,301.433 L 449.158,296.756 L 445.947,293.546 L 445.292,292.233 L 443.066,291.687 L 439.281,289.969 L 436.619,289.162 L 435.915,288.291 L 434.366,290.640 L 434.883,291.855 L 433.987,293.621 L 434.176,293.826 L 434.744,293.510 L 435.361,294.319 L 435.103,295.478 L 434.687,295.548 L 434.471,294.767 L 432.683,294.618 L 432.964,293.945 L 430.578,295.368 L 429.696,296.578 L 428.549,296.347 L 428.646,296.726 L 429.637,297.043 L 429.048,297.637 L 427.151,297.591 L 426.884,297.141 L 424.864,297.252 L 423.353,296.913 L 420.848,296.005 L 415.924,292.385 L 414.115,290.681 L 412.873,288.740 L 403.929,283.534 L 402.598,283.695 L 376.011,277.548 L 380.605,272.605 L 373.511,271.186 L 372.038,271.350 L 354.978,280.203 L 348.190,282.057 L 347.617,281.730 L 345.516,281.828 L 342.719,282.952 L 341.446,282.948 L 339.041,281.705 L 339.348,280.771 L 337.990,279.964 L 337.214,279.960 L 336.502,280.639 L 336.342,280.316 L 334.195,280.743 L 332.400,280.572 L 331.628,281.775 L 330.818,281.740 L 331.136,282.550 L 330.399,283.920 L 330.664,284.123 L 328.718,284.873 L 328.633,285.259 L 327.199,285.301 L 325.297,286.972 L 324.629,286.887 L 324.426,287.562 L 325.074,287.847 L 324.723,288.226 L 321.920,287.181 L 314.874,286.510 L 314.590,287.067 L 315.128,287.907 L 313.421,287.396 L 313.020,286.386 L 310.242,285.884 L 306.346,286.366 L 303.531,282.163 L 303.445,281.343 L 305.314,279.656 L 304.392,278.454 L 297.505,276.680 L 295.447,276.645 L 294.062,276.264 L 293.783,275.875 L 285.370,273.927 L 283.926,273.762 L 281.423,274.026 L 278.864,273.752 L 274.981,274.484 L 272.154,274.173 L 269.639,274.314 L 268.533,273.948 L 266.686,274.152 L 262.922,272.908 L 262.999,272.489 L 260.107,271.297 L 254.103,270.185 L 252.774,269.476 L 246.978,268.122 L 242.373,267.963 L 240.235,268.203 L 239.665,267.866 L 235.994,267.661 L 235.047,268.134 L 233.142,268.225 L 232.205,268.747 L 230.852,268.651 L 229.591,269.287 L 227.478,269.161 L 225.181,267.553 L 222.629,267.283 L 221.603,267.850 L 220.697,267.844 L 220.131,267.464 L 217.706,267.727 L 217.704,268.134 L 213.262,269.510 L 213.374,270.067 L 209.989,269.700 L 209.080,269.245 L 205.754,269.975 L 203.762,270.059 L 194.400,266.565 L 192.077,266.410 L 190.409,266.921 L 186.080,266.415 L 186.013,269.100 L 185.518,269.775 L 184.668,270.180 L 180.634,270.907 L 161.222,271.728 L 157.241,272.863 L 156.925,272.575 L 156.482,272.695 L 156.310,273.196 L 154.199,272.914 L 146.164,273.270 L 144.701,273.067 L 135.511,270.194 L 133.944,269.244 L 132.810,268.003 L 131.866,266.620 L 132.119,265.772 L 131.637,265.106 L 131.886,264.423 L 132.789,263.890 L 132.175,264.076 L 131.837,263.880 L 131.427,262.048 L 132.019,260.117 L 131.115,258.469 L 131.784,257.266 L 130.045,255.293 L 132.056,253.269 L 133.532,251.040 L 135.366,249.611 L 138.429,248.181 L 142.679,247.488 L 145.238,246.268 L 147.180,245.859 L 147.253,244.434 L 146.296,244.141 L 145.275,243.219 L 145.949,244.098 L 145.465,243.995 L 144.679,242.908 L 145.108,242.271 L 146.524,241.612 L 146.527,241.234 L 146.256,241.522 L 144.653,241.705 L 144.478,242.531 L 143.015,242.066 L 139.421,242.137 L 138.830,241.485 L 138.576,239.909 L 142.301,239.596 L 143.908,239.721 L 145.690,239.364 L 148.791,240.656 L 151.929,239.995 L 151.362,239.620 L 147.723,239.078 L 143.722,237.522 L 141.271,237.641 L 138.835,238.512 L 135.997,241.645 L 128.750,252.644 L 123.239,259.830 L 119.254,266.532 L 117.278,273.198 L 115.625,297.826 L 117.030,298.665 L 117.890,299.696 L 119.247,300.032 L 118.582,297.474 L 119.091,296.600 L 118.438,296.611 L 119.856,295.396 L 119.541,294.356 L 120.013,293.572 L 119.780,292.442 L 119.599,292.943 L 119.070,292.845 L 118.104,291.028 L 118.576,288.563 L 119.651,287.449 L 119.058,286.091 L 119.774,284.743 L 118.386,283.230 L 119.047,281.253 L 118.892,279.945 L 120.119,277.498 L 121.032,276.789 L 126.117,275.845 L 126.195,273.967 L 127.636,272.443 L 128.727,273.256 L 128.612,273.684 L 129.080,273.345 L 132.293,273.360 L 134.977,276.761 L 139.713,278.692 L 142.141,278.993 L 143.747,278.563 L 144.887,277.776 L 144.983,277.951 L 150.047,277.000 L 149.971,276.541 L 151.333,276.248 L 155.377,274.107 L 155.677,274.371 L 156.979,273.954 L 156.658,273.625 L 160.965,272.282 L 166.811,271.955 L 166.845,272.332 L 168.197,272.274 L 168.170,271.897 L 179.275,271.434 L 181.091,272.857 L 180.138,280.208 L 187.303,284.525 L 190.235,289.177 L 191.752,289.624 L 193.828,289.635 L 194.571,290.145 L 195.257,289.687 L 198.590,293.445 L 197.748,296.064 L 199.885,297.884 L 199.984,299.360 L 201.297,300.513 L 200.318,300.954 L 198.494,301.121 L 197.122,301.840 L 196.128,301.532 L 196.320,301.952 L 195.648,301.772 L 195.552,301.962 L 196.647,302.184 L 196.805,302.963 L 197.424,303.112 L 200.236,303.309 L 202.088,302.869 L 206.336,304.708 L 207.544,307.390 L 208.396,308.120 L 207.983,309.834 L 208.642,311.607 L 214.055,314.579 L 221.882,316.406 L 222.267,316.793 L 224.187,317.239 L 224.264,318.494 L 227.053,322.569 L 230.749,324.527 L 234.773,325.816 L 236.177,328.206 L 231.391,335.076 L 233.215,338.288 L 232.835,340.137 L 232.277,341.073 L 231.495,341.391 L 231.950,341.662 L 231.311,341.702 L 231.571,341.927 L 228.240,344.160 L 224.924,345.699 L 223.439,345.657 L 220.597,346.436 L 219.502,347.351 L 219.541,347.739 L 219.175,347.547 L 219.730,349.152 L 221.692,349.871 L 219.270,352.357 L 219.289,353.084 L 223.455,354.603 L 224.723,354.530 L 226.118,354.960 L 236.262,354.968 L 240.701,353.003 L 240.928,351.978 L 242.391,351.451 L 243.675,348.837 L 247.019,347.209 L 247.218,346.710 L 246.490,344.780 L 253.985,342.496 L 255.427,342.726 L 255.788,343.963 L 255.124,344.403 L 255.385,345.093 L 256.007,345.011 L 256.726,346.372 L 257.433,346.274 L 257.909,346.743 L 259.280,348.570 L 259.656,350.295 L 260.274,350.303 L 259.206,350.893 L 258.074,350.997 L 257.872,351.300 L 260.934,352.183 L 260.711,352.382 L 260.064,352.192 L 259.220,352.639 L 258.188,352.382 L 257.072,354.034 L 257.679,354.360 L 249.141,356.287 L 248.012,357.172 L 246.909,359.226 L 245.280,359.561 L 243.752,360.370 L 239.806,363.385 L 233.813,365.053 L 231.908,365.925 L 228.872,366.373 L 224.234,365.165 L 221.211,365.302 L 219.814,365.011 L 206.440,367.115 L 200.440,367.101 L 198.113,367.527 L 195.082,367.002 L 192.868,366.939 L 190.538,367.820 L 188.981,368.931 L 188.253,370.848 L 189.966,371.923 L 196.501,372.160 L 196.871,373.154 L 196.589,375.588 L 190.222,377.290 L 190.017,376.949 L 189.168,376.893 L 187.737,377.638 L 187.901,377.956 L 188.981,378.089 L 187.258,379.067 L 185.326,379.182 L 182.966,378.076 L 179.234,378.515 L 178.885,378.842 L 179.865,380.814 L 179.778,381.432 L 179.205,380.859 L 178.603,380.821 L 178.542,382.289 L 179.118,383.725 L 180.246,384.792 L 184.450,386.083 L 188.661,389.105 L 193.223,390.692 L 196.122,390.720 L 199.292,389.097 L 199.533,387.865 L 202.726,388.735 L 205.471,387.806 L 206.319,387.783 L 207.769,388.656 L 210.090,388.421 L 211.759,388.765 L 212.078,389.977 L 214.228,390.287 L 216.280,390.085 L 222.105,388.233 L 223.355,388.370 L 224.318,388.917 L 226.121,390.752 L 226.528,392.842 L 225.872,393.047 L 226.715,393.268 L 226.721,393.630 L 226.274,393.698 L 226.534,395.043 L 225.882,395.244 L 225.686,395.897 L 225.100,395.855 L 224.035,398.952 L 225.427,399.111 L 225.256,399.640 L 225.766,399.706 L 224.538,403.326 L 222.928,403.975 L 222.766,404.464 L 221.786,404.877 L 221.115,406.745 L 220.654,406.695 L 220.236,407.978 L 219.814,407.933 L 219.569,409.965 L 219.917,410.061 L 219.360,410.960 L 219.653,411.858 L 221.206,412.504 L 223.233,417.246 L 225.409,419.458 L 228.832,420.388 L 229.280,422.045 L 236.178,419.286 L 239.246,418.911 L 242.526,419.435 L 243.296,420.069 L 246.932,427.196 L 247.402,427.177 L 246.954,427.556 L 247.375,427.566 L 252.613,431.469 L 252.282,431.546 L 252.562,431.930 L 249.764,432.558 L 249.094,432.460 L 249.085,433.009 L 251.586,432.866 L 252.352,433.201 L 253.442,433.043 L 254.285,433.482 L 254.255,434.565 L 253.086,437.051 L 251.710,437.998 L 249.070,438.784 L 248.849,438.173 L 245.455,438.673 L 242.873,437.282 L 233.913,436.416 L 229.560,437.018 L 229.606,437.217 L 227.285,437.640 L 225.928,438.459 L 225.063,439.896 L 220.754,440.614 L 218.983,440.643 L 218.848,440.859 L 223.519,440.698 L 223.668,440.969 L 224.314,440.763 L 226.177,443.511 L 228.933,446.506 L 229.645,446.306 L 229.333,446.612 L 229.833,447.015 L 230.885,447.253 L 231.693,448.735 L 232.531,448.888 L 233.245,448.682 L 232.833,449.318 L 233.296,449.415 L 233.127,449.846 L 233.731,450.574 L 233.180,450.727 L 235.757,453.963 L 235.449,454.054 L 237.296,456.669 L 240.488,460.221 L 241.015,460.051 L 241.817,460.982 L 245.107,462.491 L 244.743,462.776 L 245.156,463.061 L 246.181,463.307 L 246.346,463.777 L 247.511,464.114 L 247.791,464.576 L 251.364,466.647 L 256.663,467.022 L 258.377,466.758 L 258.860,467.229 L 261.125,467.090 L 261.613,469.138 L 267.495,468.803 L 285.218,469.533 L 289.806,469.128 L 296.456,469.023 L 306.322,470.000 L 307.766,470.699 L 310.796,471.468 L 314.136,472.315 L 319.990,474.774 L 329.441,483.075 L 340.241,496.420 L 342.348,498.128 L 352.679,502.905 L 355.880,505.039 L 360.914,511.694 L 361.559,515.641 L 362.689,518.053 L 365.400,520.913 L 372.715,524.353 L 381.660,527.507 L 389.986,530.998 L 395.297,532.052 L 400.664,532.395 L 401.501,530.895 L 402.011,528.503 L 403.097,528.342 L 401.874,527.626 L 402.557,527.378 L 404.035,525.676 L 403.284,524.536 L 404.266,523.294 L 405.677,523.563 L 406.362,521.913 L 405.268,521.507 L 407.260,518.657 L 408.561,518.664 L 408.285,519.572 L 408.628,520.871 L 412.282,521.808 L 412.657,522.288 L 413.404,522.086 L 414.029,522.583 L 413.723,522.963 L 412.345,523.279 L 413.910,524.826 L 415.316,525.283 L 417.573,526.768 L 419.302,527.100 L 420.053,526.950 L 421.610,526.510 L 421.609,525.720 L 422.259,525.531 L 422.193,525.079 L 423.335,525.086 L 423.185,524.739 L 425.815,524.140 L 426.564,522.641 L 427.764,522.223 L 428.246,521.306 L 429.949,520.168 L 432.020,519.673 L 431.115,519.438 L 431.658,518.742 L 432.964,518.196 L 432.514,517.912 L 433.308,517.757 L 433.442,517.209 L 434.185,516.761 L 434.100,516.247 L 434.968,515.848 L 435.101,513.804 L 438.136,513.161 L 438.974,513.620 L 440.949,513.835 L 441.210,513.593 L 441.430,513.788 L 442.962,513.660 L 443.830,514.091 L 444.401,514.166 L 444.588,513.923 L 446.907,514.467 L 447.592,514.122 L 448.531,514.577 L 448.821,514.274 L 449.502,514.522 L 450.124,514.402 L 450.866,514.779 L 451.832,514.058 L 451.275,513.151 L 451.981,512.563 L 451.813,510.367 L 452.206,509.142 L 453.439,508.053 L 461.708,507.950 L 463.609,508.942 L 467.305,508.449 L 466.886,507.167 L 465.800,507.131 L 465.616,506.691 L 466.597,506.574 L 467.329,505.147 L 467.718,505.269 L 468.194,504.652 L 468.924,504.460 L 469.237,503.594 L 467.376,503.184 L 468.150,502.599 L 467.355,502.217 L 467.659,501.992 L 468.453,502.254 L 469.418,501.648 L 468.695,501.405 L 469.776,500.399 L 473.807,500.979 L 474.134,501.481 L 476.474,501.311 L 476.948,501.788 L 477.481,501.779 L 478.529,500.554 L 481.192,499.365 L 482.183,499.545 L 483.396,498.522 L 485.428,497.857 L 485.698,496.928 L 486.752,496.898 L 490.180,498.263 L 491.749,498.317 L 491.350,499.912 L 489.375,502.604 L 487.855,501.897 L 486.349,502.245 L 486.861,502.683 L 484.647,503.423 L 484.584,503.844 L 485.295,504.336 L 485.026,506.215 L 483.638,507.061 L 483.519,507.836 L 482.153,508.389 L 481.257,508.316 L 481.442,508.704 L 481.841,509.213 L 483.761,509.373 L 483.979,509.159 L 484.317,509.796 L 485.207,510.012 L 484.254,510.034 L 484.342,510.404 L 485.479,510.098 L 486.226,510.673 L 487.587,510.502 L 487.858,511.382 L 488.600,511.684 L 489.633,511.536 L 490.653,512.575 L 490.523,512.953 L 492.218,513.311 L 492.039,513.783 L 492.722,514.936 L 490.962,516.519 L 492.789,517.033 L 494.987,516.885 L 497.269,517.434 L 496.116,517.902 L 496.397,518.927 L 495.239,519.534 L 494.058,519.399 L 494.133,519.819 L 490.822,521.503 L 492.047,522.570 L 492.355,523.981 L 492.216,524.523 L 491.354,524.909 L 491.881,526.002 L 493.278,527.189 L 492.663,527.558 L 492.160,527.065 L 486.176,527.528 L 485.875,526.858 L 485.472,526.870 L 484.926,527.763 L 483.671,528.402 L 483.523,529.520 L 482.666,530.677 L 482.848,531.138 L 485.239,532.375 L 485.027,532.919 L 483.735,533.780 L 483.395,534.863 L 483.957,535.014 L 483.676,535.890 L 484.263,536.545 L 485.127,536.274 L 486.490,536.376 L 485.467,538.612 L 486.046,539.791 L 490.971,541.227 L 493.047,540.913 L 495.076,539.770 L 495.863,541.175 L 496.753,541.637 L 496.649,542.136 L 497.698,542.575 L 496.716,543.334 L 496.649,543.894 L 498.113,544.601 L 500.200,544.425 L 499.880,545.492 L 500.531,546.997 L 502.520,547.628 L 503.235,548.167 L 504.368,548.003 L 504.834,548.247 L 504.739,548.731 L 505.632,548.593 L 505.803,549.635 L 507.248,550.006 L 506.608,550.761 L 512.218,553.220 L 512.438,553.430 L 511.783,553.786 L 512.965,554.870 L 514.210,554.926 L 514.930,553.077 L 517.742,553.604 L 515.685,555.284 L 515.549,555.570 L 516.374,555.945 L 516.216,556.415 L 514.191,556.523 L 514.205,556.834 Z"/>
<path class="constraint hard-constraint" id="frontier-eider-empire-denmark" d="M 300.422,377.411 L 300.455,377.883 L 302.091,378.620 L 302.327,378.984 L 302.277,379.377 L 301.940,379.889 L 301.771,380.469 L 301.923,381.305 L 301.737,381.796 L 301.299,382.131 L 300.742,382.023 L 299.444,381.383 L 298.533,381.364 L 297.563,381.806 L 296.206,382.510 L 295.337,383.302 L 294.890,383.528 L 294.570,383.356 L 294.612,382.844 L 295.059,381.836 L 295.835,380.872 L 295.843,380.439 L 295.345,380.100 L 293.246,379.776 L 291.753,379.704 L 291.045,379.810 L 290.303,380.135 L 289.266,380.754 L 288.996,381.177 L 289.215,381.482 L 291.011,382.839 L 291.205,383.090 L 290.876,383.218 L 289.789,383.164 L 288.566,383.060 L 286.179,382.667 L 285.699,382.362 L 285.269,380.872 L 285.328,380.513 L 285.682,380.287 L 286.955,379.800 L 287.326,379.603 L 287.208,379.323 L 286.576,379.205 L 285.117,379.196 L 284.839,379.151 L 284.012,378.586 L 283.793,378.375 L 283.760,378.050 L 283.937,377.583 L 283.903,377.087 L 283.523,376.753 L 282.891,376.497 L 282.157,376.335 L 280.960,376.227 L 280.319,376.114 L 278.422,375.372 L 278.135,375.028 L 278.211,374.286 L 277.924,373.893 L 276.643,373.539 L 275.289,372.785 L 274.821,372.692 L 274.484,372.733 L 274.231,373.156 L 273.881,373.728 L 273.451,374.048 L 272.848,374.232 L 271.866,374.224 L 269.458,373.932 L 266.996,373.264 L 265.040,373.342 L 262.814,372.222 L 262.780,371.891 L 262.506,371.525 L 262.270,371.346 L 261.911,371.220 L 261.237,371.049 L 260.031,371.024 L 259.112,370.995 L 258.530,371.152 L 257.455,371.564 L 256.742,371.947 L 254.584,373.401 L 253.707,374.561 L 253.605,376.389 L 254.010,377.332 L 256.203,378.787 L 255.764,380.223 L 253.268,381.443 L 252.189,382.564 L 251.379,383.176 L 250.380,383.496 L 249.145,383.592 L 248.276,383.626 L 246.623,384.236"/>
</svg>
