<?xml version="1.0" encoding="UTF-8"?>
<svg xmlns="http://www.w3.org/2000/svg" width="1450" height="740" viewBox="0 0 1450 740">
<title>official-1444-reconstruction-v2 — low-countries</title><desc>Deterministic M25 review: provinces, ownership, hierarchy, uncertainty, historical constraints with georeferencing control points and residuals, focus insets, and forbidden modern outlines as negative controls.</desc>
<style>text{font-family:sans-serif;font-size:10px;fill:#333}.sheet-title{font-size:16px;fill:#111}.panel-title{font-size:11px;font-weight:bold;fill:#111}.province{stroke:#222;stroke-width:.7;vector-effect:non-scaling-stroke}.constraint{fill:none;stroke-width:3;vector-effect:non-scaling-stroke}.hard-constraint{stroke:#111}.soft-evidence{stroke:#d28b00;stroke-dasharray:7 5}.forbidden-modern{stroke:#d00000;stroke-dasharray:2 4}.legend-province{fill:#8faf6f;fill-opacity:.75;stroke:#222;stroke-width:.7}.inset-frame{fill:#fdfcf7;stroke:#888;stroke-width:1}.focus-box{fill:none;stroke:#0050c8;stroke-width:1.2;stroke-dasharray:5 3}.focus-label{fill:#0050c8;font-weight:bold;font-size:11px}.control-point circle{fill:#0050c8;stroke:#fff;stroke-width:1}.control-point text{fill:#0050c8}.scale-bar line{stroke:#111;stroke-width:1.5}.scale-bar text{fill:#111}</style>
<defs><clipPath id="clip-main"><rect x="0" y="0" width="1000" height="740"/></clipPath><clipPath id="clip-inset-A"><rect x="1020.0" y="204.0" width="420.0" height="210.0"/></clipPath><clipPath id="clip-inset-B"><rect x="1020.0" y="462.0" width="420.0" height="210.0"/></clipPath></defs>
<rect width="1450" height="740" fill="#ffffff"/>
<rect width="1000" height="740" fill="#f7f3e8"/>
<text x="35" y="25" class="sheet-title">official-1444-reconstruction-v2 — low-countries</text>
<g clip-path="url(#clip-main)">
<path class="province" id="prv_1db684291f2e0e6ae7ba" data-owner="county-of-flanders" data-area="area-1444-county-of-flanders" data-uncertainty="0.250" fill="#f0e754" fill-opacity="0.750" d="M 705.947,364.571 L 726.248,304.666 L 726.248,304.666 L 912.891,255.170 L 912.891,255.170 L 853.573,286.363 L 862.556,330.641 L 803.434,361.899 L 735.360,348.912 L 705.947,364.571 Z"/>
<path class="province" id="prv_296a75f0f1c05ea33fd8" data-owner="county-of-flanders" data-area="area-1444-county-of-flanders" data-uncertainty="0.250" fill="#f0e754" fill-opacity="0.750" d="M 362.947,381.768 L 427.750,404.385 L 484.124,379.469 L 490.197,381.603 L 489.982,381.693 L 484.605,385.242 L 467.326,405.141 L 460.038,410.805 L 428.204,425.794 L 362.947,381.768 Z"/>
<path class="province" id="prv_2c72f4936c995b0f22a7" data-owner="county-of-hainaut" data-area="area-1444-county-of-hainaut" data-uncertainty="0.250" fill="#c7125c" fill-opacity="0.750" d="M 372.907,608.879 L 460.987,594.981 L 533.121,630.185 L 537.726,652.350 L 479.603,683.958 L 434.712,675.372 L 413.315,667.850 L 404.985,620.106 L 372.907,608.879 Z"/>
<path class="province" id="prv_3695c9236b30222edb91" data-owner="county-of-hainaut" data-area="area-1444-county-of-hainaut" data-uncertainty="0.250" fill="#c7125c" fill-opacity="0.750" d="M 258.816,479.630 L 315.095,454.466 L 379.841,477.027 L 388.248,524.694 L 332.108,549.839 L 267.421,527.335 L 258.816,479.630 Z"/>
<path class="province" id="prv_37dd4f90e7158380e390" data-owner="county-of-flanders" data-area="area-1444-county-of-flanders" data-uncertainty="0.250" fill="#f0e754" fill-opacity="0.750" d="M 362.947,381.768 L 382.763,321.689 L 410.975,309.241 L 475.836,331.915 L 484.124,379.469 L 427.750,404.385 L 362.947,381.768 L 362.947,381.768 L 362.947,381.768 Z"/>
<path class="province" id="prv_3af0773db9eca9d9f621" data-owner="county-of-flanders" data-area="area-1444-county-of-flanders" data-uncertainty="0.250" fill="#f0e754" fill-opacity="0.750" d="M 382.763,321.689 L 402.548,261.709 L 491.770,248.298 L 580.708,234.930 L 524.099,259.618 L 532.327,307.113 L 475.836,331.915 L 410.975,309.241 L 382.763,321.689 Z"/>
<path class="province" id="prv_3e06a0a1a99e488f610d" data-owner="county-of-flanders" data-area="area-1444-county-of-flanders" data-uncertainty="0.250" fill="#f0e754" fill-opacity="0.750" d="M 63.426,412.376 L 119.864,387.058 L 115.445,363.356 L 185.107,409.481 L 165.746,469.795 L 146.354,530.205 L 137.551,482.464 L 72.369,460.097 L 63.426,412.376 Z"/>
<path class="province" id="prv_408061529042d3d5c90a" data-owner="county-of-flanders" data-area="area-1444-county-of-flanders" data-uncertainty="0.250" fill="#f0e754" fill-opacity="0.750" d="M 475.836,331.915 L 532.327,307.113 L 542.162,310.572 L 535.569,320.247 L 524.186,331.412 L 509.910,341.566 L 503.167,343.886 L 497.844,344.200 L 494.896,346.425 L 495.306,354.437 L 499.619,359.801 L 506.443,363.240 L 510.592,366.953 L 507.125,373.135 L 501.584,376.820 L 490.197,381.603 L 484.124,379.469 L 475.836,331.915 Z"/>
<path class="province" id="prv_492c17233cc6707895f3" data-owner="county-of-flanders" data-area="area-1444-county-of-flanders" data-uncertainty="0.250" fill="#f0e754" fill-opacity="0.750" d="M 599.250,323.194 L 657.941,291.899 L 676.367,380.248 L 608.491,367.408 L 599.250,323.194 Z"/>
<path class="province" id="prv_4bcaf061448f2694d4ec" data-owner="county-of-hainaut" data-area="area-1444-county-of-hainaut" data-uncertainty="0.150" fill="#c7125c" fill-opacity="0.850" d="M 528.481,607.845 L 586.795,576.299 L 654.389,589.289 L 663.509,633.828 L 697.442,640.420 L 605.160,665.342 L 533.121,630.185 L 533.121,630.185 L 528.481,607.845 Z"/>
<path class="province" id="prv_54e772743ba195f83cba" data-owner="county-of-hainaut" data-area="area-1444-county-of-hainaut" data-uncertainty="0.250" fill="#c7125c" fill-opacity="0.750" d="M 510.061,519.021 L 626.940,456.142 L 636.090,500.374 L 577.583,531.858 L 510.061,519.021 Z"/>
<path class="province" id="prv_5600510359badc732daa" data-owner="county-of-hainaut" data-area="area-1444-county-of-hainaut" data-uncertainty="0.250" fill="#c7125c" fill-opacity="0.750" d="M 379.841,477.027 L 436.098,451.996 L 431.947,428.319 L 428.204,425.794 L 428.204,425.794 L 500.623,474.652 L 480.828,534.748 L 480.772,534.778 L 480.772,534.778 L 452.717,547.294 L 388.248,524.694 L 379.841,477.027 Z"/>
<path class="province" id="prv_6ab3d9bbe65764d756d1" data-owner="county-of-flanders" data-area="area-1444-county-of-flanders" data-uncertainty="0.250" fill="#f0e754" fill-opacity="0.750" d="M 622.127,120.167 L 662.916,109.171 L 670.423,103.644 L 670.769,102.358 L 670.769,102.358 L 673.426,92.497 L 678.749,87.538 L 690.805,87.902 L 703.862,91.041 L 707.676,92.550 L 678.151,100.396 L 707.676,92.550 L 711.915,94.226 L 715.600,97.729 L 721.878,106.442 L 726.837,109.854 L 733.070,111.196 L 746.582,112.333 L 752.178,115.199 L 755.772,116.109 L 775.108,117.110 L 784.707,108.079 L 788.256,106.009 L 799.175,106.783 L 811.458,111.287 L 811.822,111.423 L 822.377,117.656 L 826.836,123.207 L 830.794,133.398 L 840.030,140.449 L 850.175,146.000 L 856.999,151.482 L 859.047,155.031 L 859.866,158.443 L 858.364,162.378 L 854.588,166.291 L 853.496,167.428 L 860.002,165.381 L 864.506,162.242 L 872.559,151.482 L 853.724,146.409 L 849.356,144.180 L 847.172,139.221 L 847.582,127.119 L 845.853,121.296 L 841.713,116.815 L 833.569,110.513 L 831.340,108.762 L 826.836,102.211 L 825.335,95.386 L 825.608,89.631 L 824.516,85.286 L 818.829,82.761 L 812.277,88.084 L 799.994,90.404 L 749.721,89.495 L 738.120,87.083 L 726.837,82.761 L 705.854,71.354 L 735.204,56.042 L 737.938,60.833 L 746.218,67.839 L 759.594,70.273 L 788.711,67.748 L 799.675,71.296 L 810.731,69.044 L 815.470,69.193 L 954.545,135.686 L 912.891,255.170 L 726.248,304.666 L 685.611,424.578 L 622.127,120.167 Z"/>
<path class="province" id="prv_6ac683fb1e24ec7e19b5" data-owner="county-of-flanders" data-area="area-1444-county-of-flanders" data-uncertainty="0.250" fill="#f0e754" fill-opacity="0.750" d="M 685.611,424.578 L 685.611,424.578 L 685.611,424.578 L 705.947,364.571 L 735.360,348.912 L 803.434,361.899 L 812.452,406.243 L 753.525,437.567 L 753.578,437.829 L 822.390,451.244 L 685.611,424.578 Z"/>
<path class="province" id="prv_7828eda90645527f0312" data-owner="county-of-hainaut" data-area="area-1444-county-of-hainaut" data-uncertainty="0.250" fill="#c7125c" fill-opacity="0.750" d="M 626.940,456.142 L 685.611,424.578 L 753.578,437.829 L 753.578,437.829 L 762.577,481.976 L 703.844,513.364 L 636.090,500.374 L 626.940,456.142 Z"/>
<path class="province" id="prv_8101e9e8388b398f0806" data-owner="county-of-hainaut" data-area="area-1444-county-of-hainaut" data-uncertainty="0.250" fill="#c7125c" fill-opacity="0.750" d="M 284.550,622.821 L 452.728,547.361 L 480.772,534.778 L 614.569,462.798 L 510.061,519.021 L 577.583,531.858 L 586.795,576.299 L 528.481,607.845 L 533.121,630.185 L 460.987,594.981 L 284.550,622.821 Z"/>
<path class="province" id="prv_8f287a8245c6356a267e" data-owner="county-of-flanders" data-area="area-1444-county-of-flanders" data-uncertainty="0.250" fill="#f0e754" fill-opacity="0.750" d="M 490.197,381.603 L 501.584,376.820 L 507.125,373.135 L 510.592,366.953 L 506.443,363.240 L 499.619,359.801 L 495.306,354.437 L 494.896,346.425 L 497.844,344.200 L 503.167,343.886 L 509.910,341.566 L 524.186,331.412 L 535.569,320.247 L 542.162,310.572 L 553.892,314.698 L 599.250,323.194 L 608.491,367.408 L 549.823,398.859 L 527.197,394.606 L 490.197,381.603 Z"/>
<path class="province" id="prv_8f3ffff26780128439a5" data-owner="county-of-flanders" data-area="area-1444-county-of-flanders" data-uncertainty="0.250" fill="#f0e754" fill-opacity="0.750" d="M 274.167,395.603 L 362.947,381.768 L 428.204,425.794 L 359.311,458.234 L 347.784,465.856 L 315.095,454.466 L 306.549,406.818 L 274.167,395.603 Z"/>
<path class="province" id="prv_b2bee00da34af6afdf61" data-owner="county-of-hainaut" data-area="area-1444-county-of-hainaut" data-uncertainty="0.250" fill="#c7125c" fill-opacity="0.750" d="M 577.583,531.858 L 636.090,500.374 L 703.844,513.364 L 712.930,557.837 L 654.389,589.289 L 586.795,576.299 L 577.583,531.858 Z"/>
<path class="province" id="prv_b67b1161766824c71a24" data-owner="county-of-hainaut" data-area="area-1444-county-of-hainaut" data-uncertainty="0.250" fill="#c7125c" fill-opacity="0.750" d="M 480.828,534.748 L 500.623,474.652 L 559.097,443.138 L 549.823,398.859 L 608.491,367.408 L 676.367,380.248 L 685.611,424.578 L 685.611,424.578 L 626.911,455.998 L 685.611,424.578 L 480.828,534.748 Z"/>
<path class="province" id="prv_c4bad927df7954fb501d" data-owner="county-of-flanders" data-area="area-1444-county-of-flanders" data-uncertainty="0.250" fill="#f0e754" fill-opacity="0.750" d="M 263.414,168.971 L 280.923,115.957 L 323.657,107.283 L 323.930,107.238 L 414.193,88.949 L 422.473,84.672 L 431.208,84.035 L 466.604,98.389 L 521.107,108.148 L 539.032,118.111 L 550.952,121.296 L 573.518,121.296 L 594.810,125.117 L 608.322,123.889 L 619.340,120.919 L 622.127,120.167 L 653.316,269.720 L 580.708,234.930 L 402.548,261.709 L 263.414,168.971 Z"/>
<path class="province" id="prv_d3539c01d21e26cf821d" data-owner="county-of-flanders" data-area="area-1444-county-of-flanders" data-uncertainty="0.250" fill="#f0e754" fill-opacity="0.750" d="M 157.473,495.567 L 185.107,409.481 L 274.167,395.603 L 306.549,406.818 L 315.095,454.466 L 258.816,479.630 L 193.851,457.166 L 165.746,469.795 L 157.473,495.567 Z"/>
<path class="province" id="prv_e203941f5e999fe72ffa" data-owner="county-of-flanders" data-area="area-1444-county-of-flanders" data-uncertainty="0.150" fill="#f0e754" fill-opacity="0.850" d="M 56.518,544.704 L 146.354,530.205 L 146.354,530.205 L 165.746,469.795 L 193.851,457.166 L 258.816,479.630 L 267.421,527.335 L 211.259,552.613 L 219.922,600.374 L 284.550,622.821 L 56.518,544.704 Z"/>
<path class="province" id="prv_e62f39a3b8c1ea879662" data-owner="county-of-hainaut" data-area="area-1444-county-of-hainaut" data-uncertainty="0.250" fill="#c7125c" fill-opacity="0.750" d="M 347.784,465.856 L 359.311,458.234 L 428.204,425.794 L 431.947,428.319 L 436.098,451.996 L 379.841,477.027 L 347.784,465.856 Z"/>
<path class="province" id="prv_e6ac98d13863c858b779" data-owner="county-of-flanders" data-area="area-1444-county-of-flanders" data-uncertainty="0.250" fill="#f0e754" fill-opacity="0.750" d="M 45.455,317.013 L 84.153,196.563 L 263.414,168.971 L 402.548,261.709 L 362.947,381.768 L 185.107,409.481 L 45.455,317.013 Z"/>
<path class="province" id="prv_e6d10700bb0f3bca58e8" data-owner="duchy-of-brabant" data-area="area-1444-duchy-of-brabant" data-uncertainty="0.150" fill="#d8d05d" fill-opacity="0.850" d="M 803.434,361.899 L 862.556,330.641 L 930.728,343.758 L 939.616,388.133 L 880.463,419.360 L 812.452,406.243 L 803.434,361.899 Z"/>
<path class="province" id="prv_e8d8d4d1b8a33753f213" data-owner="county-of-hainaut" data-area="area-1444-county-of-hainaut" data-uncertainty="0.250" fill="#c7125c" fill-opacity="0.750" d="M 428.204,425.794 L 460.038,410.805 L 467.326,405.141 L 484.605,385.242 L 489.982,381.693 L 490.197,381.603 L 527.197,394.606 L 549.823,398.859 L 559.097,443.138 L 500.623,474.652 L 500.623,474.652 L 431.947,428.319 L 428.204,425.794 Z"/>
<path class="province" id="prv_ebd5e5db3015e7391f72" data-owner="county-of-hainaut" data-area="area-1444-county-of-hainaut" data-uncertainty="0.250" fill="#c7125c" fill-opacity="0.750" d="M 332.108,549.839 L 388.248,524.694 L 452.717,547.294 L 480.772,534.778 L 445.033,550.814 L 340.725,597.616 L 340.574,597.564 L 332.108,549.839 Z"/>
<path class="province" id="prv_ffd654e936fba26ac99f" data-owner="county-of-flanders" data-area="area-1444-county-of-flanders" data-uncertainty="0.250" fill="#f0e754" fill-opacity="0.750" d="M 524.099,259.618 L 580.708,234.930 L 653.316,269.720 L 657.941,291.899 L 599.250,323.194 L 553.892,314.698 L 532.327,307.113 L 524.099,259.618 Z"/>
<path class="constraint forbidden-modern" id="forbidden-modern-brussels-capital-region" d="M 845.871,421.210 L 902.494,451.324 L 958.796,432.674 L 930.799,373.499 L 849.082,377.496 L 845.871,421.210 Z"/>
<path class="constraint hard-constraint" id="frontier-scheldt-flanders-empire" d="M 466.586,405.716 L 467.326,405.141 L 484.605,385.242 L 489.982,381.693 L 501.584,376.820 L 507.125,373.135 L 510.592,366.953 L 506.443,363.240 L 499.619,359.801 L 495.306,354.437 L 494.896,346.425 L 497.844,344.200 L 503.167,343.886 L 509.910,341.566 L 524.186,331.412 L 535.569,320.247 L 544.386,307.308 L 549.609,294.451"/>
</g>
<g class="scale-bar"><line x1="12.0" y1="728.0" x2="91.6" y2="728.0"/><line x1="12.0" y1="724.0" x2="12.0" y2="732.0"/><line x1="91.6" y1="724.0" x2="91.6" y2="732.0"/><text x="51.8" y="722.0" text-anchor="middle">≈10 km</text></g>
<text x="1020.0" y="30.0" class="panel-title">Legend</text><rect x="1020.0" y="40.0" width="18" height="10" class="legend-province"/><text x="1044.0" y="49.0">province (fill = owner colour, opacity = 1 − uncertainty)</text><line x1="1020.0" y1="62.0" x2="1038.0" y2="62.0" class="constraint hard-constraint"/><text x="1044.0" y="66.0">hard constraint (certified frontier sub-segment)</text><line x1="1020.0" y1="79.0" x2="1038.0" y2="79.0" class="constraint soft-evidence"/><text x="1044.0" y="83.0">soft evidence</text><line x1="1020.0" y1="96.0" x2="1038.0" y2="96.0" class="constraint forbidden-modern"/><text x="1044.0" y="100.0">forbidden modern outline (negative control; excluded from framing)</text><g class="control-point"><circle cx="1029.0" cy="113.0" r="3.2"/></g><text x="1044.0" y="117.0">georeferencing control point (name, residual km)</text><rect x="1020.0" y="125.0" width="18" height="10" class="focus-box"/><text x="1044.0" y="134.0">inset frame on the main map</text>
<text x="1020.0" y="182.0" class="panel-title">Inset A — frontier-scheldt-flanders-empire (hard constraint)</text>
<text x="1020.0" y="196.0" class="panel-title">vector-substring-wgs84 @ EPSG:4326; max residual 2.59 km ≤ budget 6 km</text>
<rect x="1020.0" y="204.0" width="420.0" height="210.0" class="inset-frame"/>
<g clip-path="url(#clip-inset-A)">
<path class="province" data-owner="county-of-flanders" data-area="area-1444-county-of-flanders" data-uncertainty="0.250" fill="#f0e754" fill-opacity="0.750" d="M 1196.153,305.220 L 1227.090,316.018 L 1254.002,304.123 L 1256.901,305.142 L 1256.798,305.185 L 1254.231,306.879 L 1245.983,316.378 L 1242.503,319.082 L 1227.307,326.238 L 1196.153,305.220 Z"/>
<path class="province" data-owner="county-of-hainaut" data-area="area-1444-county-of-hainaut" data-uncertainty="0.250" fill="#c7125c" fill-opacity="0.750" d="M 1200.908,413.640 L 1242.957,407.005 L 1277.392,423.811 L 1279.591,434.393 L 1251.843,449.482 L 1230.413,445.383 L 1220.199,441.792 L 1216.222,419.000 L 1200.908,413.640 Z"/>
<path class="province" data-owner="county-of-hainaut" data-area="area-1444-county-of-hainaut" data-uncertainty="0.250" fill="#c7125c" fill-opacity="0.750" d="M 1146.443,351.938 L 1173.310,339.925 L 1204.218,350.696 L 1208.232,373.452 L 1181.431,385.455 L 1150.551,374.712 L 1146.443,351.938 Z"/>
<path class="province" data-owner="county-of-flanders" data-area="area-1444-county-of-flanders" data-uncertainty="0.250" fill="#f0e754" fill-opacity="0.750" d="M 1196.153,305.220 L 1205.614,276.540 L 1219.081,270.597 L 1250.045,281.422 L 1254.002,304.123 L 1227.090,316.018 L 1196.153,305.220 L 1196.153,305.220 L 1196.153,305.220 Z"/>
<path class="province" data-owner="county-of-flanders" data-area="area-1444-county-of-flanders" data-uncertainty="0.250" fill="#f0e754" fill-opacity="0.750" d="M 1205.614,276.540 L 1215.058,247.906 L 1257.652,241.504 L 1300.110,235.122 L 1273.085,246.908 L 1277.013,269.581 L 1250.045,281.422 L 1219.081,270.597 L 1205.614,276.540 Z"/>
<path class="province" data-owner="county-of-flanders" data-area="area-1444-county-of-flanders" data-uncertainty="0.250" fill="#f0e754" fill-opacity="0.750" d="M 1250.045,281.422 L 1277.013,269.581 L 1281.708,271.233 L 1278.561,275.851 L 1273.127,281.181 L 1266.311,286.029 L 1263.093,287.136 L 1260.552,287.286 L 1259.144,288.348 L 1259.340,292.173 L 1261.399,294.734 L 1264.656,296.375 L 1266.637,298.148 L 1264.982,301.099 L 1262.337,302.859 L 1256.901,305.142 L 1254.002,304.123 L 1250.045,281.422 Z"/>
<path class="province" data-owner="county-of-flanders" data-area="area-1444-county-of-flanders" data-uncertainty="0.250" fill="#f0e754" fill-opacity="0.750" d="M 1308.961,277.258 L 1336.980,262.318 L 1345.776,304.495 L 1313.373,298.365 L 1308.961,277.258 Z"/>
<path class="province" data-owner="county-of-hainaut" data-area="area-1444-county-of-hainaut" data-uncertainty="0.150" fill="#c7125c" fill-opacity="0.850" d="M 1275.177,413.146 L 1303.016,398.087 L 1335.284,404.288 L 1339.637,425.550 L 1355.837,428.697 L 1311.783,440.595 L 1277.392,423.811 L 1277.392,423.811 L 1275.177,413.146 Z"/>
<path class="province" data-owner="county-of-hainaut" data-area="area-1444-county-of-hainaut" data-uncertainty="0.250" fill="#c7125c" fill-opacity="0.750" d="M 1266.384,370.743 L 1322.180,340.726 L 1326.548,361.842 L 1298.618,376.871 L 1266.384,370.743 Z"/>
<path class="province" data-owner="county-of-hainaut" data-area="area-1444-county-of-hainaut" data-uncertainty="0.250" fill="#c7125c" fill-opacity="0.750" d="M 1204.218,350.696 L 1231.075,338.746 L 1229.093,327.443 L 1227.307,326.238 L 1227.307,326.238 L 1261.878,349.562 L 1252.428,378.251 L 1252.401,378.265 L 1252.401,378.265 L 1239.008,384.240 L 1208.232,373.452 L 1204.218,350.696 Z"/>
<path class="province" data-owner="county-of-flanders" data-area="area-1444-county-of-flanders" data-uncertainty="0.250" fill="#f0e754" fill-opacity="0.750" d="M 1319.882,180.336 L 1339.355,175.087 L 1342.938,172.448 L 1343.104,171.834 L 1343.104,171.834 L 1344.372,167.127 L 1346.913,164.759 L 1352.668,164.933 L 1358.902,166.432 L 1360.722,167.152 L 1346.627,170.898 L 1360.722,167.152 L 1362.746,167.952 L 1364.505,169.624 L 1367.502,173.784 L 1369.870,175.413 L 1372.845,176.053 L 1379.296,176.596 L 1381.967,177.965 L 1383.683,178.399 L 1392.913,178.877 L 1397.496,174.566 L 1399.190,173.577 L 1404.402,173.947 L 1410.267,176.097 L 1410.440,176.162 L 1415.479,179.137 L 1417.608,181.787 L 1419.497,186.652 L 1423.906,190.018 L 1428.749,192.668 L 1432.007,195.285 L 1432.984,196.979 L 1433.375,198.608 L 1432.659,200.487 L 1430.856,202.355 L 1430.335,202.898 L 1433.441,201.920 L 1435.591,200.422 L 1439.435,195.285 L 1430.443,192.864 L 1428.358,191.799 L 1427.316,189.432 L 1427.511,183.655 L 1426.686,180.875 L 1424.710,178.736 L 1420.822,175.727 L 1419.758,174.891 L 1417.608,171.764 L 1416.891,168.506 L 1417.021,165.759 L 1416.500,163.684 L 1413.785,162.479 L 1410.658,165.020 L 1404.793,166.128 L 1380.794,165.693 L 1375.256,164.542 L 1369.870,162.479 L 1359.853,157.033 L 1373.864,149.723 L 1375.169,152.011 L 1379.122,155.355 L 1385.507,156.517 L 1399.407,155.312 L 1404.641,157.006 L 1409.919,155.931 L 1412.182,156.001 L 1478.574,187.745 L 1458.689,244.784 L 1369.588,268.413 L 1350.189,325.658 L 1319.882,180.336 Z"/>
<path class="province" data-owner="county-of-hainaut" data-area="area-1444-county-of-hainaut" data-uncertainty="0.250" fill="#c7125c" fill-opacity="0.750" d="M 1322.180,340.726 L 1350.189,325.658 L 1382.635,331.983 L 1382.635,331.983 L 1386.931,353.058 L 1358.893,368.042 L 1326.548,361.842 L 1322.180,340.726 Z"/>
<path class="province" data-owner="county-of-hainaut" data-area="area-1444-county-of-hainaut" data-uncertainty="0.250" fill="#c7125c" fill-opacity="0.750" d="M 1158.728,420.296 L 1239.014,384.272 L 1252.401,378.265 L 1316.274,343.903 L 1266.384,370.743 L 1298.618,376.871 L 1303.016,398.087 L 1275.177,413.146 L 1277.392,423.811 L 1242.957,407.005 L 1158.728,420.296 Z"/>
<path class="province" data-owner="county-of-flanders" data-area="area-1444-county-of-flanders" data-uncertainty="0.250" fill="#f0e754" fill-opacity="0.750" d="M 1256.901,305.142 L 1262.337,302.859 L 1264.982,301.099 L 1266.637,298.148 L 1264.656,296.375 L 1261.399,294.734 L 1259.340,292.173 L 1259.144,288.348 L 1260.552,287.286 L 1263.093,287.136 L 1266.311,286.029 L 1273.127,281.181 L 1278.561,275.851 L 1281.708,271.233 L 1287.308,273.202 L 1308.961,277.258 L 1313.373,298.365 L 1285.366,313.380 L 1274.564,311.349 L 1256.901,305.142 Z"/>
<path class="province" data-owner="county-of-flanders" data-area="area-1444-county-of-flanders" data-uncertainty="0.250" fill="#f0e754" fill-opacity="0.750" d="M 1153.772,311.825 L 1196.153,305.220 L 1227.307,326.238 L 1194.418,341.724 L 1188.915,345.363 L 1173.310,339.925 L 1169.230,317.179 L 1153.772,311.825 Z"/>
<path class="province" data-owner="county-of-hainaut" data-area="area-1444-county-of-hainaut" data-uncertainty="0.250" fill="#c7125c" fill-opacity="0.750" d="M 1298.618,376.871 L 1326.548,361.842 L 1358.893,368.042 L 1363.230,389.274 L 1335.284,404.288 L 1303.016,398.087 L 1298.618,376.871 Z"/>
<path class="province" data-owner="county-of-hainaut" data-area="area-1444-county-of-hainaut" data-uncertainty="0.250" fill="#c7125c" fill-opacity="0.750" d="M 1252.428,378.251 L 1261.878,349.562 L 1289.793,334.518 L 1285.366,313.380 L 1313.373,298.365 L 1345.776,304.495 L 1350.189,325.658 L 1350.189,325.658 L 1322.166,340.657 L 1350.189,325.658 L 1252.428,378.251 Z"/>
<path class="province" data-owner="county-of-flanders" data-area="area-1444-county-of-flanders" data-uncertainty="0.250" fill="#f0e754" fill-opacity="0.750" d="M 1148.638,203.635 L 1156.997,178.326 L 1177.397,174.185 L 1177.528,174.164 L 1220.618,165.433 L 1224.571,163.391 L 1228.741,163.087 L 1245.638,169.939 L 1271.657,174.598 L 1280.214,179.355 L 1285.905,180.875 L 1296.677,180.875 L 1306.842,182.699 L 1313.292,182.113 L 1318.552,180.695 L 1319.882,180.336 L 1334.772,251.730 L 1300.110,235.122 L 1215.058,247.906 L 1148.638,203.635 Z"/>
<path class="province" data-owner="county-of-flanders" data-area="area-1444-county-of-flanders" data-uncertainty="0.250" fill="#f0e754" fill-opacity="0.750" d="M 1098.063,359.546 L 1111.255,318.450 L 1153.772,311.825 L 1169.230,317.179 L 1173.310,339.925 L 1146.443,351.938 L 1115.430,341.214 L 1102.013,347.243 L 1098.063,359.546 Z"/>
<path class="province" data-owner="county-of-flanders" data-area="area-1444-county-of-flanders" data-uncertainty="0.150" fill="#f0e754" fill-opacity="0.850" d="M 1049.869,383.004 L 1092.755,376.082 L 1092.755,376.082 L 1102.013,347.243 L 1115.430,341.214 L 1146.443,351.938 L 1150.551,374.712 L 1123.740,386.779 L 1127.875,409.580 L 1158.728,420.296 L 1049.869,383.004 Z"/>
<path class="province" data-owner="county-of-hainaut" data-area="area-1444-county-of-hainaut" data-uncertainty="0.250" fill="#c7125c" fill-opacity="0.750" d="M 1188.915,345.363 L 1194.418,341.724 L 1227.307,326.238 L 1229.093,327.443 L 1231.075,338.746 L 1204.218,350.696 L 1188.915,345.363 Z"/>
<path class="province" data-owner="county-of-flanders" data-area="area-1444-county-of-flanders" data-uncertainty="0.250" fill="#f0e754" fill-opacity="0.750" d="M 1044.587,274.308 L 1063.062,216.806 L 1148.638,203.635 L 1215.058,247.906 L 1196.153,305.220 L 1111.255,318.450 L 1044.587,274.308 Z"/>
<path class="province" data-owner="county-of-hainaut" data-area="area-1444-county-of-hainaut" data-uncertainty="0.250" fill="#c7125c" fill-opacity="0.750" d="M 1227.307,326.238 L 1242.503,319.082 L 1245.983,316.378 L 1254.231,306.879 L 1256.798,305.185 L 1256.901,305.142 L 1274.564,311.349 L 1285.366,313.380 L 1289.793,334.518 L 1261.878,349.562 L 1261.878,349.562 L 1229.093,327.443 L 1227.307,326.238 Z"/>
<path class="province" data-owner="county-of-hainaut" data-area="area-1444-county-of-hainaut" data-uncertainty="0.250" fill="#c7125c" fill-opacity="0.750" d="M 1181.431,385.455 L 1208.232,373.452 L 1239.008,384.240 L 1252.401,378.265 L 1235.340,385.921 L 1185.545,408.263 L 1185.473,408.238 L 1181.431,385.455 Z"/>
<path class="province" data-owner="county-of-flanders" data-area="area-1444-county-of-flanders" data-uncertainty="0.250" fill="#f0e754" fill-opacity="0.750" d="M 1273.085,246.908 L 1300.110,235.122 L 1334.772,251.730 L 1336.980,262.318 L 1308.961,277.258 L 1287.308,273.202 L 1277.013,269.581 L 1273.085,246.908 Z"/>
<path class="constraint hard-constraint" d="M 1245.629,316.653 L 1245.983,316.378 L 1254.231,306.879 L 1256.798,305.185 L 1262.337,302.859 L 1264.982,301.099 L 1266.637,298.148 L 1264.656,296.375 L 1261.399,294.734 L 1259.340,292.173 L 1259.144,288.348 L 1260.552,287.286 L 1263.093,287.136 L 1266.311,286.029 L 1273.127,281.181 L 1278.561,275.851 L 1282.770,269.674 L 1285.263,263.537"/>
</g>
<g class="control-point"><circle cx="1174.7" cy="357.8" r="3.2"/><text x="1180.7" y="352.8" text-anchor="start">Pecq (north edge of the Tournaisis) (0.851 km)</text></g>
<g class="control-point"><circle cx="1244.7" cy="315.4" r="3.2"/><text x="1238.7" y="327.4" text-anchor="end">Oudenaarde (0.577 km)</text></g>
<g class="control-point"><circle cx="1277.0" cy="260.2" r="3.2"/><text x="1271.0" y="255.2" text-anchor="end">Ghent (Leie confluence) (2.59 km)</text></g>
<g class="scale-bar"><line x1="1032.0" y1="402.0" x2="1108.0" y2="402.0"/><line x1="1032.0" y1="398.0" x2="1032.0" y2="406.0"/><line x1="1108.0" y1="398.0" x2="1108.0" y2="406.0"/><text x="1070.0" y="396.0" text-anchor="middle">≈20 km</text></g>
<rect x="213.9" y="169.7" width="439.9" height="439.9" class="focus-box"/>
<text x="216.9" y="182.7" class="focus-label">A</text>
<text x="1020.0" y="440.0" class="panel-title">Inset B — forbidden-modern-brussels-capital-region</text>
<text x="1020.0" y="454.0" class="panel-title">negative control: modern outline vs 1444 provinces</text>
<rect x="1020.0" y="462.0" width="420.0" height="210.0" class="inset-frame"/>
<g clip-path="url(#clip-inset-B)">
<path class="province" data-owner="county-of-flanders" data-area="area-1444-county-of-flanders" data-uncertainty="0.250" fill="#f0e754" fill-opacity="0.750" d="M 949.070,498.565 L 978.111,412.870 L 978.111,412.870 L 1245.103,342.067 L 1245.103,342.067 L 1160.249,386.688 L 1173.099,450.027 L 1088.525,494.743 L 991.146,476.164 L 949.070,498.565 Z"/>
<path class="province" data-owner="county-of-flanders" data-area="area-1444-county-of-flanders" data-uncertainty="0.250" fill="#f0e754" fill-opacity="0.750" d="M 829.166,148.946 L 887.514,133.216 L 898.253,125.309 L 898.748,123.470 L 898.748,123.470 L 902.548,109.364 L 910.163,102.270 L 927.409,102.791 L 946.087,107.282 L 951.543,109.439 L 909.307,120.664 L 951.543,109.439 L 957.607,111.837 L 962.878,116.848 L 971.859,129.311 L 978.953,134.193 L 987.869,136.112 L 1007.198,137.739 L 1015.203,141.840 L 1020.345,143.141 L 1048.004,144.573 L 1061.736,131.654 L 1066.812,128.693 L 1082.432,129.800 L 1100.004,136.243 L 1100.524,136.438 L 1115.623,145.354 L 1122.001,153.294 L 1127.663,167.872 L 1140.874,177.959 L 1155.387,185.899 L 1165.150,193.742 L 1168.078,198.818 L 1169.250,203.699 L 1167.102,209.328 L 1161.700,214.925 L 1160.138,216.552 L 1169.445,213.624 L 1175.888,209.133 L 1187.407,193.742 L 1160.464,186.485 L 1154.216,183.296 L 1151.092,176.202 L 1151.678,158.891 L 1149.205,150.560 L 1143.282,144.150 L 1131.633,135.136 L 1128.444,132.631 L 1122.001,123.259 L 1119.853,113.497 L 1120.244,105.264 L 1118.682,99.049 L 1110.547,95.437 L 1101.175,103.051 L 1083.603,106.370 L 1011.689,105.069 L 995.093,101.620 L 978.953,95.437 L 948.937,79.119 L 990.921,57.214 L 994.833,64.068 L 1006.678,74.090 L 1025.811,77.572 L 1067.463,73.960 L 1083.148,79.036 L 1098.962,75.815 L 1105.742,76.027 L 1304.689,171.146 L 1245.103,342.067 L 978.111,412.870 L 919.980,584.405 L 829.166,148.946 Z"/>
<path class="province" data-owner="duchy-of-brabant" data-area="area-1444-duchy-of-brabant" data-uncertainty="0.150" fill="#d8d05d" fill-opacity="0.850" d="M 1088.525,494.743 L 1173.099,450.027 L 1270.618,468.791 L 1283.333,532.270 L 1198.715,576.940 L 1101.425,558.176 L 1088.525,494.743 Z"/>
<path class="constraint forbidden-modern" d="M 1149.231,579.587 L 1230.229,622.664 L 1310.769,595.986 L 1270.720,511.336 L 1153.824,517.054 L 1149.231,579.587 Z"/>
</g>
<g class="scale-bar"><line x1="1032.0" y1="660.0" x2="1145.7" y2="660.0"/><line x1="1032.0" y1="656.0" x2="1032.0" y2="664.0"/><line x1="1145.7" y1="656.0" x2="1145.7" y2="664.0"/><text x="1088.9" y="654.0" text-anchor="middle">≈10 km</text></g>
<rect x="828.9" y="339.0" width="146.8" height="146.8" class="focus-box"/>
<text x="831.9" y="352.0" class="focus-label">B</text>
</svg>
