<?xml version="1.0" encoding="UTF-8"?>
<svg xmlns="http://www.w3.org/2000/svg" width="1000" height="740" viewBox="0 0 1000 740">
<title>official-1444-reconstruction-v2 — low-countries</title><desc>Deterministic M25 review: provinces, ownership, hierarchy, uncertainty, historical constraints, and forbidden modern outlines.</desc>
<style>.province{stroke:#222;stroke-width:.7;vector-effect:non-scaling-stroke}.constraint{fill:none;stroke-width:3;vector-effect:non-scaling-stroke}.hard-constraint{stroke:#111}.soft-evidence{stroke:#d28b00;stroke-dasharray:7 5}.forbidden-modern{stroke:#d00000;stroke-dasharray:2 4}</style>
<rect width="1000" height="740" fill="#f7f3e8"/><text x="35" y="25" font-family="sans-serif" font-size="16">official-1444-reconstruction-v2 — low-countries</text>
<path class="province" id="prv_1db684291f2e0e6ae7ba" data-owner="county-of-flanders" data-area="area-1444-county-of-flanders" data-uncertainty="0.250" fill="#f0e754" fill-opacity="0.750" d="M 697.684,344.553 L 718.052,284.449 L 718.052,284.449 L 905.314,234.789 L 905.314,234.789 L 845.800,266.085 L 854.813,310.510 L 795.494,341.872 L 727.195,328.842 L 697.684,344.553 Z"/>
<path class="province" id="prv_296a75f0f1c05ea33fd8" data-owner="county-of-flanders" data-area="area-1444-county-of-flanders" data-uncertainty="0.250" fill="#f0e754" fill-opacity="0.750" d="M 353.545,361.807 L 418.564,384.499 L 475.125,359.500 L 481.218,361.641 L 481.002,361.732 L 475.607,365.292 L 458.271,385.258 L 450.958,390.941 L 419.020,405.980 L 353.545,361.807 Z"/>
<path class="province" id="prv_2c72f4936c995b0f22a7" data-owner="county-of-hainaut" data-area="area-1444-county-of-hainaut" data-uncertainty="0.250" fill="#c7125c" fill-opacity="0.750" d="M 363.539,589.672 L 451.911,575.728 L 524.285,611.048 L 528.904,633.287 L 470.589,665.000 L 425.549,656.385 L 404.081,648.838 L 395.724,600.936 L 363.539,589.672 Z"/>
<path class="province" id="prv_3695c9236b30222edb91" data-owner="county-of-hainaut" data-area="area-1444-county-of-hainaut" data-uncertainty="0.250" fill="#c7125c" fill-opacity="0.750" d="M 249.069,459.994 L 305.535,434.746 L 370.496,457.382 L 378.931,505.208 L 322.604,530.435 L 257.703,507.857 L 249.069,459.994 Z"/>
<path class="province" id="prv_37dd4f90e7158380e390" data-owner="county-of-flanders" data-area="area-1444-county-of-flanders" data-uncertainty="0.250" fill="#f0e754" fill-opacity="0.750" d="M 353.545,361.807 L 373.428,301.529 L 401.733,289.040 L 466.809,311.789 L 475.125,359.500 L 418.564,384.499 L 353.545,361.807 L 353.545,361.807 L 353.545,361.807 Z"/>
<path class="province" id="prv_3af0773db9eca9d9f621" data-owner="county-of-flanders" data-area="area-1444-county-of-flanders" data-uncertainty="0.250" fill="#f0e754" fill-opacity="0.750" d="M 373.428,301.529 L 393.278,241.350 L 482.796,227.894 L 572.029,214.482 L 515.233,239.252 L 523.488,286.904 L 466.809,311.789 L 401.733,289.040 L 373.428,301.529 Z"/>
<path class="province" id="prv_3e06a0a1a99e488f610d" data-owner="county-of-flanders" data-area="area-1444-county-of-flanders" data-uncertainty="0.250" fill="#f0e754" fill-opacity="0.750" d="M 53.031,392.517 L 109.656,367.115 L 105.223,343.334 L 175.116,389.612 L 155.691,450.126 L 136.234,510.737 L 127.402,462.837 L 62.004,440.396 L 53.031,392.517 Z"/>
<path class="province" id="prv_408061529042d3d5c90a" data-owner="county-of-flanders" data-area="area-1444-county-of-flanders" data-uncertainty="0.250" fill="#f0e754" fill-opacity="0.750" d="M 466.809,311.789 L 523.488,286.904 L 533.355,290.375 L 526.740,300.082 L 515.320,311.284 L 500.996,321.472 L 494.231,323.800 L 488.890,324.115 L 485.932,326.347 L 486.343,334.385 L 490.671,339.767 L 497.518,343.217 L 501.681,346.942 L 498.202,353.145 L 492.642,356.843 L 481.218,361.641 L 475.125,359.500 L 466.809,311.789 Z"/>
<path class="province" id="prv_492c17233cc6707895f3" data-owner="county-of-flanders" data-area="area-1444-county-of-flanders" data-uncertainty="0.250" fill="#f0e754" fill-opacity="0.750" d="M 590.633,303.039 L 649.519,271.639 L 668.005,360.282 L 599.904,347.399 L 590.633,303.039 Z"/>
<path class="province" id="prv_4bcaf061448f2694d4ec" data-owner="county-of-hainaut" data-area="area-1444-county-of-hainaut" data-uncertainty="0.150" fill="#c7125c" fill-opacity="0.850" d="M 519.629,588.634 L 578.137,556.983 L 645.955,570.017 L 655.104,614.703 L 689.151,621.317 L 596.563,646.322 L 524.285,611.048 L 524.285,611.048 L 519.629,588.634 Z"/>
<path class="province" id="prv_54e772743ba195f83cba" data-owner="county-of-hainaut" data-area="area-1444-county-of-hainaut" data-uncertainty="0.250" fill="#c7125c" fill-opacity="0.750" d="M 501.148,499.515 L 618.415,436.428 L 627.595,480.807 L 568.894,512.395 L 501.148,499.515 Z"/>
<path class="province" id="prv_5600510359badc732daa" data-owner="county-of-hainaut" data-area="area-1444-county-of-hainaut" data-uncertainty="0.250" fill="#c7125c" fill-opacity="0.750" d="M 370.496,457.382 L 426.940,432.268 L 422.774,408.513 L 419.020,405.980 L 419.020,405.980 L 491.679,455.000 L 471.818,515.294 L 471.761,515.325 L 471.761,515.325 L 443.613,527.882 L 378.931,505.208 L 370.496,457.382 Z"/>
<path class="province" id="prv_6ab3d9bbe65764d756d1" data-owner="county-of-flanders" data-area="area-1444-county-of-flanders" data-uncertainty="0.250" fill="#f0e754" fill-opacity="0.750" d="M 613.586,99.339 L 654.510,88.306 L 662.042,82.760 L 662.389,81.470 L 662.389,81.470 L 665.054,71.577 L 670.395,66.601 L 682.491,66.966 L 695.592,70.116 L 699.418,71.629 L 669.795,79.502 L 699.418,71.629 L 703.671,73.311 L 707.368,76.826 L 713.668,85.567 L 718.643,88.991 L 724.897,90.337 L 738.454,91.478 L 744.068,94.354 L 747.674,95.267 L 767.074,96.271 L 776.705,87.211 L 780.266,85.134 L 791.221,85.910 L 803.545,90.429 L 803.910,90.566 L 814.500,96.819 L 818.974,102.388 L 822.945,112.613 L 832.211,119.688 L 842.390,125.257 L 849.237,130.757 L 851.291,134.317 L 852.113,137.741 L 850.606,141.689 L 846.818,145.615 L 845.722,146.756 L 852.250,144.702 L 856.769,141.552 L 864.848,130.757 L 845.951,125.667 L 841.568,123.431 L 839.377,118.455 L 839.788,106.313 L 838.054,100.471 L 833.900,95.975 L 825.729,89.653 L 823.493,87.895 L 818.974,81.322 L 817.467,74.475 L 817.741,68.701 L 816.646,64.342 L 810.940,61.808 L 804.367,67.149 L 792.042,69.477 L 741.603,68.564 L 729.963,66.145 L 718.643,61.808 L 697.591,50.364 L 727.037,35.000 L 729.781,39.807 L 738.088,46.836 L 751.508,49.278 L 780.722,46.745 L 791.723,50.305 L 802.815,48.046 L 807.570,48.195 L 947.107,114.909 L 905.314,234.789 L 718.052,284.449 L 677.281,404.759 L 613.586,99.339 Z"/>
<path class="province" id="prv_6ac683fb1e24ec7e19b5" data-owner="county-of-flanders" data-area="area-1444-county-of-flanders" data-uncertainty="0.250" fill="#f0e754" fill-opacity="0.750" d="M 677.281,404.759 L 677.281,404.759 L 677.281,404.759 L 697.684,344.553 L 727.195,328.842 L 795.494,341.872 L 804.542,386.363 L 745.419,417.791 L 745.473,418.054 L 814.513,431.513 L 677.281,404.759 Z"/>
<path class="province" id="prv_7828eda90645527f0312" data-owner="county-of-hainaut" data-area="area-1444-county-of-hainaut" data-uncertainty="0.250" fill="#c7125c" fill-opacity="0.750" d="M 618.415,436.428 L 677.281,404.759 L 745.473,418.054 L 745.473,418.054 L 754.501,462.347 L 695.573,493.839 L 627.595,480.807 L 618.415,436.428 Z"/>
<path class="province" id="prv_8101e9e8388b398f0806" data-owner="county-of-hainaut" data-area="area-1444-county-of-hainaut" data-uncertainty="0.250" fill="#c7125c" fill-opacity="0.750" d="M 274.889,603.660 L 443.625,527.949 L 471.761,515.325 L 606.002,443.106 L 501.148,499.515 L 568.894,512.395 L 578.137,556.983 L 519.629,588.634 L 524.285,611.048 L 451.911,575.728 L 274.889,603.660 Z"/>
<path class="province" id="prv_8f287a8245c6356a267e" data-owner="county-of-flanders" data-area="area-1444-county-of-flanders" data-uncertainty="0.250" fill="#f0e754" fill-opacity="0.750" d="M 481.218,361.641 L 492.642,356.843 L 498.202,353.145 L 501.681,346.942 L 497.518,343.217 L 490.671,339.767 L 486.343,334.385 L 485.932,326.347 L 488.890,324.115 L 494.231,323.800 L 500.996,321.472 L 515.320,311.284 L 526.740,300.082 L 533.355,290.375 L 545.124,294.515 L 590.633,303.039 L 599.904,347.399 L 541.042,378.955 L 518.341,374.687 L 481.218,361.641 Z"/>
<path class="province" id="prv_8f3ffff26780128439a5" data-owner="county-of-flanders" data-area="area-1444-county-of-flanders" data-uncertainty="0.250" fill="#f0e754" fill-opacity="0.750" d="M 264.472,375.687 L 353.545,361.807 L 419.020,405.980 L 349.897,438.527 L 338.333,446.174 L 305.535,434.746 L 296.961,386.940 L 264.472,375.687 Z"/>
<path class="province" id="prv_b2bee00da34af6afdf61" data-owner="county-of-hainaut" data-area="area-1444-county-of-hainaut" data-uncertainty="0.250" fill="#c7125c" fill-opacity="0.750" d="M 568.894,512.395 L 627.595,480.807 L 695.573,493.839 L 704.689,538.461 L 645.955,570.017 L 578.137,556.983 L 568.894,512.395 Z"/>
<path class="province" id="prv_b67b1161766824c71a24" data-owner="county-of-hainaut" data-area="area-1444-county-of-hainaut" data-uncertainty="0.250" fill="#c7125c" fill-opacity="0.750" d="M 471.818,515.294 L 491.679,455.000 L 550.346,423.380 L 541.042,378.955 L 599.904,347.399 L 668.005,360.282 L 677.281,404.759 L 677.281,404.759 L 618.385,436.283 L 677.281,404.759 L 471.818,515.294 Z"/>
<path class="province" id="prv_c4bad927df7954fb501d" data-owner="county-of-flanders" data-area="area-1444-county-of-flanders" data-uncertainty="0.250" fill="#f0e754" fill-opacity="0.750" d="M 253.683,148.305 L 271.250,95.115 L 314.126,86.412 L 314.400,86.366 L 404.962,68.016 L 413.270,63.726 L 422.034,63.086 L 457.546,77.488 L 512.231,87.279 L 530.215,97.276 L 542.175,100.471 L 564.815,100.471 L 586.178,104.305 L 599.735,103.073 L 610.790,100.092 L 613.586,99.339 L 644.878,249.387 L 572.029,214.482 L 393.278,241.350 L 253.683,148.305 Z"/>
<path class="province" id="prv_d3539c01d21e26cf821d" data-owner="county-of-flanders" data-area="area-1444-county-of-flanders" data-uncertainty="0.250" fill="#f0e754" fill-opacity="0.750" d="M 147.390,475.983 L 175.116,389.612 L 264.472,375.687 L 296.961,386.940 L 305.535,434.746 L 249.069,459.994 L 183.889,437.455 L 155.691,450.126 L 147.390,475.983 Z"/>
<path class="province" id="prv_e203941f5e999fe72ffa" data-owner="county-of-flanders" data-area="area-1444-county-of-flanders" data-uncertainty="0.150" fill="#f0e754" fill-opacity="0.850" d="M 46.100,525.284 L 136.234,510.737 L 136.234,510.737 L 155.691,450.126 L 183.889,437.455 L 249.069,459.994 L 257.703,507.857 L 201.354,533.218 L 210.046,581.139 L 274.889,603.660 L 46.100,525.284 Z"/>
<path class="province" id="prv_e62f39a3b8c1ea879662" data-owner="county-of-hainaut" data-area="area-1444-county-of-hainaut" data-uncertainty="0.250" fill="#c7125c" fill-opacity="0.750" d="M 338.333,446.174 L 349.897,438.527 L 419.020,405.980 L 422.774,408.513 L 426.940,432.268 L 370.496,457.382 L 338.333,446.174 Z"/>
<path class="province" id="prv_e6ac98d13863c858b779" data-owner="county-of-flanders" data-area="area-1444-county-of-flanders" data-uncertainty="0.250" fill="#f0e754" fill-opacity="0.750" d="M 35.000,296.838 L 73.827,175.988 L 253.683,148.305 L 393.278,241.350 L 353.545,361.807 L 175.116,389.612 L 35.000,296.838 Z"/>
<path class="province" id="prv_e6d10700bb0f3bca58e8" data-owner="duchy-of-brabant" data-area="area-1444-duchy-of-brabant" data-uncertainty="0.150" fill="#d8d05d" fill-opacity="0.850" d="M 795.494,341.872 L 854.813,310.510 L 923.210,323.670 L 932.128,368.193 L 872.779,399.524 L 804.542,386.363 L 795.494,341.872 Z"/>
<path class="province" id="prv_e8d8d4d1b8a33753f213" data-owner="county-of-hainaut" data-area="area-1444-county-of-hainaut" data-uncertainty="0.250" fill="#c7125c" fill-opacity="0.750" d="M 419.020,405.980 L 450.958,390.941 L 458.271,385.258 L 475.607,365.292 L 481.002,361.732 L 481.218,361.641 L 518.341,374.687 L 541.042,378.955 L 550.346,423.380 L 491.679,455.000 L 491.679,455.000 L 422.774,408.513 L 419.020,405.980 Z"/>
<path class="province" id="prv_ebd5e5db3015e7391f72" data-owner="county-of-hainaut" data-area="area-1444-county-of-hainaut" data-uncertainty="0.250" fill="#c7125c" fill-opacity="0.750" d="M 322.604,530.435 L 378.931,505.208 L 443.613,527.882 L 471.761,515.325 L 435.904,531.414 L 331.250,578.371 L 331.099,578.318 L 322.604,530.435 Z"/>
<path class="province" id="prv_ffd654e936fba26ac99f" data-owner="county-of-flanders" data-area="area-1444-county-of-flanders" data-uncertainty="0.250" fill="#f0e754" fill-opacity="0.750" d="M 515.233,239.252 L 572.029,214.482 L 644.878,249.387 L 649.519,271.639 L 590.633,303.039 L 545.124,294.515 L 523.488,286.904 L 515.233,239.252 Z"/>
<path class="constraint forbidden-modern" id="forbidden-modern-brussels-capital-region" d="M 838.072,401.380 L 894.883,431.594 L 951.371,412.882 L 923.282,353.510 L 841.294,357.521 L 838.072,401.380 Z"/>
<path class="constraint hard-constraint" id="frontier-scheldt-flanders-empire" d="M 457.529,385.834 L 458.271,385.258 L 475.607,365.292 L 481.002,361.732 L 492.642,356.843 L 498.202,353.145 L 501.681,346.942 L 497.518,343.217 L 490.671,339.767 L 486.343,334.385 L 485.932,326.347 L 488.890,324.115 L 494.231,323.800 L 500.996,321.472 L 515.320,311.284 L 526.740,300.082 L 535.587,287.100 L 540.827,274.201"/>
</svg>
